<?xml version="1.0" encoding="utf-8" standalone="no"?>
<!DOCTYPE svg PUBLIC "-//W3C//DTD SVG 1.1//EN"
  "http://www.w3.org/Graphics/SVG/1.1/DTD/svg11.dtd">
<svg xmlns:xlink="http://www.w3.org/1999/xlink" width="407.925625pt" height="279.579375pt" viewBox="0 0 407.925625 279.579375" xmlns="http://www.w3.org/2000/svg" version="1.1">
 <metadata>
  <rdf:RDF xmlns:dc="http://purl.org/dc/elements/1.1/" xmlns:cc="http://creativecommons.org/ns#" xmlns:rdf="http://www.w3.org/1999/02/22-rdf-syntax-ns#">
   <cc:Work>
    <dc:type rdf:resource="http://purl.org/dc/dcmitype/StillImage"/>
    <dc:date>2024-02-19T10:46:42.390194</dc:date>
    <dc:format>image/svg+xml</dc:format>
    <dc:creator>
     <cc:Agent>
      <dc:title>Matplotlib v3.7.2, https://matplotlib.org/</dc:title>
     </cc:Agent>
    </dc:creator>
   </cc:Work>
  </rdf:RDF>
 </metadata>
 <defs>
  <style type="text/css">*{stroke-linejoin: round; stroke-linecap: butt}</style>
 </defs>
 <g id="figure_1">
  <g id="patch_1">
   <path d="M 0 279.579375 
L 407.925625 279.579375 
L 407.925625 0 
L 0 0 
z
" style="fill: #ffffff"/>
  </g>
  <g id="axes_1">
   <g id="patch_2">
    <path d="M 65.925625 224.64 
L 400.725625 224.64 
L 400.725625 7.2 
L 65.925625 7.2 
z
" style="fill: #ffffff"/>
   </g>
   <g id="PolyCollection_1">
    <path d="M 90.932109 190.987484 
L 84.588706 190.987484 
L 84.295026 190.011199 
L 83.998015 189.034914 
L 83.700686 188.058629 
L 83.406208 187.082344 
L 83.117846 186.106059 
L 82.838897 185.129774 
L 82.572613 184.153489 
L 82.322124 183.177204 
L 82.090359 182.200919 
L 81.879972 181.224634 
L 81.693267 180.248349 
L 81.532142 179.272064 
L 81.39804 178.295779 
L 81.291924 177.319494 
L 81.214263 176.343209 
L 81.165045 175.366924 
L 81.143807 174.390639 
L 81.149677 173.414354 
L 81.181437 172.438069 
L 81.237582 171.461784 
L 81.31639 170.485499 
L 81.415985 169.509214 
L 81.534394 168.532929 
L 81.669584 167.556644 
L 81.819495 166.580359 
L 81.982057 165.604074 
L 82.155187 164.627789 
L 82.336785 163.651504 
L 82.524725 162.675219 
L 82.716839 161.698934 
L 82.910922 160.722649 
L 83.104733 159.746364 
L 83.29602 158.770079 
L 83.482561 157.793794 
L 83.662217 156.817509 
L 83.833005 155.841224 
L 83.993174 154.864939 
L 84.141286 153.888654 
L 84.276296 152.912369 
L 84.39761 151.936084 
L 84.505136 150.959799 
L 84.599299 149.983514 
L 84.681032 149.007229 
L 84.751736 148.030944 
L 84.813208 147.054659 
L 84.867551 146.078374 
L 84.917056 145.102089 
L 84.964083 144.125804 
L 85.010935 143.149519 
L 85.059743 142.173234 
L 85.112361 141.196949 
L 85.170296 140.220664 
L 85.23465 139.244379 
L 85.306097 138.268094 
L 85.384896 137.291809 
L 85.470913 136.315524 
L 85.563675 135.339239 
L 85.662434 134.362954 
L 85.76624 133.386669 
L 85.874008 132.410383 
L 85.984591 131.434098 
L 86.096835 130.457813 
L 86.209624 129.481528 
L 86.321917 128.505243 
L 86.432764 127.528958 
L 86.541315 126.552673 
L 86.646821 125.576388 
L 86.74863 124.600103 
L 86.846172 123.623818 
L 86.938954 122.647533 
L 87.026549 121.671248 
L 87.108589 120.694963 
L 87.184762 119.718678 
L 87.254813 118.742393 
L 87.318542 117.766108 
L 87.37581 116.789823 
L 87.426537 115.813538 
L 87.470713 114.837253 
L 87.508393 113.860968 
L 87.5397 112.884683 
L 87.564827 111.908398 
L 87.584033 110.932113 
L 87.597642 109.955828 
L 87.60604 108.979543 
L 87.609672 108.003258 
L 87.609036 107.026973 
L 87.604683 106.050688 
L 87.597207 105.074403 
L 87.58724 104.098118 
L 87.57544 103.121833 
L 87.562485 102.145548 
L 87.549054 101.169263 
L 87.535811 100.192978 
L 87.523391 99.216693 
L 87.512379 98.240408 
L 87.503287 97.264123 
L 87.496546 96.287838 
L 87.492481 95.311553 
L 87.491308 94.335268 
L 88.029508 94.335268 
L 88.029508 94.335268 
L 88.028334 95.311553 
L 88.024269 96.287838 
L 88.017528 97.264123 
L 88.008437 98.240408 
L 87.997424 99.216693 
L 87.985004 100.192978 
L 87.971762 101.169263 
L 87.95833 102.145548 
L 87.945375 103.121833 
L 87.933575 104.098118 
L 87.923608 105.074403 
L 87.916132 106.050688 
L 87.911779 107.026973 
L 87.911143 108.003258 
L 87.914775 108.979543 
L 87.923173 109.955828 
L 87.936782 110.932113 
L 87.955988 111.908398 
L 87.981116 112.884683 
L 88.012423 113.860968 
L 88.050102 114.837253 
L 88.094278 115.813538 
L 88.145006 116.789823 
L 88.202273 117.766108 
L 88.266002 118.742393 
L 88.336053 119.718678 
L 88.412227 120.694963 
L 88.494266 121.671248 
L 88.581861 122.647533 
L 88.674643 123.623818 
L 88.772185 124.600103 
L 88.873994 125.576388 
L 88.979501 126.552673 
L 89.088051 127.528958 
L 89.198898 128.505243 
L 89.311191 129.481528 
L 89.423981 130.457813 
L 89.536224 131.434098 
L 89.646807 132.410383 
L 89.754575 133.386669 
L 89.858381 134.362954 
L 89.95714 135.339239 
L 90.049903 136.315524 
L 90.135919 137.291809 
L 90.214718 138.268094 
L 90.286166 139.244379 
L 90.350519 140.220664 
L 90.408454 141.196949 
L 90.461073 142.173234 
L 90.50988 143.149519 
L 90.556732 144.125804 
L 90.603759 145.102089 
L 90.653264 146.078374 
L 90.707607 147.054659 
L 90.769079 148.030944 
L 90.839783 149.007229 
L 90.921516 149.983514 
L 91.01568 150.959799 
L 91.123206 151.936084 
L 91.24452 152.912369 
L 91.379529 153.888654 
L 91.527641 154.864939 
L 91.68781 155.841224 
L 91.858598 156.817509 
L 92.038254 157.793794 
L 92.224795 158.770079 
L 92.416082 159.746364 
L 92.609893 160.722649 
L 92.803976 161.698934 
L 92.996091 162.675219 
L 93.18403 163.651504 
L 93.365628 164.627789 
L 93.538758 165.604074 
L 93.70132 166.580359 
L 93.851232 167.556644 
L 93.986421 168.532929 
L 94.10483 169.509214 
L 94.204425 170.485499 
L 94.283233 171.461784 
L 94.339378 172.438069 
L 94.371138 173.414354 
L 94.377008 174.390639 
L 94.35577 175.366924 
L 94.306552 176.343209 
L 94.228891 177.319494 
L 94.122775 178.295779 
L 93.988673 179.272064 
L 93.827548 180.248349 
L 93.640843 181.224634 
L 93.430456 182.200919 
L 93.198692 183.177204 
L 92.948202 184.153489 
L 92.681918 185.129774 
L 92.402969 186.106059 
L 92.114607 187.082344 
L 91.820129 188.058629 
L 91.5228 189.034914 
L 91.225789 190.011199 
L 90.932109 190.987484 
z
" clip-path="url(#pd5fe7f40ef)" style="fill: #1f77b4; fill-opacity: 0.3"/>
   </g>
   <g id="PolyCollection_2">
    <path d="M 117.845299 192.101497 
L 110.608322 192.101497 
L 110.284556 191.226116 
L 109.960995 190.350735 
L 109.641913 189.475355 
L 109.331759 188.599974 
L 109.035059 187.724593 
L 108.756297 186.849212 
L 108.499801 185.973831 
L 108.26963 185.098451 
L 108.069469 184.22307 
L 107.902525 183.347689 
L 107.771447 182.472308 
L 107.678257 181.596927 
L 107.624299 180.721547 
L 107.61021 179.846166 
L 107.635908 178.970785 
L 107.700603 178.095404 
L 107.802822 177.220023 
L 107.940454 176.344642 
L 108.110811 175.469262 
L 108.310697 174.593881 
L 108.536489 173.7185 
L 108.784231 172.843119 
L 109.049726 171.967738 
L 109.328634 171.092358 
L 109.616575 170.216977 
L 109.909221 169.341596 
L 110.202392 168.466215 
L 110.492142 167.590834 
L 110.774837 166.715454 
L 111.047221 165.840073 
L 111.306473 164.964692 
L 111.550244 164.089311 
L 111.776687 163.21393 
L 111.984463 162.33855 
L 112.172742 161.463169 
L 112.341182 160.587788 
L 112.489896 159.712407 
L 112.619414 158.837026 
L 112.730626 157.961645 
L 112.824728 157.086265 
L 112.903155 156.210884 
L 112.967514 155.335503 
L 113.019524 154.460122 
L 113.060946 153.584741 
L 113.093525 152.709361 
L 113.11894 151.83398 
L 113.138752 150.958599 
L 113.154369 150.083218 
L 113.167019 149.207837 
L 113.177728 148.332457 
L 113.187315 147.457076 
L 113.196395 146.581695 
L 113.205385 145.706314 
L 113.214533 144.830933 
L 113.223939 143.955553 
L 113.233592 143.080172 
L 113.243408 142.204791 
L 113.253264 141.32941 
L 113.263042 140.454029 
L 113.272655 139.578648 
L 113.28208 138.703268 
L 113.291375 137.827887 
L 113.30069 136.952506 
L 113.31027 136.077125 
L 113.320444 135.201744 
L 113.331604 134.326364 
L 113.344188 133.450983 
L 113.35864 132.575602 
L 113.375378 131.700221 
L 113.394766 130.82484 
L 113.417071 129.94946 
L 113.442446 129.074079 
L 113.470906 128.198698 
L 113.502317 127.323317 
L 113.536397 126.447936 
L 113.572723 125.572556 
L 113.61075 124.697175 
L 113.649836 123.821794 
L 113.689275 122.946413 
L 113.728331 122.071032 
L 113.766272 121.195651 
L 113.802414 120.320271 
L 113.836144 119.44489 
L 113.866953 118.569509 
L 113.894457 117.694128 
L 113.918409 116.818747 
L 113.938706 115.943367 
L 113.955387 115.067986 
L 113.968626 114.192605 
L 113.978717 113.317224 
L 113.986052 112.441843 
L 113.991099 111.566463 
L 113.994378 110.691082 
L 113.996429 109.815701 
L 113.997792 108.94032 
L 113.998978 108.064939 
L 114.00045 107.189559 
L 114.002604 106.314178 
L 114.005758 105.438797 
L 114.447863 105.438797 
L 114.447863 105.438797 
L 114.451017 106.314178 
L 114.453172 107.189559 
L 114.454644 108.064939 
L 114.45583 108.94032 
L 114.457193 109.815701 
L 114.459244 110.691082 
L 114.462522 111.566463 
L 114.46757 112.441843 
L 114.474904 113.317224 
L 114.484995 114.192605 
L 114.498234 115.067986 
L 114.514916 115.943367 
L 114.535212 116.818747 
L 114.559164 117.694128 
L 114.586668 118.569509 
L 114.617478 119.44489 
L 114.651208 120.320271 
L 114.687349 121.195651 
L 114.725291 122.071032 
L 114.764346 122.946413 
L 114.803785 123.821794 
L 114.842871 124.697175 
L 114.880898 125.572556 
L 114.917224 126.447936 
L 114.951304 127.323317 
L 114.982715 128.198698 
L 115.011175 129.074079 
L 115.036551 129.94946 
L 115.058856 130.82484 
L 115.078243 131.700221 
L 115.094982 132.575602 
L 115.109433 133.450983 
L 115.122017 134.326364 
L 115.133178 135.201744 
L 115.143351 136.077125 
L 115.152931 136.952506 
L 115.162247 137.827887 
L 115.171542 138.703268 
L 115.180966 139.578648 
L 115.190579 140.454029 
L 115.200357 141.32941 
L 115.210214 142.204791 
L 115.220029 143.080172 
L 115.229683 143.955553 
L 115.239089 144.830933 
L 115.248236 145.706314 
L 115.257227 146.581695 
L 115.266306 147.457076 
L 115.275894 148.332457 
L 115.286603 149.207837 
L 115.299253 150.083218 
L 115.31487 150.958599 
L 115.334681 151.83398 
L 115.360096 152.709361 
L 115.392676 153.584741 
L 115.434097 154.460122 
L 115.486107 155.335503 
L 115.550467 156.210884 
L 115.628893 157.086265 
L 115.722995 157.961645 
L 115.834208 158.837026 
L 115.963726 159.712407 
L 116.11244 160.587788 
L 116.280879 161.463169 
L 116.469158 162.33855 
L 116.676935 163.21393 
L 116.903377 164.089311 
L 117.147148 164.964692 
L 117.4064 165.840073 
L 117.678785 166.715454 
L 117.96148 167.590834 
L 118.25123 168.466215 
L 118.5444 169.341596 
L 118.837046 170.216977 
L 119.124987 171.092358 
L 119.403896 171.967738 
L 119.669391 172.843119 
L 119.917133 173.7185 
L 120.142925 174.593881 
L 120.34281 175.469262 
L 120.513167 176.344642 
L 120.6508 177.220023 
L 120.753019 178.095404 
L 120.817713 178.970785 
L 120.843412 179.846166 
L 120.829322 180.721547 
L 120.775365 181.596927 
L 120.682175 182.472308 
L 120.551097 183.347689 
L 120.384153 184.22307 
L 120.183991 185.098451 
L 119.953821 185.973831 
L 119.697325 186.849212 
L 119.418562 187.724593 
L 119.121862 188.599974 
L 118.811709 189.475355 
L 118.492626 190.350735 
L 118.169065 191.226116 
L 117.845299 192.101497 
z
" clip-path="url(#pd5fe7f40ef)" style="fill: #1f77b4; fill-opacity: 0.3"/>
   </g>
   <g id="PolyCollection_3">
    <path d="M 144.405992 195.852915 
L 136.980436 195.852915 
L 136.635972 194.891193 
L 136.29546 193.92947 
L 135.964086 192.967748 
L 135.646984 192.006026 
L 135.349076 191.044304 
L 135.074915 190.082582 
L 134.828557 189.12086 
L 134.613443 188.159137 
L 134.432326 187.197415 
L 134.287215 186.235693 
L 134.179354 185.273971 
L 134.109232 184.312249 
L 134.076613 183.350527 
L 134.08059 182.388804 
L 134.119649 181.427082 
L 134.191748 180.46536 
L 134.294403 179.503638 
L 134.424768 178.541916 
L 134.579727 177.580194 
L 134.75597 176.618472 
L 134.950083 175.656749 
L 135.158617 174.695027 
L 135.378164 173.733305 
L 135.605425 172.771583 
L 135.83727 171.809861 
L 136.070794 170.848139 
L 136.303361 169.886416 
L 136.532645 168.924694 
L 136.756652 167.962972 
L 136.973735 167.00125 
L 137.182596 166.039528 
L 137.382275 165.077806 
L 137.572132 164.116083 
L 137.751811 163.154361 
L 137.921212 162.192639 
L 138.080446 161.230917 
L 138.229798 160.269195 
L 138.369683 159.307473 
L 138.50062 158.34575 
L 138.623195 157.384028 
L 138.738038 156.422306 
L 138.845808 155.460584 
L 138.947178 154.498862 
L 139.042822 153.53714 
L 139.133408 152.575417 
L 139.219592 151.613695 
L 139.302003 150.651973 
L 139.381236 149.690251 
L 139.457838 148.728529 
L 139.532293 147.766807 
L 139.605005 146.805085 
L 139.676289 145.843362 
L 139.746357 144.88164 
L 139.815309 143.919918 
L 139.883136 142.958196 
L 139.949721 141.996474 
L 140.014853 141.034752 
L 140.078239 140.073029 
L 140.13953 139.111307 
L 140.198341 138.149585 
L 140.254277 137.187863 
L 140.306959 136.226141 
L 140.356044 135.264419 
L 140.401239 134.302696 
L 140.44232 133.340974 
L 140.479131 132.379252 
L 140.511589 131.41753 
L 140.539677 130.455808 
L 140.563437 129.494086 
L 140.582957 128.532363 
L 140.598358 127.570641 
L 140.609784 126.608919 
L 140.617384 125.647197 
L 140.621312 124.685475 
L 140.621713 123.723753 
L 140.618729 122.76203 
L 140.612496 121.800308 
L 140.603151 120.838586 
L 140.590842 119.876864 
L 140.575741 118.915142 
L 140.558051 117.95342 
L 140.53802 116.991698 
L 140.515954 116.029975 
L 140.492219 115.068253 
L 140.467248 114.106531 
L 140.441537 113.144809 
L 140.415641 112.183087 
L 140.39016 111.221365 
L 140.365722 110.259642 
L 140.342966 109.29792 
L 140.322513 108.336198 
L 140.304946 107.374476 
L 140.290779 106.412754 
L 140.28044 105.451032 
L 140.274246 104.489309 
L 140.27239 103.527587 
L 140.27493 102.565865 
L 140.281789 101.604143 
L 140.292757 100.642421 
L 141.093671 100.642421 
L 141.093671 100.642421 
L 141.104639 101.604143 
L 141.111498 102.565865 
L 141.114038 103.527587 
L 141.112182 104.489309 
L 141.105987 105.451032 
L 141.095649 106.412754 
L 141.081482 107.374476 
L 141.063915 108.336198 
L 141.043462 109.29792 
L 141.020706 110.259642 
L 140.996268 111.221365 
L 140.970787 112.183087 
L 140.94489 113.144809 
L 140.91918 114.106531 
L 140.894208 115.068253 
L 140.870474 116.029975 
L 140.848408 116.991698 
L 140.828377 117.95342 
L 140.810687 118.915142 
L 140.795585 119.876864 
L 140.783277 120.838586 
L 140.773932 121.800308 
L 140.767698 122.76203 
L 140.764714 123.723753 
L 140.765116 124.685475 
L 140.769044 125.647197 
L 140.776644 126.608919 
L 140.78807 127.570641 
L 140.803471 128.532363 
L 140.822991 129.494086 
L 140.846751 130.455808 
L 140.874839 131.41753 
L 140.907297 132.379252 
L 140.944108 133.340974 
L 140.985189 134.302696 
L 141.030384 135.264419 
L 141.079468 136.226141 
L 141.132151 137.187863 
L 141.188087 138.149585 
L 141.246898 139.111307 
L 141.308189 140.073029 
L 141.371575 141.034752 
L 141.436707 141.996474 
L 141.503292 142.958196 
L 141.571119 143.919918 
L 141.640071 144.88164 
L 141.710138 145.843362 
L 141.781423 146.805085 
L 141.854135 147.766807 
L 141.92859 148.728529 
L 142.005192 149.690251 
L 142.084425 150.651973 
L 142.166836 151.613695 
L 142.25302 152.575417 
L 142.343606 153.53714 
L 142.43925 154.498862 
L 142.54062 155.460584 
L 142.64839 156.422306 
L 142.763233 157.384028 
L 142.885808 158.34575 
L 143.016745 159.307473 
L 143.15663 160.269195 
L 143.305982 161.230917 
L 143.465216 162.192639 
L 143.634617 163.154361 
L 143.814296 164.116083 
L 144.004153 165.077806 
L 144.203832 166.039528 
L 144.412693 167.00125 
L 144.629776 167.962972 
L 144.853783 168.924694 
L 145.083067 169.886416 
L 145.315634 170.848139 
L 145.549157 171.809861 
L 145.781003 172.771583 
L 146.008264 173.733305 
L 146.227811 174.695027 
L 146.436345 175.656749 
L 146.630458 176.618472 
L 146.806701 177.580194 
L 146.961659 178.541916 
L 147.092025 179.503638 
L 147.19468 180.46536 
L 147.266779 181.427082 
L 147.305838 182.388804 
L 147.309815 183.350527 
L 147.277196 184.312249 
L 147.207074 185.273971 
L 147.099213 186.235693 
L 146.954102 187.197415 
L 146.772985 188.159137 
L 146.557871 189.12086 
L 146.311512 190.082582 
L 146.037352 191.044304 
L 145.739443 192.006026 
L 145.422342 192.967748 
L 145.090968 193.92947 
L 144.750456 194.891193 
L 144.405992 195.852915 
z
" clip-path="url(#pd5fe7f40ef)" style="fill: #1f77b4; fill-opacity: 0.3"/>
   </g>
   <g id="PolyCollection_4">
    <path d="M 168.950673 196.496294 
L 165.368561 196.496294 
L 165.145413 195.964166 
L 164.907859 195.432039 
L 164.656337 194.899911 
L 164.39152 194.367783 
L 164.114387 193.835656 
L 163.82631 193.303528 
L 163.529136 192.7714 
L 163.225253 192.239273 
L 162.917636 191.707145 
L 162.609856 191.175017 
L 162.306048 190.64289 
L 162.010836 190.110762 
L 161.729219 189.578635 
L 161.466405 189.046507 
L 161.227631 188.514379 
L 161.017947 187.982252 
L 160.842 187.450124 
L 160.703819 186.917996 
L 160.606621 186.385869 
L 160.552643 185.853741 
L 160.543016 185.321614 
L 160.577691 184.789486 
L 160.655415 184.257358 
L 160.773774 183.725231 
L 160.929291 183.193103 
L 161.11758 182.660975 
L 161.333552 182.128848 
L 161.571654 181.59672 
L 161.826133 181.064592 
L 162.091295 180.532465 
L 162.361765 180.000337 
L 162.632697 179.46821 
L 162.899944 178.936082 
L 163.160168 178.403954 
L 163.410885 177.871827 
L 163.650442 177.339699 
L 163.877941 176.807571 
L 164.093111 176.275444 
L 164.296156 175.743316 
L 164.487585 175.211189 
L 164.668052 174.679061 
L 164.838212 174.146933 
L 164.998614 173.614806 
L 165.149632 173.082678 
L 165.291443 172.55055 
L 165.424043 172.018423 
L 165.547294 171.486295 
L 165.661001 170.954167 
L 165.764992 170.42204 
L 165.859202 169.889912 
L 165.943743 169.357785 
L 166.01895 168.825657 
L 166.085401 168.293529 
L 166.143916 167.761402 
L 166.195514 167.229274 
L 166.241369 166.697146 
L 166.282731 166.165019 
L 166.320863 165.632891 
L 166.356961 165.100764 
L 166.392091 164.568636 
L 166.427149 164.036508 
L 166.462818 163.504381 
L 166.49956 162.972253 
L 166.537615 162.440125 
L 166.57702 161.907998 
L 166.617627 161.37587 
L 166.659143 160.843742 
L 166.701158 160.311615 
L 166.743188 159.779487 
L 166.784702 159.24736 
L 166.825161 158.715232 
L 166.864035 158.183104 
L 166.900834 157.650977 
L 166.935118 157.118849 
L 166.966513 156.586721 
L 166.994713 156.054594 
L 167.019485 155.522466 
L 167.040667 154.990339 
L 167.058158 154.458211 
L 167.071917 153.926083 
L 167.081952 153.393956 
L 167.088314 152.861828 
L 167.091097 152.3297 
L 167.090434 151.797573 
L 167.0865 151.265445 
L 167.079521 150.733317 
L 167.069779 150.20119 
L 167.057624 149.669062 
L 167.043476 149.136935 
L 167.027831 148.604807 
L 167.011256 148.072679 
L 166.994379 147.540552 
L 166.977868 147.008424 
L 166.962408 146.476296 
L 166.948666 145.944169 
L 166.937257 145.412041 
L 166.928708 144.879914 
L 166.923422 144.347786 
L 166.921658 143.815658 
L 167.397576 143.815658 
L 167.397576 143.815658 
L 167.395812 144.347786 
L 167.390526 144.879914 
L 167.381977 145.412041 
L 167.370568 145.944169 
L 167.356827 146.476296 
L 167.341366 147.008424 
L 167.324855 147.540552 
L 167.307978 148.072679 
L 167.291403 148.604807 
L 167.275758 149.136935 
L 167.26161 149.669062 
L 167.249455 150.20119 
L 167.239714 150.733317 
L 167.232734 151.265445 
L 167.2288 151.797573 
L 167.228137 152.3297 
L 167.23092 152.861828 
L 167.237282 153.393956 
L 167.247317 153.926083 
L 167.261076 154.458211 
L 167.278567 154.990339 
L 167.299749 155.522466 
L 167.324522 156.054594 
L 167.352722 156.586721 
L 167.384116 157.118849 
L 167.4184 157.650977 
L 167.455199 158.183104 
L 167.494073 158.715232 
L 167.534532 159.24736 
L 167.576047 159.779487 
L 167.618076 160.311615 
L 167.660092 160.843742 
L 167.701607 161.37587 
L 167.742214 161.907998 
L 167.781619 162.440125 
L 167.819675 162.972253 
L 167.856416 163.504381 
L 167.892085 164.036508 
L 167.927143 164.568636 
L 167.962274 165.100764 
L 167.998371 165.632891 
L 168.036503 166.165019 
L 168.077866 166.697146 
L 168.12372 167.229274 
L 168.175318 167.761402 
L 168.233833 168.293529 
L 168.300284 168.825657 
L 168.375491 169.357785 
L 168.460032 169.889912 
L 168.554242 170.42204 
L 168.658233 170.954167 
L 168.77194 171.486295 
L 168.895191 172.018423 
L 169.027791 172.55055 
L 169.169602 173.082678 
L 169.32062 173.614806 
L 169.481022 174.146933 
L 169.651182 174.679061 
L 169.831649 175.211189 
L 170.023078 175.743316 
L 170.226123 176.275444 
L 170.441293 176.807571 
L 170.668792 177.339699 
L 170.908349 177.871827 
L 171.159066 178.403954 
L 171.419291 178.936082 
L 171.686537 179.46821 
L 171.957469 180.000337 
L 172.227939 180.532465 
L 172.493102 181.064592 
L 172.74758 181.59672 
L 172.985682 182.128848 
L 173.201654 182.660975 
L 173.389943 183.193103 
L 173.54546 183.725231 
L 173.663819 184.257358 
L 173.741543 184.789486 
L 173.776218 185.321614 
L 173.766591 185.853741 
L 173.712613 186.385869 
L 173.615415 186.917996 
L 173.477235 187.450124 
L 173.301287 187.982252 
L 173.091603 188.514379 
L 172.852829 189.046507 
L 172.590015 189.578635 
L 172.308398 190.110762 
L 172.013186 190.64289 
L 171.709378 191.175017 
L 171.401598 191.707145 
L 171.093981 192.239273 
L 170.790099 192.7714 
L 170.492924 193.303528 
L 170.204847 193.835656 
L 169.927714 194.367783 
L 169.662897 194.899911 
L 169.411376 195.432039 
L 169.173821 195.964166 
L 168.950673 196.496294 
z
" clip-path="url(#pd5fe7f40ef)" style="fill: #1f77b4; fill-opacity: 0.3"/>
   </g>
   <g id="PolyCollection_5">
    <path d="M 197.160799 198.751165 
L 190.091241 198.751165 
L 189.732802 198.227804 
L 189.377899 197.704442 
L 189.032558 197.18108 
L 188.702629 196.657718 
L 188.393529 196.134357 
L 188.110012 195.610995 
L 187.855966 195.087633 
L 187.634272 194.564271 
L 187.44672 194.040909 
L 187.293992 193.517548 
L 187.175708 192.994186 
L 187.090534 192.470824 
L 187.036331 191.947462 
L 187.010348 191.424101 
L 187.009419 190.900739 
L 187.030184 190.377377 
L 187.069281 189.854015 
L 187.123527 189.330653 
L 187.190071 188.807292 
L 187.266504 188.28393 
L 187.350935 187.760568 
L 187.442032 187.237206 
L 187.539018 186.713845 
L 187.641644 186.190483 
L 187.75012 185.667121 
L 187.86504 185.143759 
L 187.987273 184.620397 
L 188.117852 184.097036 
L 188.257856 183.573674 
L 188.408294 183.050312 
L 188.569996 182.52695 
L 188.743516 182.003589 
L 188.929062 181.480227 
L 189.126435 180.956865 
L 189.335007 180.433503 
L 189.553708 179.910141 
L 189.781056 179.38678 
L 190.015194 178.863418 
L 190.253951 178.340056 
L 190.494921 177.816694 
L 190.735554 177.293333 
L 190.973242 176.769971 
L 191.205423 176.246609 
L 191.429668 175.723247 
L 191.643769 175.199885 
L 191.845817 174.676524 
L 192.034261 174.153162 
L 192.207952 173.6298 
L 192.366172 173.106438 
L 192.508634 172.583077 
L 192.635471 172.059715 
L 192.747196 171.536353 
L 192.844651 171.012991 
L 192.928938 170.489629 
L 193.00134 169.966268 
L 193.063239 169.442906 
L 193.116037 168.919544 
L 193.161076 168.396182 
L 193.199583 167.872821 
L 193.232617 167.349459 
L 193.261044 166.826097 
L 193.285528 166.302735 
L 193.306536 165.779373 
L 193.324369 165.256012 
L 193.339198 164.73265 
L 193.351104 164.209288 
L 193.360136 163.685926 
L 193.366347 163.162565 
L 193.369842 162.639203 
L 193.370801 162.115841 
L 193.369499 161.592479 
L 193.366304 161.069117 
L 193.361672 160.545756 
L 193.356119 160.022394 
L 193.350189 159.499032 
L 193.344418 158.97567 
L 193.339291 158.452309 
L 193.335208 157.928947 
L 193.332451 157.405585 
L 193.331164 156.882223 
L 193.331348 156.358861 
L 193.332861 155.8355 
L 193.335437 155.312138 
L 193.338718 154.788776 
L 193.342292 154.265414 
L 193.345732 153.742053 
L 193.348646 153.218691 
L 193.350713 152.695329 
L 193.351724 152.171967 
L 193.351599 151.648605 
L 193.350402 151.125244 
L 193.348339 150.601882 
L 193.345743 150.07852 
L 193.343045 149.555158 
L 193.34074 149.031796 
L 193.339346 148.508435 
L 193.33936 147.985073 
L 193.341218 147.461711 
L 193.345259 146.938349 
L 193.906781 146.938349 
L 193.906781 146.938349 
L 193.910823 147.461711 
L 193.912681 147.985073 
L 193.912694 148.508435 
L 193.9113 149.031796 
L 193.908996 149.555158 
L 193.906298 150.07852 
L 193.903701 150.601882 
L 193.901639 151.125244 
L 193.900442 151.648605 
L 193.900316 152.171967 
L 193.901327 152.695329 
L 193.903395 153.218691 
L 193.906308 153.742053 
L 193.909748 154.265414 
L 193.913322 154.788776 
L 193.916604 155.312138 
L 193.91918 155.8355 
L 193.920692 156.358861 
L 193.920876 156.882223 
L 193.91959 157.405585 
L 193.916833 157.928947 
L 193.912749 158.452309 
L 193.907622 158.97567 
L 193.901851 159.499032 
L 193.895921 160.022394 
L 193.890368 160.545756 
L 193.885737 161.069117 
L 193.882542 161.592479 
L 193.881239 162.115841 
L 193.882198 162.639203 
L 193.885693 163.162565 
L 193.891905 163.685926 
L 193.900936 164.209288 
L 193.912843 164.73265 
L 193.927671 165.256012 
L 193.945505 165.779373 
L 193.966513 166.302735 
L 193.990996 166.826097 
L 194.019424 167.349459 
L 194.052458 167.872821 
L 194.090965 168.396182 
L 194.136004 168.919544 
L 194.188801 169.442906 
L 194.2507 169.966268 
L 194.323102 170.489629 
L 194.407389 171.012991 
L 194.504844 171.536353 
L 194.61657 172.059715 
L 194.743406 172.583077 
L 194.885868 173.106438 
L 195.044088 173.6298 
L 195.217779 174.153162 
L 195.406223 174.676524 
L 195.608272 175.199885 
L 195.822373 175.723247 
L 196.046617 176.246609 
L 196.278798 176.769971 
L 196.516486 177.293333 
L 196.757119 177.816694 
L 196.99809 178.340056 
L 197.236847 178.863418 
L 197.470984 179.38678 
L 197.698332 179.910141 
L 197.917034 180.433503 
L 198.125605 180.956865 
L 198.322979 181.480227 
L 198.508524 182.003589 
L 198.682045 182.52695 
L 198.843746 183.050312 
L 198.994185 183.573674 
L 199.134189 184.097036 
L 199.264768 184.620397 
L 199.387001 185.143759 
L 199.501921 185.667121 
L 199.610397 186.190483 
L 199.713022 186.713845 
L 199.810009 187.237206 
L 199.901106 187.760568 
L 199.985537 188.28393 
L 200.06197 188.807292 
L 200.128513 189.330653 
L 200.18276 189.854015 
L 200.221856 190.377377 
L 200.242621 190.900739 
L 200.241693 191.424101 
L 200.215709 191.947462 
L 200.161507 192.470824 
L 200.076333 192.994186 
L 199.958049 193.517548 
L 199.805321 194.040909 
L 199.617769 194.564271 
L 199.396074 195.087633 
L 199.142028 195.610995 
L 198.858511 196.134357 
L 198.549412 196.657718 
L 198.219482 197.18108 
L 197.874141 197.704442 
L 197.519239 198.227804 
L 197.160799 198.751165 
z
" clip-path="url(#pd5fe7f40ef)" style="fill: #1f77b4; fill-opacity: 0.3"/>
   </g>
   <g id="PolyCollection_6">
    <path d="M 222.908913 197.019981 
L 217.275934 197.019981 
L 217.079111 196.77814 
L 216.878833 196.536298 
L 216.675887 196.294456 
L 216.471123 196.052615 
L 216.265451 195.810773 
L 216.059844 195.568931 
L 215.855334 195.32709 
L 215.653009 195.085248 
L 215.454002 194.843406 
L 215.25948 194.601565 
L 215.070628 194.359723 
L 214.888627 194.117882 
L 214.71463 193.87604 
L 214.549738 193.634198 
L 214.394967 193.392357 
L 214.251224 193.150515 
L 214.119274 192.908673 
L 213.999716 192.666832 
L 213.892963 192.42499 
L 213.799225 192.183148 
L 213.718498 191.941307 
L 213.650563 191.699465 
L 213.594994 191.457623 
L 213.551172 191.215782 
L 213.518312 190.97394 
L 213.495491 190.732099 
L 213.481687 190.490257 
L 213.475823 190.248415 
L 213.476812 190.006574 
L 213.483604 189.764732 
L 213.495233 189.52289 
L 213.510852 189.281049 
L 213.529776 189.039207 
L 213.551504 188.797365 
L 213.575741 188.555524 
L 213.602403 188.313682 
L 213.631615 188.071841 
L 213.663699 187.829999 
L 213.699147 187.588157 
L 213.738595 187.346316 
L 213.782777 187.104474 
L 213.832487 186.862632 
L 213.888528 186.620791 
L 213.951665 186.378949 
L 214.022586 186.137107 
L 214.101853 185.895266 
L 214.189873 185.653424 
L 214.286872 185.411583 
L 214.392874 185.169741 
L 214.507696 184.927899 
L 214.630948 184.686058 
L 214.762044 184.444216 
L 214.900219 184.202374 
L 215.044558 183.960533 
L 215.194024 183.718691 
L 215.347491 183.476849 
L 215.503781 183.235008 
L 215.661701 182.993166 
L 215.82007 182.751325 
L 215.977758 182.509483 
L 216.1337 182.267641 
L 216.286926 182.0258 
L 216.436568 181.783958 
L 216.581872 181.542116 
L 216.722197 181.300275 
L 216.857015 181.058433 
L 216.985908 180.816591 
L 217.10855 180.57475 
L 217.224705 180.332908 
L 217.334209 180.091067 
L 217.436963 179.849225 
L 217.53292 179.607383 
L 217.62208 179.365542 
L 217.70448 179.1237 
L 217.780199 178.881858 
L 217.849349 178.640017 
L 217.912089 178.398175 
L 217.968619 178.156333 
L 218.019193 177.914492 
L 218.064124 177.67265 
L 218.103788 177.430809 
L 218.138633 177.188967 
L 218.169176 176.947125 
L 218.196006 176.705284 
L 218.219781 176.463442 
L 218.241217 176.2216 
L 218.26108 175.979759 
L 218.280167 175.737917 
L 218.299293 175.496075 
L 218.319267 175.254234 
L 218.340873 175.012392 
L 218.364843 174.77055 
L 218.39184 174.528709 
L 218.422433 174.286867 
L 218.457082 174.045026 
L 218.496123 173.803184 
L 218.539759 173.561342 
L 218.588048 173.319501 
L 218.640911 173.077659 
L 221.543936 173.077659 
L 221.543936 173.077659 
L 221.596799 173.319501 
L 221.645088 173.561342 
L 221.688723 173.803184 
L 221.727765 174.045026 
L 221.762414 174.286867 
L 221.793007 174.528709 
L 221.820004 174.77055 
L 221.843974 175.012392 
L 221.865579 175.254234 
L 221.885554 175.496075 
L 221.90468 175.737917 
L 221.923767 175.979759 
L 221.94363 176.2216 
L 221.965066 176.463442 
L 221.988841 176.705284 
L 222.015671 176.947125 
L 222.046214 177.188967 
L 222.081059 177.430809 
L 222.120723 177.67265 
L 222.165654 177.914492 
L 222.216228 178.156333 
L 222.272758 178.398175 
L 222.335497 178.640017 
L 222.404648 178.881858 
L 222.480366 179.1237 
L 222.562767 179.365542 
L 222.651926 179.607383 
L 222.747884 179.849225 
L 222.850638 180.091067 
L 222.960142 180.332908 
L 223.076297 180.57475 
L 223.198939 180.816591 
L 223.327831 181.058433 
L 223.46265 181.300275 
L 223.602975 181.542116 
L 223.748278 181.783958 
L 223.897921 182.0258 
L 224.051147 182.267641 
L 224.207089 182.509483 
L 224.364776 182.751325 
L 224.523146 182.993166 
L 224.681066 183.235008 
L 224.837356 183.476849 
L 224.990823 183.718691 
L 225.140289 183.960533 
L 225.284628 184.202374 
L 225.422803 184.444216 
L 225.553899 184.686058 
L 225.677151 184.927899 
L 225.791973 185.169741 
L 225.897975 185.411583 
L 225.994974 185.653424 
L 226.082994 185.895266 
L 226.162261 186.137107 
L 226.233181 186.378949 
L 226.296319 186.620791 
L 226.35236 186.862632 
L 226.40207 187.104474 
L 226.446252 187.346316 
L 226.4857 187.588157 
L 226.521148 187.829999 
L 226.553232 188.071841 
L 226.582444 188.313682 
L 226.609105 188.555524 
L 226.633343 188.797365 
L 226.655071 189.039207 
L 226.673995 189.281049 
L 226.689614 189.52289 
L 226.701242 189.764732 
L 226.708035 190.006574 
L 226.709024 190.248415 
L 226.70316 190.490257 
L 226.689356 190.732099 
L 226.666535 190.97394 
L 226.633675 191.215782 
L 226.589853 191.457623 
L 226.534284 191.699465 
L 226.466349 191.941307 
L 226.385621 192.183148 
L 226.291883 192.42499 
L 226.185131 192.666832 
L 226.065573 192.908673 
L 225.933623 193.150515 
L 225.789879 193.392357 
L 225.635109 193.634198 
L 225.470217 193.87604 
L 225.29622 194.117882 
L 225.114219 194.359723 
L 224.925367 194.601565 
L 224.730845 194.843406 
L 224.531838 195.085248 
L 224.329513 195.32709 
L 224.125003 195.568931 
L 223.919396 195.810773 
L 223.713724 196.052615 
L 223.50896 196.294456 
L 223.306014 196.536298 
L 223.105736 196.77814 
L 222.908913 197.019981 
z
" clip-path="url(#pd5fe7f40ef)" style="fill: #1f77b4; fill-opacity: 0.3"/>
   </g>
   <g id="PolyCollection_7">
    <path d="M 248.719894 199.265266 
L 244.397759 199.265266 
L 244.152112 198.901049 
L 243.894086 198.536832 
L 243.625257 198.172615 
L 243.347498 197.808398 
L 243.062969 197.444182 
L 242.7741 197.079965 
L 242.48356 196.715748 
L 242.194234 196.351531 
L 241.90918 195.987315 
L 241.631592 195.623098 
L 241.364745 195.258881 
L 241.111943 194.894664 
L 240.876458 194.530447 
L 240.661463 194.166231 
L 240.46996 193.802014 
L 240.304706 193.437797 
L 240.168138 193.07358 
L 240.062297 192.709363 
L 239.98876 192.345147 
L 239.948579 191.98093 
L 239.942226 191.616713 
L 239.969565 191.252496 
L 240.02983 190.888279 
L 240.121634 190.524063 
L 240.242991 190.159846 
L 240.391369 189.795629 
L 240.563758 189.431412 
L 240.756762 189.067196 
L 240.966702 188.702979 
L 241.189729 188.338762 
L 241.421946 187.974545 
L 241.659525 187.610328 
L 241.898815 187.246112 
L 242.136444 186.881895 
L 242.369395 186.517678 
L 242.595068 186.153461 
L 242.811318 185.789244 
L 243.01647 185.425028 
L 243.20931 185.060811 
L 243.389063 184.696594 
L 243.555351 184.332377 
L 243.708142 183.968161 
L 243.847693 183.603944 
L 243.974489 183.239727 
L 244.089186 182.87551 
L 244.192563 182.511293 
L 244.285475 182.147077 
L 244.36882 181.78286 
L 244.443514 181.418643 
L 244.510476 181.054426 
L 244.57062 180.690209 
L 244.624845 180.325993 
L 244.674042 179.961776 
L 244.719083 179.597559 
L 244.760827 179.233342 
L 244.800106 178.869125 
L 244.837717 178.504909 
L 244.87441 178.140692 
L 244.910867 177.776475 
L 244.947687 177.412258 
L 244.985363 177.048042 
L 245.024268 176.683825 
L 245.064644 176.319608 
L 245.106593 175.955391 
L 245.150079 175.591174 
L 245.19494 175.226958 
L 245.240901 174.862741 
L 245.287599 174.498524 
L 245.334612 174.134307 
L 245.381489 173.77009 
L 245.427782 173.405874 
L 245.473078 173.041657 
L 245.517021 172.67744 
L 245.559334 172.313223 
L 245.599829 171.949007 
L 245.63841 171.58479 
L 245.67507 171.220573 
L 245.709878 170.856356 
L 245.742964 170.492139 
L 245.774499 170.127923 
L 245.80467 169.763706 
L 245.833668 169.399489 
L 245.861663 169.035272 
L 245.888796 168.671055 
L 245.915171 168.306839 
L 245.940855 167.942622 
L 245.965877 167.578405 
L 245.990242 167.214188 
L 246.013935 166.849971 
L 246.036939 166.485755 
L 246.059243 166.121538 
L 246.080851 165.757321 
L 246.101793 165.393104 
L 246.122122 165.028888 
L 246.14192 164.664671 
L 246.161287 164.300454 
L 246.18034 163.936237 
L 246.199196 163.57202 
L 246.217966 163.207804 
L 246.899687 163.207804 
L 246.899687 163.207804 
L 246.918457 163.57202 
L 246.937313 163.936237 
L 246.956366 164.300454 
L 246.975733 164.664671 
L 246.995531 165.028888 
L 247.015861 165.393104 
L 247.036802 165.757321 
L 247.05841 166.121538 
L 247.080714 166.485755 
L 247.103718 166.849971 
L 247.127411 167.214188 
L 247.151776 167.578405 
L 247.176798 167.942622 
L 247.202482 168.306839 
L 247.228857 168.671055 
L 247.255991 169.035272 
L 247.283985 169.399489 
L 247.312983 169.763706 
L 247.343154 170.127923 
L 247.374689 170.492139 
L 247.407775 170.856356 
L 247.442583 171.220573 
L 247.479243 171.58479 
L 247.517824 171.949007 
L 247.558319 172.313223 
L 247.600632 172.67744 
L 247.644576 173.041657 
L 247.689871 173.405874 
L 247.736165 173.77009 
L 247.783041 174.134307 
L 247.830054 174.498524 
L 247.876752 174.862741 
L 247.922713 175.226958 
L 247.967574 175.591174 
L 248.011061 175.955391 
L 248.053009 176.319608 
L 248.093385 176.683825 
L 248.13229 177.048042 
L 248.169966 177.412258 
L 248.206786 177.776475 
L 248.243243 178.140692 
L 248.279936 178.504909 
L 248.317548 178.869125 
L 248.356826 179.233342 
L 248.39857 179.597559 
L 248.443612 179.961776 
L 248.492808 180.325993 
L 248.547034 180.690209 
L 248.607177 181.054426 
L 248.674139 181.418643 
L 248.748834 181.78286 
L 248.832178 182.147077 
L 248.92509 182.511293 
L 249.028467 182.87551 
L 249.143165 183.239727 
L 249.26996 183.603944 
L 249.409511 183.968161 
L 249.562302 184.332377 
L 249.72859 184.696594 
L 249.908343 185.060811 
L 250.101183 185.425028 
L 250.306335 185.789244 
L 250.522585 186.153461 
L 250.748258 186.517678 
L 250.981209 186.881895 
L 251.218838 187.246112 
L 251.458128 187.610328 
L 251.695707 187.974545 
L 251.927924 188.338762 
L 252.150951 188.702979 
L 252.360891 189.067196 
L 252.553895 189.431412 
L 252.726285 189.795629 
L 252.874662 190.159846 
L 252.996019 190.524063 
L 253.087823 190.888279 
L 253.148089 191.252496 
L 253.175427 191.616713 
L 253.169075 191.98093 
L 253.128893 192.345147 
L 253.055356 192.709363 
L 252.949515 193.07358 
L 252.812947 193.437797 
L 252.647693 193.802014 
L 252.45619 194.166231 
L 252.241195 194.530447 
L 252.00571 194.894664 
L 251.752908 195.258881 
L 251.486061 195.623098 
L 251.208473 195.987315 
L 250.92342 196.351531 
L 250.634093 196.715748 
L 250.343554 197.079965 
L 250.054684 197.444182 
L 249.770155 197.808398 
L 249.492396 198.172615 
L 249.223567 198.536832 
L 248.965541 198.901049 
L 248.719894 199.265266 
z
" clip-path="url(#pd5fe7f40ef)" style="fill: #1f77b4; fill-opacity: 0.3"/>
   </g>
   <g id="PolyCollection_8">
    <path d="M 276.464881 198.540809 
L 269.585578 198.540809 
L 269.304493 198.276006 
L 269.02874 198.011203 
L 268.761673 197.746399 
L 268.506406 197.481596 
L 268.265708 197.216793 
L 268.041907 196.951989 
L 267.836809 196.687186 
L 267.65165 196.422383 
L 267.487059 196.15758 
L 267.343058 195.892776 
L 267.219083 195.627973 
L 267.114029 195.36317 
L 267.026317 195.098367 
L 266.953982 194.833563 
L 266.894777 194.56876 
L 266.846282 194.303957 
L 266.806026 194.039153 
L 266.771608 193.77435 
L 266.740811 193.509547 
L 266.711708 193.244744 
L 266.682759 192.97994 
L 266.65288 192.715137 
L 266.621493 192.450334 
L 266.588555 192.185531 
L 266.554548 191.920727 
L 266.520452 191.655924 
L 266.487688 191.391121 
L 266.458031 191.126317 
L 266.433514 190.861514 
L 266.416314 190.596711 
L 266.408629 190.331908 
L 266.412566 190.067104 
L 266.430025 189.802301 
L 266.462608 189.537498 
L 266.511543 189.272695 
L 266.577634 189.007891 
L 266.661236 188.743088 
L 266.762257 188.478285 
L 266.880181 188.213481 
L 267.014114 187.948678 
L 267.162844 187.683875 
L 267.324906 187.419072 
L 267.498658 187.154268 
L 267.682346 186.889465 
L 267.87417 186.624662 
L 268.072338 186.359859 
L 268.275101 186.095055 
L 268.480794 185.830252 
L 268.687843 185.565449 
L 268.894786 185.300645 
L 269.100276 185.035842 
L 269.30308 184.771039 
L 269.502087 184.506236 
L 269.696309 184.241432 
L 269.88489 183.976629 
L 270.067109 183.711826 
L 270.242398 183.447023 
L 270.410343 183.182219 
L 270.570692 182.917416 
L 270.72336 182.652613 
L 270.868418 182.387809 
L 271.006082 182.123006 
L 271.13669 181.858203 
L 271.260678 181.5934 
L 271.378541 181.328596 
L 271.4908 181.063793 
L 271.597965 180.79899 
L 271.700498 180.534187 
L 271.798784 180.269383 
L 271.893106 180.00458 
L 271.983636 179.739777 
L 272.070421 179.474973 
L 272.153393 179.21017 
L 272.232378 178.945367 
L 272.307113 178.680564 
L 272.377272 178.41576 
L 272.442493 178.150957 
L 272.502404 177.886154 
L 272.556657 177.62135 
L 272.604947 177.356547 
L 272.647044 177.091744 
L 272.682809 176.826941 
L 272.71221 176.562137 
L 272.735336 176.297334 
L 272.752399 176.032531 
L 272.763739 175.767728 
L 272.769818 175.502924 
L 272.771212 175.238121 
L 272.768598 174.973318 
L 272.762733 174.708514 
L 272.754437 174.443711 
L 272.744562 174.178908 
L 272.733968 173.914105 
L 272.723493 173.649301 
L 272.713922 173.384498 
L 272.705961 173.119695 
L 272.700212 172.854892 
L 272.697152 172.590088 
L 272.697118 172.325285 
L 273.353342 172.325285 
L 273.353342 172.325285 
L 273.353308 172.590088 
L 273.350247 172.854892 
L 273.344498 173.119695 
L 273.336538 173.384498 
L 273.326967 173.649301 
L 273.316491 173.914105 
L 273.305898 174.178908 
L 273.296023 174.443711 
L 273.287726 174.708514 
L 273.281862 174.973318 
L 273.279247 175.238121 
L 273.280641 175.502924 
L 273.286721 175.767728 
L 273.298061 176.032531 
L 273.315124 176.297334 
L 273.338249 176.562137 
L 273.367651 176.826941 
L 273.403415 177.091744 
L 273.445513 177.356547 
L 273.493803 177.62135 
L 273.548055 177.886154 
L 273.607967 178.150957 
L 273.673187 178.41576 
L 273.743347 178.680564 
L 273.818082 178.945367 
L 273.897066 179.21017 
L 273.980039 179.474973 
L 274.066824 179.739777 
L 274.157353 180.00458 
L 274.251676 180.269383 
L 274.349961 180.534187 
L 274.452494 180.79899 
L 274.559659 181.063793 
L 274.671919 181.328596 
L 274.789782 181.5934 
L 274.913769 181.858203 
L 275.044378 182.123006 
L 275.182041 182.387809 
L 275.327099 182.652613 
L 275.479767 182.917416 
L 275.640117 183.182219 
L 275.808061 183.447023 
L 275.98335 183.711826 
L 276.16557 183.976629 
L 276.35415 184.241432 
L 276.548372 184.506236 
L 276.747379 184.771039 
L 276.950184 185.035842 
L 277.155673 185.300645 
L 277.362617 185.565449 
L 277.569666 185.830252 
L 277.775358 186.095055 
L 277.978122 186.359859 
L 278.176289 186.624662 
L 278.368114 186.889465 
L 278.551802 187.154268 
L 278.725553 187.419072 
L 278.887615 187.683875 
L 279.036345 187.948678 
L 279.170279 188.213481 
L 279.288203 188.478285 
L 279.389224 188.743088 
L 279.472826 189.007891 
L 279.538917 189.272695 
L 279.587852 189.537498 
L 279.620435 189.802301 
L 279.637894 190.067104 
L 279.641831 190.331908 
L 279.634146 190.596711 
L 279.616945 190.861514 
L 279.592428 191.126317 
L 279.562771 191.391121 
L 279.530007 191.655924 
L 279.495912 191.920727 
L 279.461905 192.185531 
L 279.428966 192.450334 
L 279.39758 192.715137 
L 279.3677 192.97994 
L 279.338751 193.244744 
L 279.309649 193.509547 
L 279.278851 193.77435 
L 279.244433 194.039153 
L 279.204178 194.303957 
L 279.155683 194.56876 
L 279.096477 194.833563 
L 279.024143 195.098367 
L 278.93643 195.36317 
L 278.831376 195.627973 
L 278.707401 195.892776 
L 278.563401 196.15758 
L 278.39881 196.422383 
L 278.21365 196.687186 
L 278.008553 196.951989 
L 277.784751 197.216793 
L 277.544053 197.481596 
L 277.288786 197.746399 
L 277.021719 198.011203 
L 276.745967 198.276006 
L 276.464881 198.540809 
z
" clip-path="url(#pd5fe7f40ef)" style="fill: #1f77b4; fill-opacity: 0.3"/>
   </g>
   <g id="PolyCollection_9">
    <path d="M 301.665414 199.274361 
L 297.317852 199.274361 
L 297.012916 198.937599 
L 296.691082 198.600837 
L 296.355862 198.264074 
L 296.011394 197.927312 
L 295.662345 197.59055 
L 295.313785 197.253788 
L 294.971036 196.917026 
L 294.639511 196.580264 
L 294.324541 196.243502 
L 294.031198 195.90674 
L 293.764135 195.569978 
L 293.527429 195.233216 
L 293.324461 194.896454 
L 293.157808 194.559692 
L 293.029181 194.22293 
L 292.939386 193.886168 
L 292.888324 193.549406 
L 292.875032 193.212644 
L 292.897744 192.875882 
L 292.953986 192.53912 
L 293.040697 192.202358 
L 293.154357 191.865596 
L 293.291142 191.528834 
L 293.447067 191.192072 
L 293.618143 190.85531 
L 293.800522 190.518548 
L 293.990631 190.181786 
L 294.185291 189.845024 
L 294.38181 189.508262 
L 294.578053 189.1715 
L 294.772478 188.834738 
L 294.964134 188.497976 
L 295.152624 188.161214 
L 295.338031 187.824452 
L 295.520813 187.48769 
L 295.701673 187.150928 
L 295.881419 186.814166 
L 296.060819 186.477404 
L 296.240474 186.140642 
L 296.42071 185.80388 
L 296.601509 185.467118 
L 296.782476 185.130355 
L 296.962847 184.793593 
L 297.141539 184.456831 
L 297.317221 184.120069 
L 297.488415 183.783307 
L 297.653602 183.446545 
L 297.811325 183.109783 
L 297.960286 182.773021 
L 298.099421 182.436259 
L 298.227958 182.099497 
L 298.345444 181.762735 
L 298.451754 181.425973 
L 298.547083 181.089211 
L 298.631913 180.752449 
L 298.706972 180.415687 
L 298.773183 180.078925 
L 298.831604 179.742163 
L 298.883372 179.405401 
L 298.929643 179.068639 
L 298.97153 178.731877 
L 299.010061 178.395115 
L 299.046131 178.058353 
L 299.08047 177.721591 
L 299.113625 177.384829 
L 299.145955 177.048067 
L 299.177632 176.711305 
L 299.208666 176.374543 
L 299.238927 176.037781 
L 299.268184 175.701019 
L 299.296141 175.364257 
L 299.322474 175.027495 
L 299.346863 174.690733 
L 299.369022 174.353971 
L 299.388711 174.017209 
L 299.405748 173.680447 
L 299.420011 173.343685 
L 299.431427 173.006923 
L 299.439967 172.670161 
L 299.44563 172.333398 
L 299.448434 171.996636 
L 299.448412 171.659874 
L 299.445602 171.323112 
L 299.44006 170.98635 
L 299.431865 170.649588 
L 299.421134 170.312826 
L 299.408041 169.976064 
L 299.392834 169.639302 
L 299.375848 169.30254 
L 299.357521 168.965778 
L 299.338386 168.629016 
L 299.319067 168.292254 
L 299.300256 167.955492 
L 299.282683 167.61873 
L 299.267077 167.281968 
L 299.254121 166.945206 
L 299.244404 166.608444 
L 299.238383 166.271682 
L 299.236347 165.93492 
L 299.746919 165.93492 
L 299.746919 165.93492 
L 299.744883 166.271682 
L 299.738862 166.608444 
L 299.729145 166.945206 
L 299.716189 167.281968 
L 299.700583 167.61873 
L 299.68301 167.955492 
L 299.664199 168.292254 
L 299.64488 168.629016 
L 299.625745 168.965778 
L 299.607417 169.30254 
L 299.590432 169.639302 
L 299.575225 169.976064 
L 299.562132 170.312826 
L 299.551401 170.649588 
L 299.543206 170.98635 
L 299.537664 171.323112 
L 299.534854 171.659874 
L 299.534831 171.996636 
L 299.537636 172.333398 
L 299.543299 172.670161 
L 299.551838 173.006923 
L 299.563255 173.343685 
L 299.577517 173.680447 
L 299.594555 174.017209 
L 299.614244 174.353971 
L 299.636403 174.690733 
L 299.660792 175.027495 
L 299.687125 175.364257 
L 299.715082 175.701019 
L 299.744339 176.037781 
L 299.7746 176.374543 
L 299.805634 176.711305 
L 299.837311 177.048067 
L 299.869641 177.384829 
L 299.902796 177.721591 
L 299.937135 178.058353 
L 299.973204 178.395115 
L 300.011736 178.731877 
L 300.053623 179.068639 
L 300.099893 179.405401 
L 300.151662 179.742163 
L 300.210083 180.078925 
L 300.276293 180.415687 
L 300.351353 180.752449 
L 300.436183 181.089211 
L 300.531512 181.425973 
L 300.637822 181.762735 
L 300.755307 182.099497 
L 300.883844 182.436259 
L 301.02298 182.773021 
L 301.171941 183.109783 
L 301.329664 183.446545 
L 301.494851 183.783307 
L 301.666045 184.120069 
L 301.841727 184.456831 
L 302.020418 184.793593 
L 302.20079 185.130355 
L 302.381757 185.467118 
L 302.562556 185.80388 
L 302.742792 186.140642 
L 302.922447 186.477404 
L 303.101847 186.814166 
L 303.281593 187.150928 
L 303.462453 187.48769 
L 303.645235 187.824452 
L 303.830642 188.161214 
L 304.019132 188.497976 
L 304.210788 188.834738 
L 304.405213 189.1715 
L 304.601456 189.508262 
L 304.797975 189.845024 
L 304.992634 190.181786 
L 305.182744 190.518548 
L 305.365123 190.85531 
L 305.536199 191.192072 
L 305.692124 191.528834 
L 305.828908 191.865596 
L 305.942569 192.202358 
L 306.02928 192.53912 
L 306.085522 192.875882 
L 306.108234 193.212644 
L 306.094942 193.549406 
L 306.04388 193.886168 
L 305.954084 194.22293 
L 305.825457 194.559692 
L 305.658805 194.896454 
L 305.455837 195.233216 
L 305.219131 195.569978 
L 304.952067 195.90674 
L 304.658725 196.243502 
L 304.343754 196.580264 
L 304.01223 196.917026 
L 303.669481 197.253788 
L 303.32092 197.59055 
L 302.971872 197.927312 
L 302.627404 198.264074 
L 302.292184 198.600837 
L 301.970349 198.937599 
L 301.665414 199.274361 
z
" clip-path="url(#pd5fe7f40ef)" style="fill: #1f77b4; fill-opacity: 0.3"/>
   </g>
   <g id="PolyCollection_10">
    <path d="M 328.462999 199.385936 
L 323.453073 199.385936 
L 323.24374 199.161025 
L 323.032941 198.936115 
L 322.822287 198.711204 
L 322.613338 198.486294 
L 322.407558 198.261384 
L 322.206266 198.036473 
L 322.010603 197.811563 
L 321.821498 197.586653 
L 321.639643 197.361742 
L 321.465483 197.136832 
L 321.299211 196.911922 
L 321.140787 196.687011 
L 320.989959 196.462101 
L 320.846301 196.23719 
L 320.709266 196.01228 
L 320.578246 195.78737 
L 320.452632 195.562459 
L 320.331889 195.337549 
L 320.215615 195.112639 
L 320.103604 194.887728 
L 319.995894 194.662818 
L 319.892796 194.437908 
L 319.794908 194.212997 
L 319.703109 193.988087 
L 319.618526 193.763176 
L 319.542489 193.538266 
L 319.476457 193.313356 
L 319.421941 193.088445 
L 319.380411 192.863535 
L 319.353204 192.638625 
L 319.341435 192.413714 
L 319.345924 192.188804 
L 319.36713 191.963894 
L 319.405117 191.738983 
L 319.459534 191.514073 
L 319.529635 191.289162 
L 319.614305 191.064252 
L 319.712125 190.839342 
L 319.821448 190.614431 
L 319.940484 190.389521 
L 320.067398 190.164611 
L 320.200406 189.9397 
L 320.337856 189.71479 
L 320.478309 189.48988 
L 320.620593 189.264969 
L 320.763841 189.040059 
L 320.907503 188.815149 
L 321.05134 188.590238 
L 321.195396 188.365328 
L 321.339953 188.140417 
L 321.485469 187.915507 
L 321.63251 187.690597 
L 321.781678 187.465686 
L 321.933539 187.240776 
L 322.088557 187.015866 
L 322.247035 186.790955 
L 322.409073 186.566045 
L 322.574534 186.341135 
L 322.743034 186.116224 
L 322.913944 185.891314 
L 323.0864 185.666403 
L 323.259344 185.441493 
L 323.431554 185.216583 
L 323.601703 184.991672 
L 323.768405 184.766762 
L 323.930276 184.541852 
L 324.085987 184.316941 
L 324.23431 184.092031 
L 324.374164 183.867121 
L 324.504647 183.64221 
L 324.625057 183.4173 
L 324.734907 183.192389 
L 324.833928 182.967479 
L 324.922058 182.742569 
L 324.999428 182.517658 
L 325.066344 182.292748 
L 325.123259 182.067838 
L 325.170747 181.842927 
L 325.209474 181.618017 
L 325.240178 181.393107 
L 325.263646 181.168196 
L 325.280694 180.943286 
L 325.292155 180.718375 
L 325.298869 180.493465 
L 325.301677 180.268555 
L 325.301414 180.043644 
L 325.298907 179.818734 
L 325.294968 179.593824 
L 325.29039 179.368913 
L 325.285938 179.144003 
L 325.282337 178.919093 
L 325.280263 178.694182 
L 325.280325 178.469272 
L 325.28305 178.244361 
L 325.288873 178.019451 
L 325.298117 177.794541 
L 325.310987 177.56963 
L 325.327562 177.34472 
L 325.347794 177.11981 
L 326.568278 177.11981 
L 326.568278 177.11981 
L 326.58851 177.34472 
L 326.605086 177.56963 
L 326.617956 177.794541 
L 326.627199 178.019451 
L 326.633022 178.244361 
L 326.635748 178.469272 
L 326.635809 178.694182 
L 326.633735 178.919093 
L 326.630134 179.144003 
L 326.625682 179.368913 
L 326.621104 179.593824 
L 326.617165 179.818734 
L 326.614658 180.043644 
L 326.614395 180.268555 
L 326.617203 180.493465 
L 326.623917 180.718375 
L 326.635378 180.943286 
L 326.652426 181.168196 
L 326.675894 181.393107 
L 326.706598 181.618017 
L 326.745326 181.842927 
L 326.792813 182.067838 
L 326.849728 182.292748 
L 326.916644 182.517658 
L 326.994014 182.742569 
L 327.082144 182.967479 
L 327.181165 183.192389 
L 327.291015 183.4173 
L 327.411425 183.64221 
L 327.541908 183.867121 
L 327.681762 184.092031 
L 327.830085 184.316941 
L 327.985796 184.541852 
L 328.147667 184.766762 
L 328.314369 184.991672 
L 328.484518 185.216583 
L 328.656728 185.441493 
L 328.829672 185.666403 
L 329.002128 185.891314 
L 329.173038 186.116224 
L 329.341538 186.341135 
L 329.506999 186.566045 
L 329.669037 186.790955 
L 329.827515 187.015866 
L 329.982533 187.240776 
L 330.134394 187.465686 
L 330.283562 187.690597 
L 330.430603 187.915507 
L 330.576119 188.140417 
L 330.720676 188.365328 
L 330.864732 188.590238 
L 331.00857 188.815149 
L 331.152231 189.040059 
L 331.295479 189.264969 
L 331.437763 189.48988 
L 331.578216 189.71479 
L 331.715667 189.9397 
L 331.848674 190.164611 
L 331.975589 190.389521 
L 332.094624 190.614431 
L 332.203947 190.839342 
L 332.301768 191.064252 
L 332.386437 191.289162 
L 332.456538 191.514073 
L 332.510956 191.738983 
L 332.548942 191.963894 
L 332.570148 192.188804 
L 332.574637 192.413714 
L 332.562869 192.638625 
L 332.535661 192.863535 
L 332.494131 193.088445 
L 332.439615 193.313356 
L 332.373583 193.538266 
L 332.297546 193.763176 
L 332.212963 193.988087 
L 332.121164 194.212997 
L 332.023276 194.437908 
L 331.920178 194.662818 
L 331.812468 194.887728 
L 331.700457 195.112639 
L 331.584183 195.337549 
L 331.46344 195.562459 
L 331.337826 195.78737 
L 331.206806 196.01228 
L 331.069771 196.23719 
L 330.926114 196.462101 
L 330.775285 196.687011 
L 330.616861 196.911922 
L 330.450589 197.136832 
L 330.276429 197.361742 
L 330.094574 197.586653 
L 329.905469 197.811563 
L 329.709807 198.036473 
L 329.508515 198.261384 
L 329.302734 198.486294 
L 329.093785 198.711204 
L 328.883132 198.936115 
L 328.672332 199.161025 
L 328.462999 199.385936 
z
" clip-path="url(#pd5fe7f40ef)" style="fill: #1f77b4; fill-opacity: 0.3"/>
   </g>
   <g id="PolyCollection_11">
    <path d="M 355.835475 200.01813 
L 349.013404 200.01813 
L 348.760943 199.805598 
L 348.508028 199.593067 
L 348.256695 199.380535 
L 348.009014 199.168004 
L 347.76705 198.955472 
L 347.532822 198.742941 
L 347.308264 198.530409 
L 347.095187 198.317878 
L 346.895245 198.105346 
L 346.7099 197.892815 
L 346.540397 197.680283 
L 346.387742 197.467752 
L 346.252686 197.25522 
L 346.135716 197.042689 
L 346.037049 196.830157 
L 345.956637 196.617626 
L 345.894172 196.405094 
L 345.849105 196.192563 
L 345.820655 195.980031 
L 345.807838 195.7675 
L 345.80949 195.554968 
L 345.824288 195.342437 
L 345.850788 195.129906 
L 345.887448 194.917374 
L 345.932658 194.704843 
L 345.984776 194.492311 
L 346.042154 194.27978 
L 346.103169 194.067248 
L 346.166257 193.854717 
L 346.229938 193.642185 
L 346.292847 193.429654 
L 346.353763 193.217122 
L 346.411636 193.004591 
L 346.465609 192.792059 
L 346.515043 192.579528 
L 346.55953 192.366996 
L 346.598912 192.154465 
L 346.633284 191.941933 
L 346.662997 191.729402 
L 346.688649 191.51687 
L 346.711072 191.304339 
L 346.731308 191.091807 
L 346.750579 190.879276 
L 346.770242 190.666744 
L 346.791752 190.454213 
L 346.816602 190.241681 
L 346.846275 190.02915 
L 346.882185 189.816618 
L 346.925622 189.604087 
L 346.977702 189.391555 
L 347.039324 189.179024 
L 347.111127 188.966492 
L 347.193471 188.753961 
L 347.286416 188.541429 
L 347.389721 188.328898 
L 347.502854 188.116366 
L 347.625012 187.903835 
L 347.755154 187.691303 
L 347.892042 187.478772 
L 348.034288 187.26624 
L 348.180407 187.053709 
L 348.328873 186.841177 
L 348.478167 186.628646 
L 348.626835 186.416114 
L 348.773522 186.203583 
L 348.91702 185.991051 
L 349.056286 185.77852 
L 349.190468 185.565988 
L 349.318911 185.353457 
L 349.441158 185.140925 
L 349.556943 184.928394 
L 349.666177 184.715862 
L 349.768927 184.503331 
L 349.865393 184.290799 
L 349.955883 184.078268 
L 350.04079 183.865736 
L 350.120562 183.653205 
L 350.195686 183.440673 
L 350.266665 183.228142 
L 350.334004 183.01561 
L 350.3982 182.803079 
L 350.459727 182.590547 
L 350.51904 182.378016 
L 350.576563 182.165484 
L 350.632691 181.952953 
L 350.687793 181.740421 
L 350.742206 181.52789 
L 350.796238 181.315358 
L 350.850167 181.102827 
L 350.90424 180.890295 
L 350.958669 180.677764 
L 351.013628 180.465232 
L 351.069251 180.252701 
L 351.125627 180.040169 
L 351.182797 179.827638 
L 351.240751 179.615106 
L 351.299429 179.402575 
L 351.358717 179.190043 
L 351.418452 178.977512 
L 353.430426 178.977512 
L 353.430426 178.977512 
L 353.490162 179.190043 
L 353.54945 179.402575 
L 353.608127 179.615106 
L 353.666081 179.827638 
L 353.723251 180.040169 
L 353.779627 180.252701 
L 353.83525 180.465232 
L 353.890209 180.677764 
L 353.944638 180.890295 
L 353.998711 181.102827 
L 354.052641 181.315358 
L 354.106673 181.52789 
L 354.161086 181.740421 
L 354.216187 181.952953 
L 354.272316 182.165484 
L 354.329838 182.378016 
L 354.389151 182.590547 
L 354.450679 182.803079 
L 354.514874 183.01561 
L 354.582214 183.228142 
L 354.653193 183.440673 
L 354.728317 183.653205 
L 354.808089 183.865736 
L 354.892995 184.078268 
L 354.983486 184.290799 
L 355.079952 184.503331 
L 355.182702 184.715862 
L 355.291936 184.928394 
L 355.407721 185.140925 
L 355.529968 185.353457 
L 355.65841 185.565988 
L 355.792592 185.77852 
L 355.931858 185.991051 
L 356.075356 186.203583 
L 356.222044 186.416114 
L 356.370711 186.628646 
L 356.520006 186.841177 
L 356.668471 187.053709 
L 356.814591 187.26624 
L 356.956837 187.478772 
L 357.093724 187.691303 
L 357.223866 187.903835 
L 357.346025 188.116366 
L 357.459157 188.328898 
L 357.562462 188.541429 
L 357.655407 188.753961 
L 357.737751 188.966492 
L 357.809555 189.179024 
L 357.871176 189.391555 
L 357.923257 189.604087 
L 357.966694 189.816618 
L 358.002603 190.02915 
L 358.032276 190.241681 
L 358.057127 190.454213 
L 358.078636 190.666744 
L 358.0983 190.879276 
L 358.11757 191.091807 
L 358.137807 191.304339 
L 358.16023 191.51687 
L 358.185882 191.729402 
L 358.215595 191.941933 
L 358.249967 192.154465 
L 358.289349 192.366996 
L 358.333836 192.579528 
L 358.383269 192.792059 
L 358.437242 193.004591 
L 358.495115 193.217122 
L 358.556032 193.429654 
L 358.618941 193.642185 
L 358.682621 193.854717 
L 358.745709 194.067248 
L 358.806725 194.27978 
L 358.864103 194.492311 
L 358.916221 194.704843 
L 358.961431 194.917374 
L 358.99809 195.129906 
L 359.02459 195.342437 
L 359.039389 195.554968 
L 359.04104 195.7675 
L 359.028224 195.980031 
L 358.999774 196.192563 
L 358.954706 196.405094 
L 358.892242 196.617626 
L 358.811829 196.830157 
L 358.713162 197.042689 
L 358.596192 197.25522 
L 358.461136 197.467752 
L 358.308482 197.680283 
L 358.138978 197.892815 
L 357.953633 198.105346 
L 357.753691 198.317878 
L 357.540615 198.530409 
L 357.316057 198.742941 
L 357.081828 198.955472 
L 356.839864 199.168004 
L 356.592183 199.380535 
L 356.34085 199.593067 
L 356.087935 199.805598 
L 355.835475 200.01813 
z
" clip-path="url(#pd5fe7f40ef)" style="fill: #1f77b4; fill-opacity: 0.3"/>
   </g>
   <g id="PolyCollection_12">
    <path d="M 380.848589 199.175619 
L 376.933096 199.175619 
L 376.775198 199.003639 
L 376.611178 198.831659 
L 376.44093 198.659679 
L 376.26434 198.487699 
L 376.081315 198.315719 
L 375.891811 198.143739 
L 375.695872 197.971759 
L 375.493667 197.799779 
L 375.285528 197.627799 
L 375.071989 197.455818 
L 374.853816 197.283838 
L 374.632037 197.111858 
L 374.40796 196.939878 
L 374.183181 196.767898 
L 373.959583 196.595918 
L 373.739322 196.423938 
L 373.524796 196.251958 
L 373.318603 196.079978 
L 373.123487 195.907998 
L 372.942264 195.736018 
L 372.777743 195.564038 
L 372.632636 195.392057 
L 372.509461 195.220077 
L 372.410445 195.048097 
L 372.337423 194.876117 
L 372.291755 194.704137 
L 372.274242 194.532157 
L 372.285065 194.360177 
L 372.323749 194.188197 
L 372.389138 194.016217 
L 372.479413 193.844237 
L 372.592126 193.672257 
L 372.724267 193.500277 
L 372.872358 193.328296 
L 373.032569 193.156316 
L 373.200851 192.984336 
L 373.373085 192.812356 
L 373.545234 192.640376 
L 373.713495 192.468396 
L 373.874439 192.296416 
L 374.025142 192.124436 
L 374.163283 191.952456 
L 374.287226 191.780476 
L 374.396056 191.608496 
L 374.489596 191.436515 
L 374.568378 191.264535 
L 374.633589 191.092555 
L 374.686979 190.920575 
L 374.730754 190.748595 
L 374.767441 190.576615 
L 374.79975 190.404635 
L 374.830428 190.232655 
L 374.862117 190.060675 
L 374.897226 189.888695 
L 374.937822 189.716715 
L 374.985543 189.544735 
L 375.041539 189.372754 
L 375.106447 189.200774 
L 375.180395 189.028794 
L 375.263032 188.856814 
L 375.353586 188.684834 
L 375.450944 188.512854 
L 375.553748 188.340874 
L 375.660491 188.168894 
L 375.769625 187.996914 
L 375.879656 187.824934 
L 375.989229 187.652954 
L 376.097201 187.480974 
L 376.202683 187.308993 
L 376.305072 187.137013 
L 376.404056 186.965033 
L 376.499591 186.793053 
L 376.591874 186.621073 
L 376.681288 186.449093 
L 376.768344 186.277113 
L 376.853621 186.105133 
L 376.937697 185.933153 
L 377.021098 185.761173 
L 377.104245 185.589193 
L 377.18742 185.417213 
L 377.270743 185.245232 
L 377.354167 185.073252 
L 377.437483 184.901272 
L 377.520343 184.729292 
L 377.602285 184.557312 
L 377.682773 184.385332 
L 377.761239 184.213352 
L 377.837118 184.041372 
L 377.909893 183.869392 
L 377.979122 183.697412 
L 378.044465 183.525432 
L 378.105699 183.353451 
L 378.162726 183.181471 
L 378.215569 183.009491 
L 378.264364 182.837511 
L 378.309342 182.665531 
L 378.350806 182.493551 
L 378.389111 182.321571 
L 378.424634 182.149591 
L 379.357051 182.149591 
L 379.357051 182.149591 
L 379.392574 182.321571 
L 379.430878 182.493551 
L 379.472343 182.665531 
L 379.51732 182.837511 
L 379.566116 183.009491 
L 379.618959 183.181471 
L 379.675986 183.353451 
L 379.73722 183.525432 
L 379.802563 183.697412 
L 379.871792 183.869392 
L 379.944567 184.041372 
L 380.020446 184.213352 
L 380.098911 184.385332 
L 380.1794 184.557312 
L 380.261342 184.729292 
L 380.344201 184.901272 
L 380.427518 185.073252 
L 380.510942 185.245232 
L 380.594265 185.417213 
L 380.67744 185.589193 
L 380.760586 185.761173 
L 380.843987 185.933153 
L 380.928064 186.105133 
L 381.01334 186.277113 
L 381.100397 186.449093 
L 381.18981 186.621073 
L 381.282093 186.793053 
L 381.377629 186.965033 
L 381.476612 187.137013 
L 381.579002 187.308993 
L 381.684484 187.480974 
L 381.792456 187.652954 
L 381.902029 187.824934 
L 382.01206 187.996914 
L 382.121194 188.168894 
L 382.227937 188.340874 
L 382.330741 188.512854 
L 382.428099 188.684834 
L 382.518653 188.856814 
L 382.60129 189.028794 
L 382.675238 189.200774 
L 382.740146 189.372754 
L 382.796142 189.544735 
L 382.843862 189.716715 
L 382.884459 189.888695 
L 382.919568 190.060675 
L 382.951257 190.232655 
L 382.981935 190.404635 
L 383.014244 190.576615 
L 383.050931 190.748595 
L 383.094705 190.920575 
L 383.148096 191.092555 
L 383.213306 191.264535 
L 383.292089 191.436515 
L 383.385629 191.608496 
L 383.494459 191.780476 
L 383.618401 191.952456 
L 383.756543 192.124436 
L 383.907246 192.296416 
L 384.06819 192.468396 
L 384.236451 192.640376 
L 384.4086 192.812356 
L 384.580834 192.984336 
L 384.749116 193.156316 
L 384.909327 193.328296 
L 385.057418 193.500277 
L 385.189559 193.672257 
L 385.302272 193.844237 
L 385.392547 194.016217 
L 385.457936 194.188197 
L 385.49662 194.360177 
L 385.507443 194.532157 
L 385.48993 194.704137 
L 385.444262 194.876117 
L 385.37124 195.048097 
L 385.272224 195.220077 
L 385.149049 195.392057 
L 385.003942 195.564038 
L 384.839421 195.736018 
L 384.658198 195.907998 
L 384.463082 196.079978 
L 384.256889 196.251958 
L 384.042363 196.423938 
L 383.822102 196.595918 
L 383.598504 196.767898 
L 383.373725 196.939878 
L 383.149647 197.111858 
L 382.927869 197.283838 
L 382.709696 197.455818 
L 382.496157 197.627799 
L 382.288018 197.799779 
L 382.085813 197.971759 
L 381.889874 198.143739 
L 381.70037 198.315719 
L 381.517344 198.487699 
L 381.340755 198.659679 
L 381.170507 198.831659 
L 381.006486 199.003639 
L 380.848589 199.175619 
z
" clip-path="url(#pd5fe7f40ef)" style="fill: #1f77b4; fill-opacity: 0.3"/>
   </g>
   <g id="matplotlib.axis_1">
    <g id="xtick_1">
     <g id="line2d_1">
      <defs>
       <path id="m5c1ea0f13a" d="M 0 0 
L 0 -3.5 
" style="stroke: #000000; stroke-width: 0.8"/>
      </defs>
      <g>
       <use xlink:href="#m5c1ea0f13a" x="87.760408" y="224.64" style="stroke: #000000; stroke-width: 0.8"/>
      </g>
     </g>
     <g id="text_1">
      <!-- 40 -->
      <g transform="translate(75.526345 243.887187) scale(0.22 -0.22)">
       <defs>
        <path id="ArialMT-34" d="M 2069 0 
L 2069 1097 
L 81 1097 
L 81 1613 
L 2172 4581 
L 2631 4581 
L 2631 1613 
L 3250 1613 
L 3250 1097 
L 2631 1097 
L 2631 0 
L 2069 0 
z
M 2069 1613 
L 2069 3678 
L 634 1613 
L 2069 1613 
z
" transform="scale(0.015625)"/>
        <path id="ArialMT-30" d="M 266 2259 
Q 266 3072 433 3567 
Q 600 4063 929 4331 
Q 1259 4600 1759 4600 
Q 2128 4600 2406 4451 
Q 2684 4303 2865 4023 
Q 3047 3744 3150 3342 
Q 3253 2941 3253 2259 
Q 3253 1453 3087 958 
Q 2922 463 2592 192 
Q 2263 -78 1759 -78 
Q 1097 -78 719 397 
Q 266 969 266 2259 
z
M 844 2259 
Q 844 1131 1108 757 
Q 1372 384 1759 384 
Q 2147 384 2411 759 
Q 2675 1134 2675 2259 
Q 2675 3391 2411 3762 
Q 2147 4134 1753 4134 
Q 1366 4134 1134 3806 
Q 844 3388 844 2259 
z
" transform="scale(0.015625)"/>
       </defs>
       <use xlink:href="#ArialMT-34"/>
       <use xlink:href="#ArialMT-30" x="55.615234"/>
      </g>
     </g>
    </g>
    <g id="xtick_2">
     <g id="line2d_2">
      <g>
       <use xlink:href="#m5c1ea0f13a" x="140.693214" y="224.64" style="stroke: #000000; stroke-width: 0.8"/>
      </g>
     </g>
     <g id="text_2">
      <!-- 60 -->
      <g transform="translate(128.459151 243.887187) scale(0.22 -0.22)">
       <defs>
        <path id="ArialMT-36" d="M 3184 3459 
L 2625 3416 
Q 2550 3747 2413 3897 
Q 2184 4138 1850 4138 
Q 1581 4138 1378 3988 
Q 1113 3794 959 3422 
Q 806 3050 800 2363 
Q 1003 2672 1297 2822 
Q 1591 2972 1913 2972 
Q 2475 2972 2870 2558 
Q 3266 2144 3266 1488 
Q 3266 1056 3080 686 
Q 2894 316 2569 119 
Q 2244 -78 1831 -78 
Q 1128 -78 684 439 
Q 241 956 241 2144 
Q 241 3472 731 4075 
Q 1159 4600 1884 4600 
Q 2425 4600 2770 4297 
Q 3116 3994 3184 3459 
z
M 888 1484 
Q 888 1194 1011 928 
Q 1134 663 1356 523 
Q 1578 384 1822 384 
Q 2178 384 2434 671 
Q 2691 959 2691 1453 
Q 2691 1928 2437 2201 
Q 2184 2475 1800 2475 
Q 1419 2475 1153 2201 
Q 888 1928 888 1484 
z
" transform="scale(0.015625)"/>
       </defs>
       <use xlink:href="#ArialMT-36"/>
       <use xlink:href="#ArialMT-30" x="55.615234"/>
      </g>
     </g>
    </g>
    <g id="xtick_3">
     <g id="line2d_3">
      <g>
       <use xlink:href="#m5c1ea0f13a" x="193.62602" y="224.64" style="stroke: #000000; stroke-width: 0.8"/>
      </g>
     </g>
     <g id="text_3">
      <!-- 80 -->
      <g transform="translate(181.391958 243.887187) scale(0.22 -0.22)">
       <defs>
        <path id="ArialMT-38" d="M 1131 2484 
Q 781 2613 612 2850 
Q 444 3088 444 3419 
Q 444 3919 803 4259 
Q 1163 4600 1759 4600 
Q 2359 4600 2725 4251 
Q 3091 3903 3091 3403 
Q 3091 3084 2923 2848 
Q 2756 2613 2416 2484 
Q 2838 2347 3058 2040 
Q 3278 1734 3278 1309 
Q 3278 722 2862 322 
Q 2447 -78 1769 -78 
Q 1091 -78 675 323 
Q 259 725 259 1325 
Q 259 1772 486 2073 
Q 713 2375 1131 2484 
z
M 1019 3438 
Q 1019 3113 1228 2906 
Q 1438 2700 1772 2700 
Q 2097 2700 2305 2904 
Q 2513 3109 2513 3406 
Q 2513 3716 2298 3927 
Q 2084 4138 1766 4138 
Q 1444 4138 1231 3931 
Q 1019 3725 1019 3438 
z
M 838 1322 
Q 838 1081 952 856 
Q 1066 631 1291 507 
Q 1516 384 1775 384 
Q 2178 384 2440 643 
Q 2703 903 2703 1303 
Q 2703 1709 2433 1975 
Q 2163 2241 1756 2241 
Q 1359 2241 1098 1978 
Q 838 1716 838 1322 
z
" transform="scale(0.015625)"/>
       </defs>
       <use xlink:href="#ArialMT-38"/>
       <use xlink:href="#ArialMT-30" x="55.615234"/>
      </g>
     </g>
    </g>
    <g id="xtick_4">
     <g id="line2d_4">
      <g>
       <use xlink:href="#m5c1ea0f13a" x="246.558827" y="224.64" style="stroke: #000000; stroke-width: 0.8"/>
      </g>
     </g>
     <g id="text_4">
      <!-- 100 -->
      <g transform="translate(228.207733 243.887187) scale(0.22 -0.22)">
       <defs>
        <path id="ArialMT-31" d="M 2384 0 
L 1822 0 
L 1822 3584 
Q 1619 3391 1289 3197 
Q 959 3003 697 2906 
L 697 3450 
Q 1169 3672 1522 3987 
Q 1875 4303 2022 4600 
L 2384 4600 
L 2384 0 
z
" transform="scale(0.015625)"/>
       </defs>
       <use xlink:href="#ArialMT-31"/>
       <use xlink:href="#ArialMT-30" x="55.615234"/>
       <use xlink:href="#ArialMT-30" x="111.230469"/>
      </g>
     </g>
    </g>
    <g id="xtick_5">
     <g id="line2d_5">
      <g>
       <use xlink:href="#m5c1ea0f13a" x="299.491633" y="224.64" style="stroke: #000000; stroke-width: 0.8"/>
      </g>
     </g>
     <g id="text_5">
      <!-- 120 -->
      <g transform="translate(281.140539 243.887187) scale(0.22 -0.22)">
       <defs>
        <path id="ArialMT-32" d="M 3222 541 
L 3222 0 
L 194 0 
Q 188 203 259 391 
Q 375 700 629 1000 
Q 884 1300 1366 1694 
Q 2113 2306 2375 2664 
Q 2638 3022 2638 3341 
Q 2638 3675 2398 3904 
Q 2159 4134 1775 4134 
Q 1369 4134 1125 3890 
Q 881 3647 878 3216 
L 300 3275 
Q 359 3922 746 4261 
Q 1134 4600 1788 4600 
Q 2447 4600 2831 4234 
Q 3216 3869 3216 3328 
Q 3216 3053 3103 2787 
Q 2991 2522 2730 2228 
Q 2469 1934 1863 1422 
Q 1356 997 1212 845 
Q 1069 694 975 541 
L 3222 541 
z
" transform="scale(0.015625)"/>
       </defs>
       <use xlink:href="#ArialMT-31"/>
       <use xlink:href="#ArialMT-32" x="55.615234"/>
       <use xlink:href="#ArialMT-30" x="111.230469"/>
      </g>
     </g>
    </g>
    <g id="xtick_6">
     <g id="line2d_6">
      <g>
       <use xlink:href="#m5c1ea0f13a" x="352.424439" y="224.64" style="stroke: #000000; stroke-width: 0.8"/>
      </g>
     </g>
     <g id="text_6">
      <!-- 140 -->
      <g transform="translate(334.073345 243.887187) scale(0.22 -0.22)">
       <use xlink:href="#ArialMT-31"/>
       <use xlink:href="#ArialMT-34" x="55.615234"/>
       <use xlink:href="#ArialMT-30" x="111.230469"/>
      </g>
     </g>
    </g>
    <g id="text_7">
     <!-- Num. of ensemble -->
     <g transform="translate(144.069219 268.006875) scale(0.22 -0.22)">
      <defs>
       <path id="ArialMT-4e" d="M 488 0 
L 488 4581 
L 1109 4581 
L 3516 984 
L 3516 4581 
L 4097 4581 
L 4097 0 
L 3475 0 
L 1069 3600 
L 1069 0 
L 488 0 
z
" transform="scale(0.015625)"/>
       <path id="ArialMT-75" d="M 2597 0 
L 2597 488 
Q 2209 -75 1544 -75 
Q 1250 -75 995 37 
Q 741 150 617 320 
Q 494 491 444 738 
Q 409 903 409 1263 
L 409 3319 
L 972 3319 
L 972 1478 
Q 972 1038 1006 884 
Q 1059 663 1231 536 
Q 1403 409 1656 409 
Q 1909 409 2131 539 
Q 2353 669 2445 892 
Q 2538 1116 2538 1541 
L 2538 3319 
L 3100 3319 
L 3100 0 
L 2597 0 
z
" transform="scale(0.015625)"/>
       <path id="ArialMT-6d" d="M 422 0 
L 422 3319 
L 925 3319 
L 925 2853 
Q 1081 3097 1340 3245 
Q 1600 3394 1931 3394 
Q 2300 3394 2536 3241 
Q 2772 3088 2869 2813 
Q 3263 3394 3894 3394 
Q 4388 3394 4653 3120 
Q 4919 2847 4919 2278 
L 4919 0 
L 4359 0 
L 4359 2091 
Q 4359 2428 4304 2576 
Q 4250 2725 4106 2815 
Q 3963 2906 3769 2906 
Q 3419 2906 3187 2673 
Q 2956 2441 2956 1928 
L 2956 0 
L 2394 0 
L 2394 2156 
Q 2394 2531 2256 2718 
Q 2119 2906 1806 2906 
Q 1569 2906 1367 2781 
Q 1166 2656 1075 2415 
Q 984 2175 984 1722 
L 984 0 
L 422 0 
z
" transform="scale(0.015625)"/>
       <path id="ArialMT-2e" d="M 581 0 
L 581 641 
L 1222 641 
L 1222 0 
L 581 0 
z
" transform="scale(0.015625)"/>
       <path id="ArialMT-20" transform="scale(0.015625)"/>
       <path id="ArialMT-6f" d="M 213 1659 
Q 213 2581 725 3025 
Q 1153 3394 1769 3394 
Q 2453 3394 2887 2945 
Q 3322 2497 3322 1706 
Q 3322 1066 3130 698 
Q 2938 331 2570 128 
Q 2203 -75 1769 -75 
Q 1072 -75 642 372 
Q 213 819 213 1659 
z
M 791 1659 
Q 791 1022 1069 705 
Q 1347 388 1769 388 
Q 2188 388 2466 706 
Q 2744 1025 2744 1678 
Q 2744 2294 2464 2611 
Q 2184 2928 1769 2928 
Q 1347 2928 1069 2612 
Q 791 2297 791 1659 
z
" transform="scale(0.015625)"/>
       <path id="ArialMT-66" d="M 556 0 
L 556 2881 
L 59 2881 
L 59 3319 
L 556 3319 
L 556 3672 
Q 556 4006 616 4169 
Q 697 4388 901 4523 
Q 1106 4659 1475 4659 
Q 1713 4659 2000 4603 
L 1916 4113 
Q 1741 4144 1584 4144 
Q 1328 4144 1222 4034 
Q 1116 3925 1116 3625 
L 1116 3319 
L 1763 3319 
L 1763 2881 
L 1116 2881 
L 1116 0 
L 556 0 
z
" transform="scale(0.015625)"/>
       <path id="ArialMT-65" d="M 2694 1069 
L 3275 997 
Q 3138 488 2766 206 
Q 2394 -75 1816 -75 
Q 1088 -75 661 373 
Q 234 822 234 1631 
Q 234 2469 665 2931 
Q 1097 3394 1784 3394 
Q 2450 3394 2872 2941 
Q 3294 2488 3294 1666 
Q 3294 1616 3291 1516 
L 816 1516 
Q 847 969 1125 678 
Q 1403 388 1819 388 
Q 2128 388 2347 550 
Q 2566 713 2694 1069 
z
M 847 1978 
L 2700 1978 
Q 2663 2397 2488 2606 
Q 2219 2931 1791 2931 
Q 1403 2931 1139 2672 
Q 875 2413 847 1978 
z
" transform="scale(0.015625)"/>
       <path id="ArialMT-6e" d="M 422 0 
L 422 3319 
L 928 3319 
L 928 2847 
Q 1294 3394 1984 3394 
Q 2284 3394 2536 3286 
Q 2788 3178 2913 3003 
Q 3038 2828 3088 2588 
Q 3119 2431 3119 2041 
L 3119 0 
L 2556 0 
L 2556 2019 
Q 2556 2363 2490 2533 
Q 2425 2703 2258 2804 
Q 2091 2906 1866 2906 
Q 1506 2906 1245 2678 
Q 984 2450 984 1813 
L 984 0 
L 422 0 
z
" transform="scale(0.015625)"/>
       <path id="ArialMT-73" d="M 197 991 
L 753 1078 
Q 800 744 1014 566 
Q 1228 388 1613 388 
Q 2000 388 2187 545 
Q 2375 703 2375 916 
Q 2375 1106 2209 1216 
Q 2094 1291 1634 1406 
Q 1016 1563 777 1677 
Q 538 1791 414 1992 
Q 291 2194 291 2438 
Q 291 2659 392 2848 
Q 494 3038 669 3163 
Q 800 3259 1026 3326 
Q 1253 3394 1513 3394 
Q 1903 3394 2198 3281 
Q 2494 3169 2634 2976 
Q 2775 2784 2828 2463 
L 2278 2388 
Q 2241 2644 2061 2787 
Q 1881 2931 1553 2931 
Q 1166 2931 1000 2803 
Q 834 2675 834 2503 
Q 834 2394 903 2306 
Q 972 2216 1119 2156 
Q 1203 2125 1616 2013 
Q 2213 1853 2448 1751 
Q 2684 1650 2818 1456 
Q 2953 1263 2953 975 
Q 2953 694 2789 445 
Q 2625 197 2315 61 
Q 2006 -75 1616 -75 
Q 969 -75 630 194 
Q 291 463 197 991 
z
" transform="scale(0.015625)"/>
       <path id="ArialMT-62" d="M 941 0 
L 419 0 
L 419 4581 
L 981 4581 
L 981 2947 
Q 1338 3394 1891 3394 
Q 2197 3394 2470 3270 
Q 2744 3147 2920 2923 
Q 3097 2700 3197 2384 
Q 3297 2069 3297 1709 
Q 3297 856 2875 390 
Q 2453 -75 1863 -75 
Q 1275 -75 941 416 
L 941 0 
z
M 934 1684 
Q 934 1088 1097 822 
Q 1363 388 1816 388 
Q 2184 388 2453 708 
Q 2722 1028 2722 1663 
Q 2722 2313 2464 2622 
Q 2206 2931 1841 2931 
Q 1472 2931 1203 2611 
Q 934 2291 934 1684 
z
" transform="scale(0.015625)"/>
       <path id="ArialMT-6c" d="M 409 0 
L 409 4581 
L 972 4581 
L 972 0 
L 409 0 
z
" transform="scale(0.015625)"/>
      </defs>
      <use xlink:href="#ArialMT-4e"/>
      <use xlink:href="#ArialMT-75" x="72.216797"/>
      <use xlink:href="#ArialMT-6d" x="127.832031"/>
      <use xlink:href="#ArialMT-2e" x="211.132812"/>
      <use xlink:href="#ArialMT-20" x="238.916016"/>
      <use xlink:href="#ArialMT-6f" x="266.699219"/>
      <use xlink:href="#ArialMT-66" x="322.314453"/>
      <use xlink:href="#ArialMT-20" x="350.097656"/>
      <use xlink:href="#ArialMT-65" x="377.880859"/>
      <use xlink:href="#ArialMT-6e" x="433.496094"/>
      <use xlink:href="#ArialMT-73" x="489.111328"/>
      <use xlink:href="#ArialMT-65" x="539.111328"/>
      <use xlink:href="#ArialMT-6d" x="594.726562"/>
      <use xlink:href="#ArialMT-62" x="678.027344"/>
      <use xlink:href="#ArialMT-6c" x="733.642578"/>
      <use xlink:href="#ArialMT-65" x="755.859375"/>
     </g>
    </g>
   </g>
   <g id="matplotlib.axis_2">
    <g id="ytick_1">
     <g id="line2d_7">
      <defs>
       <path id="ma68464dd7d" d="M 0 0 
L 3.5 0 
" style="stroke: #000000; stroke-width: 0.8"/>
      </defs>
      <g>
       <use xlink:href="#ma68464dd7d" x="65.925625" y="188.4" style="stroke: #000000; stroke-width: 0.8"/>
      </g>
     </g>
     <g id="text_8">
      <!-- 1.2 -->
      <g transform="translate(31.845625 196.273594) scale(0.22 -0.22)">
       <use xlink:href="#ArialMT-31"/>
       <use xlink:href="#ArialMT-2e" x="55.615234"/>
       <use xlink:href="#ArialMT-32" x="83.398438"/>
      </g>
     </g>
    </g>
    <g id="ytick_2">
     <g id="line2d_8">
      <g>
       <use xlink:href="#ma68464dd7d" x="65.925625" y="115.92" style="stroke: #000000; stroke-width: 0.8"/>
      </g>
     </g>
     <g id="text_9">
      <!-- 1.4 -->
      <g transform="translate(31.845625 123.793594) scale(0.22 -0.22)">
       <use xlink:href="#ArialMT-31"/>
       <use xlink:href="#ArialMT-2e" x="55.615234"/>
       <use xlink:href="#ArialMT-34" x="83.398438"/>
      </g>
     </g>
    </g>
    <g id="ytick_3">
     <g id="line2d_9">
      <g>
       <use xlink:href="#ma68464dd7d" x="65.925625" y="43.44" style="stroke: #000000; stroke-width: 0.8"/>
      </g>
     </g>
     <g id="text_10">
      <!-- 1.6 -->
      <g transform="translate(31.845625 51.313594) scale(0.22 -0.22)">
       <use xlink:href="#ArialMT-31"/>
       <use xlink:href="#ArialMT-2e" x="55.615234"/>
       <use xlink:href="#ArialMT-36" x="83.398438"/>
      </g>
     </g>
    </g>
    <g id="text_11">
     <!-- MAE (a.u.) -->
     <g transform="translate(23.215312 168.484531) rotate(-90) scale(0.22 -0.22)">
      <defs>
       <path id="ArialMT-4d" d="M 475 0 
L 475 4581 
L 1388 4581 
L 2472 1338 
Q 2622 884 2691 659 
Q 2769 909 2934 1394 
L 4031 4581 
L 4847 4581 
L 4847 0 
L 4263 0 
L 4263 3834 
L 2931 0 
L 2384 0 
L 1059 3900 
L 1059 0 
L 475 0 
z
" transform="scale(0.015625)"/>
       <path id="ArialMT-41" d="M -9 0 
L 1750 4581 
L 2403 4581 
L 4278 0 
L 3588 0 
L 3053 1388 
L 1138 1388 
L 634 0 
L -9 0 
z
M 1313 1881 
L 2866 1881 
L 2388 3150 
Q 2169 3728 2063 4100 
Q 1975 3659 1816 3225 
L 1313 1881 
z
" transform="scale(0.015625)"/>
       <path id="ArialMT-45" d="M 506 0 
L 506 4581 
L 3819 4581 
L 3819 4041 
L 1113 4041 
L 1113 2638 
L 3647 2638 
L 3647 2100 
L 1113 2100 
L 1113 541 
L 3925 541 
L 3925 0 
L 506 0 
z
" transform="scale(0.015625)"/>
       <path id="ArialMT-28" d="M 1497 -1347 
Q 1031 -759 709 28 
Q 388 816 388 1659 
Q 388 2403 628 3084 
Q 909 3875 1497 4659 
L 1900 4659 
Q 1522 4009 1400 3731 
Q 1209 3300 1100 2831 
Q 966 2247 966 1656 
Q 966 153 1900 -1347 
L 1497 -1347 
z
" transform="scale(0.015625)"/>
       <path id="ArialMT-61" d="M 2588 409 
Q 2275 144 1986 34 
Q 1697 -75 1366 -75 
Q 819 -75 525 192 
Q 231 459 231 875 
Q 231 1119 342 1320 
Q 453 1522 633 1644 
Q 813 1766 1038 1828 
Q 1203 1872 1538 1913 
Q 2219 1994 2541 2106 
Q 2544 2222 2544 2253 
Q 2544 2597 2384 2738 
Q 2169 2928 1744 2928 
Q 1347 2928 1158 2789 
Q 969 2650 878 2297 
L 328 2372 
Q 403 2725 575 2942 
Q 747 3159 1072 3276 
Q 1397 3394 1825 3394 
Q 2250 3394 2515 3294 
Q 2781 3194 2906 3042 
Q 3031 2891 3081 2659 
Q 3109 2516 3109 2141 
L 3109 1391 
Q 3109 606 3145 398 
Q 3181 191 3288 0 
L 2700 0 
Q 2613 175 2588 409 
z
M 2541 1666 
Q 2234 1541 1622 1453 
Q 1275 1403 1131 1340 
Q 988 1278 909 1158 
Q 831 1038 831 891 
Q 831 666 1001 516 
Q 1172 366 1500 366 
Q 1825 366 2078 508 
Q 2331 650 2450 897 
Q 2541 1088 2541 1459 
L 2541 1666 
z
" transform="scale(0.015625)"/>
       <path id="ArialMT-29" d="M 791 -1347 
L 388 -1347 
Q 1322 153 1322 1656 
Q 1322 2244 1188 2822 
Q 1081 3291 891 3722 
Q 769 4003 388 4659 
L 791 4659 
Q 1378 3875 1659 3084 
Q 1900 2403 1900 1659 
Q 1900 816 1576 28 
Q 1253 -759 791 -1347 
z
" transform="scale(0.015625)"/>
      </defs>
      <use xlink:href="#ArialMT-4d"/>
      <use xlink:href="#ArialMT-41" x="83.300781"/>
      <use xlink:href="#ArialMT-45" x="150"/>
      <use xlink:href="#ArialMT-20" x="216.699219"/>
      <use xlink:href="#ArialMT-28" x="244.482422"/>
      <use xlink:href="#ArialMT-61" x="277.783203"/>
      <use xlink:href="#ArialMT-2e" x="333.398438"/>
      <use xlink:href="#ArialMT-75" x="361.181641"/>
      <use xlink:href="#ArialMT-2e" x="416.796875"/>
      <use xlink:href="#ArialMT-29" x="444.580078"/>
     </g>
    </g>
   </g>
   <g id="LineCollection_1">
    <path d="M 84.452107 94.335268 
L 91.068708 94.335268 
" clip-path="url(#pd5fe7f40ef)" style="fill: none; stroke: #1f77b4"/>
    <path d="M 110.91851 105.438797 
L 117.535111 105.438797 
" clip-path="url(#pd5fe7f40ef)" style="fill: none; stroke: #1f77b4"/>
    <path d="M 137.384914 100.642421 
L 144.001514 100.642421 
" clip-path="url(#pd5fe7f40ef)" style="fill: none; stroke: #1f77b4"/>
    <path d="M 163.851317 143.815658 
L 170.467917 143.815658 
" clip-path="url(#pd5fe7f40ef)" style="fill: none; stroke: #1f77b4"/>
    <path d="M 190.31772 146.938349 
L 196.934321 146.938349 
" clip-path="url(#pd5fe7f40ef)" style="fill: none; stroke: #1f77b4"/>
    <path d="M 216.784123 173.077659 
L 223.400724 173.077659 
" clip-path="url(#pd5fe7f40ef)" style="fill: none; stroke: #1f77b4"/>
    <path d="M 243.250526 163.207804 
L 249.867127 163.207804 
" clip-path="url(#pd5fe7f40ef)" style="fill: none; stroke: #1f77b4"/>
    <path d="M 269.716929 172.325285 
L 276.33353 172.325285 
" clip-path="url(#pd5fe7f40ef)" style="fill: none; stroke: #1f77b4"/>
    <path d="M 296.183333 165.93492 
L 302.799933 165.93492 
" clip-path="url(#pd5fe7f40ef)" style="fill: none; stroke: #1f77b4"/>
    <path d="M 322.649736 177.11981 
L 329.266336 177.11981 
" clip-path="url(#pd5fe7f40ef)" style="fill: none; stroke: #1f77b4"/>
    <path d="M 349.116139 178.977512 
L 355.73274 178.977512 
" clip-path="url(#pd5fe7f40ef)" style="fill: none; stroke: #1f77b4"/>
    <path d="M 375.582542 182.149591 
L 382.199143 182.149591 
" clip-path="url(#pd5fe7f40ef)" style="fill: none; stroke: #1f77b4"/>
   </g>
   <g id="LineCollection_2">
    <path d="M 84.452107 190.987484 
L 91.068708 190.987484 
" clip-path="url(#pd5fe7f40ef)" style="fill: none; stroke: #1f77b4"/>
    <path d="M 110.91851 192.101497 
L 117.535111 192.101497 
" clip-path="url(#pd5fe7f40ef)" style="fill: none; stroke: #1f77b4"/>
    <path d="M 137.384914 195.852915 
L 144.001514 195.852915 
" clip-path="url(#pd5fe7f40ef)" style="fill: none; stroke: #1f77b4"/>
    <path d="M 163.851317 196.496294 
L 170.467917 196.496294 
" clip-path="url(#pd5fe7f40ef)" style="fill: none; stroke: #1f77b4"/>
    <path d="M 190.31772 198.751165 
L 196.934321 198.751165 
" clip-path="url(#pd5fe7f40ef)" style="fill: none; stroke: #1f77b4"/>
    <path d="M 216.784123 197.019981 
L 223.400724 197.019981 
" clip-path="url(#pd5fe7f40ef)" style="fill: none; stroke: #1f77b4"/>
    <path d="M 243.250526 199.265266 
L 249.867127 199.265266 
" clip-path="url(#pd5fe7f40ef)" style="fill: none; stroke: #1f77b4"/>
    <path d="M 269.716929 198.540809 
L 276.33353 198.540809 
" clip-path="url(#pd5fe7f40ef)" style="fill: none; stroke: #1f77b4"/>
    <path d="M 296.183333 199.274361 
L 302.799933 199.274361 
" clip-path="url(#pd5fe7f40ef)" style="fill: none; stroke: #1f77b4"/>
    <path d="M 322.649736 199.385936 
L 329.266336 199.385936 
" clip-path="url(#pd5fe7f40ef)" style="fill: none; stroke: #1f77b4"/>
    <path d="M 349.116139 200.01813 
L 355.73274 200.01813 
" clip-path="url(#pd5fe7f40ef)" style="fill: none; stroke: #1f77b4"/>
    <path d="M 375.582542 199.175619 
L 382.199143 199.175619 
" clip-path="url(#pd5fe7f40ef)" style="fill: none; stroke: #1f77b4"/>
   </g>
   <g id="LineCollection_3">
    <path d="M 87.760408 190.987484 
L 87.760408 94.335268 
" clip-path="url(#pd5fe7f40ef)" style="fill: none; stroke: #1f77b4"/>
    <path d="M 114.226811 192.101497 
L 114.226811 105.438797 
" clip-path="url(#pd5fe7f40ef)" style="fill: none; stroke: #1f77b4"/>
    <path d="M 140.693214 195.852915 
L 140.693214 100.642421 
" clip-path="url(#pd5fe7f40ef)" style="fill: none; stroke: #1f77b4"/>
    <path d="M 167.159617 196.496294 
L 167.159617 143.815658 
" clip-path="url(#pd5fe7f40ef)" style="fill: none; stroke: #1f77b4"/>
    <path d="M 193.62602 198.751165 
L 193.62602 146.938349 
" clip-path="url(#pd5fe7f40ef)" style="fill: none; stroke: #1f77b4"/>
    <path d="M 220.092423 197.019981 
L 220.092423 173.077659 
" clip-path="url(#pd5fe7f40ef)" style="fill: none; stroke: #1f77b4"/>
    <path d="M 246.558827 199.265266 
L 246.558827 163.207804 
" clip-path="url(#pd5fe7f40ef)" style="fill: none; stroke: #1f77b4"/>
    <path d="M 273.02523 198.540809 
L 273.02523 172.325285 
" clip-path="url(#pd5fe7f40ef)" style="fill: none; stroke: #1f77b4"/>
    <path d="M 299.491633 199.274361 
L 299.491633 165.93492 
" clip-path="url(#pd5fe7f40ef)" style="fill: none; stroke: #1f77b4"/>
    <path d="M 325.958036 199.385936 
L 325.958036 177.11981 
" clip-path="url(#pd5fe7f40ef)" style="fill: none; stroke: #1f77b4"/>
    <path d="M 352.424439 200.01813 
L 352.424439 178.977512 
" clip-path="url(#pd5fe7f40ef)" style="fill: none; stroke: #1f77b4"/>
    <path d="M 378.890842 199.175619 
L 378.890842 182.149591 
" clip-path="url(#pd5fe7f40ef)" style="fill: none; stroke: #1f77b4"/>
   </g>
   <g id="LineCollection_4">
    <path d="M 84.452107 169.044892 
L 91.068708 169.044892 
" clip-path="url(#pd5fe7f40ef)" style="fill: none; stroke: #1f77b4"/>
    <path d="M 110.91851 178.271097 
L 117.535111 178.271097 
" clip-path="url(#pd5fe7f40ef)" style="fill: none; stroke: #1f77b4"/>
    <path d="M 137.384914 179.93328 
L 144.001514 179.93328 
" clip-path="url(#pd5fe7f40ef)" style="fill: none; stroke: #1f77b4"/>
    <path d="M 163.851317 184.228829 
L 170.467917 184.228829 
" clip-path="url(#pd5fe7f40ef)" style="fill: none; stroke: #1f77b4"/>
    <path d="M 190.31772 188.498634 
L 196.934321 188.498634 
" clip-path="url(#pd5fe7f40ef)" style="fill: none; stroke: #1f77b4"/>
    <path d="M 216.784123 187.616282 
L 223.400724 187.616282 
" clip-path="url(#pd5fe7f40ef)" style="fill: none; stroke: #1f77b4"/>
    <path d="M 243.250526 190.513549 
L 249.867127 190.513549 
" clip-path="url(#pd5fe7f40ef)" style="fill: none; stroke: #1f77b4"/>
    <path d="M 269.716929 190.739295 
L 276.33353 190.739295 
" clip-path="url(#pd5fe7f40ef)" style="fill: none; stroke: #1f77b4"/>
    <path d="M 296.183333 192.154462 
L 302.799933 192.154462 
" clip-path="url(#pd5fe7f40ef)" style="fill: none; stroke: #1f77b4"/>
    <path d="M 322.649736 192.008517 
L 329.266336 192.008517 
" clip-path="url(#pd5fe7f40ef)" style="fill: none; stroke: #1f77b4"/>
    <path d="M 349.116139 193.116477 
L 355.73274 193.116477 
" clip-path="url(#pd5fe7f40ef)" style="fill: none; stroke: #1f77b4"/>
    <path d="M 375.582542 193.850703 
L 382.199143 193.850703 
" clip-path="url(#pd5fe7f40ef)" style="fill: none; stroke: #1f77b4"/>
   </g>
   <g id="patch_3">
    <path d="M 65.925625 224.64 
L 65.925625 7.2 
" style="fill: none; stroke: #000000; stroke-width: 0.8; stroke-linejoin: miter; stroke-linecap: square"/>
   </g>
   <g id="patch_4">
    <path d="M 400.725625 224.64 
L 400.725625 7.2 
" style="fill: none; stroke: #000000; stroke-width: 0.8; stroke-linejoin: miter; stroke-linecap: square"/>
   </g>
   <g id="patch_5">
    <path d="M 65.925625 224.64 
L 400.725625 224.64 
" style="fill: none; stroke: #000000; stroke-width: 0.8; stroke-linejoin: miter; stroke-linecap: square"/>
   </g>
   <g id="patch_6">
    <path d="M 65.925625 7.2 
L 400.725625 7.2 
" style="fill: none; stroke: #000000; stroke-width: 0.8; stroke-linejoin: miter; stroke-linecap: square"/>
   </g>
  </g>
 </g>
 <defs>
  <clipPath id="pd5fe7f40ef">
   <rect x="65.925625" y="7.2" width="334.8" height="217.44"/>
  </clipPath>
 </defs>
</svg>
