<?xml version="1.0" encoding="utf-8" standalone="no"?>
<!DOCTYPE svg PUBLIC "-//W3C//DTD SVG 1.1//EN"
  "http://www.w3.org/Graphics/SVG/1.1/DTD/svg11.dtd">
<svg xmlns:xlink="http://www.w3.org/1999/xlink" width="389.05375pt" height="287.452969pt" viewBox="0 0 389.05375 287.452969" xmlns="http://www.w3.org/2000/svg" version="1.1">
 <metadata>
  <rdf:RDF xmlns:dc="http://purl.org/dc/elements/1.1/" xmlns:cc="http://creativecommons.org/ns#" xmlns:rdf="http://www.w3.org/1999/02/22-rdf-syntax-ns#">
   <cc:Work>
    <dc:type rdf:resource="http://purl.org/dc/dcmitype/StillImage"/>
    <dc:date>2024-02-19T10:46:43.317597</dc:date>
    <dc:format>image/svg+xml</dc:format>
    <dc:creator>
     <cc:Agent>
      <dc:title>Matplotlib v3.7.2, https://matplotlib.org/</dc:title>
     </cc:Agent>
    </dc:creator>
   </cc:Work>
  </rdf:RDF>
 </metadata>
 <defs>
  <style type="text/css">*{stroke-linejoin: round; stroke-linecap: butt}</style>
 </defs>
 <g id="figure_1">
  <g id="patch_1">
   <path d="M 0 287.452969 
L 389.05375 287.452969 
L 389.05375 0 
L 0 0 
z
" style="fill: #ffffff"/>
  </g>
  <g id="axes_1">
   <g id="patch_2">
    <path d="M 47.05375 232.513594 
L 381.85375 232.513594 
L 381.85375 15.073594 
L 47.05375 15.073594 
z
" style="fill: #ffffff"/>
   </g>
   <g id="line2d_1">
    <path d="M 68.483435 198.538594 
L 366.635568 198.538594 
" clip-path="url(#p1974ab6c44)" style="fill: none; stroke-dasharray: 7.4,3.2; stroke-dashoffset: 0; stroke: #ff0000; stroke-opacity: 0.7; stroke-width: 2"/>
   </g>
   <g id="PolyCollection_1">
    <path d="M 70.863663 197.79837 
L 66.103206 197.79837 
L 65.818415 197.28916 
L 65.525695 196.779949 
L 65.22851 196.270738 
L 64.930455 195.761528 
L 64.635131 195.252317 
L 64.346039 194.743107 
L 64.066481 194.233896 
L 63.799496 193.724686 
L 63.547819 193.215475 
L 63.313861 192.706264 
L 63.09972 192.197054 
L 62.90721 191.687843 
L 62.737891 191.178633 
L 62.593106 190.669422 
L 62.474016 190.160212 
L 62.381613 189.651001 
L 62.316727 189.14179 
L 62.280015 188.63258 
L 62.271932 188.123369 
L 62.292702 187.614159 
L 62.342276 187.104948 
L 62.420299 186.595737 
L 62.526073 186.086527 
L 62.658541 185.577316 
L 62.816277 185.068106 
L 62.997487 184.558895 
L 63.200027 184.049685 
L 63.421432 183.540474 
L 63.658956 183.031263 
L 63.909618 182.522053 
L 64.170263 182.012842 
L 64.437627 181.503632 
L 64.708412 180.994421 
L 64.979362 180.48521 
L 65.247352 179.976 
L 65.509465 179.466789 
L 65.763069 178.957579 
L 66.005892 178.448368 
L 66.236067 177.939158 
L 66.452171 177.429947 
L 66.653232 176.920736 
L 66.838715 176.411526 
L 67.008486 175.902315 
L 67.162754 175.393105 
L 67.301997 174.883894 
L 67.426886 174.374684 
L 67.538205 173.865473 
L 67.636777 173.356262 
L 67.723413 172.847052 
L 67.79887 172.337841 
L 67.863833 171.828631 
L 67.918918 171.31942 
L 67.964693 170.810209 
L 68.001704 170.300999 
L 68.030515 169.791788 
L 68.051746 169.282578 
L 68.066104 168.773367 
L 68.074404 168.264157 
L 68.077577 167.754946 
L 68.076661 167.245735 
L 68.072779 166.736525 
L 68.067106 166.227314 
L 68.060822 165.718104 
L 68.055062 165.208893 
L 68.050865 164.699682 
L 68.049127 164.190472 
L 68.050562 163.681261 
L 68.05567 163.172051 
L 68.064722 162.66284 
L 68.077757 162.15363 
L 68.09459 161.644419 
L 68.114835 161.135208 
L 68.137935 160.625998 
L 68.163203 160.116787 
L 68.189863 159.607577 
L 68.217093 159.098366 
L 68.244067 158.589156 
L 68.269993 158.079945 
L 68.294144 157.570734 
L 68.315882 157.061524 
L 68.334678 156.552313 
L 68.350123 156.043103 
L 68.361936 155.533892 
L 68.369964 155.024681 
L 68.374183 154.515471 
L 68.374697 154.00626 
L 68.37173 153.49705 
L 68.365622 152.987839 
L 68.356819 152.478629 
L 68.345864 151.969418 
L 68.333375 151.460207 
L 68.320033 150.950997 
L 68.30655 150.441786 
L 68.293643 149.932576 
L 68.282003 149.423365 
L 68.272257 148.914155 
L 68.264941 148.404944 
L 68.260469 147.895733 
L 68.259111 147.386523 
L 68.707758 147.386523 
L 68.707758 147.386523 
L 68.706401 147.895733 
L 68.701929 148.404944 
L 68.694613 148.914155 
L 68.684867 149.423365 
L 68.673226 149.932576 
L 68.660319 150.441786 
L 68.646836 150.950997 
L 68.633494 151.460207 
L 68.621006 151.969418 
L 68.61005 152.478629 
L 68.601248 152.987839 
L 68.59514 153.49705 
L 68.592172 154.00626 
L 68.592686 154.515471 
L 68.596906 155.024681 
L 68.604933 155.533892 
L 68.616746 156.043103 
L 68.632191 156.552313 
L 68.650987 157.061524 
L 68.672725 157.570734 
L 68.696876 158.079945 
L 68.722802 158.589156 
L 68.749776 159.098366 
L 68.777006 159.607577 
L 68.803666 160.116787 
L 68.828934 160.625998 
L 68.852034 161.135208 
L 68.872279 161.644419 
L 68.889112 162.15363 
L 68.902147 162.66284 
L 68.911199 163.172051 
L 68.916307 163.681261 
L 68.917742 164.190472 
L 68.916004 164.699682 
L 68.911807 165.208893 
L 68.906047 165.718104 
L 68.899763 166.227314 
L 68.89409 166.736525 
L 68.890209 167.245735 
L 68.889292 167.754946 
L 68.892465 168.264157 
L 68.900765 168.773367 
L 68.915123 169.282578 
L 68.936354 169.791788 
L 68.965165 170.300999 
L 69.002176 170.810209 
L 69.047951 171.31942 
L 69.103037 171.828631 
L 69.168 172.337841 
L 69.243456 172.847052 
L 69.330092 173.356262 
L 69.428665 173.865473 
L 69.539983 174.374684 
L 69.664872 174.883894 
L 69.804115 175.393105 
L 69.958383 175.902315 
L 70.128155 176.411526 
L 70.313638 176.920736 
L 70.514698 177.429947 
L 70.730802 177.939158 
L 70.960977 178.448368 
L 71.2038 178.957579 
L 71.457405 179.466789 
L 71.719517 179.976 
L 71.987507 180.48521 
L 72.258458 180.994421 
L 72.529242 181.503632 
L 72.796606 182.012842 
L 73.057251 182.522053 
L 73.307913 183.031263 
L 73.545437 183.540474 
L 73.766842 184.049685 
L 73.969382 184.558895 
L 74.150592 185.068106 
L 74.308328 185.577316 
L 74.440796 186.086527 
L 74.546571 186.595737 
L 74.624593 187.104948 
L 74.674167 187.614159 
L 74.694937 188.123369 
L 74.686854 188.63258 
L 74.650142 189.14179 
L 74.585256 189.651001 
L 74.492853 190.160212 
L 74.373763 190.669422 
L 74.228979 191.178633 
L 74.059659 191.687843 
L 73.867149 192.197054 
L 73.653009 192.706264 
L 73.41905 193.215475 
L 73.167373 193.724686 
L 72.900389 194.233896 
L 72.620831 194.743107 
L 72.331738 195.252317 
L 72.036414 195.761528 
L 71.738359 196.270738 
L 71.441174 196.779949 
L 71.148455 197.28916 
L 70.863663 197.79837 
z
" clip-path="url(#p1974ab6c44)" style="fill: #1f77b4; fill-opacity: 0.3"/>
   </g>
   <g id="PolyCollection_2">
    <path d="M 96.489943 200.487758 
L 90.168948 200.487758 
L 89.74515 199.822948 
L 89.318947 199.158137 
L 88.901238 198.493327 
L 88.503539 197.828516 
L 88.13744 197.163705 
L 87.814008 196.498895 
L 87.543194 195.834084 
L 87.333285 195.169274 
L 87.190433 194.504463 
L 87.118316 193.839653 
L 87.117943 193.174842 
L 87.187636 192.510031 
L 87.32318 191.845221 
L 87.518131 191.18041 
L 87.764252 190.5156 
L 88.05205 189.850789 
L 88.371341 189.185979 
L 88.711831 188.521168 
L 89.06364 187.856358 
L 89.417742 187.191547 
L 89.766307 186.526736 
L 90.102917 185.861926 
L 90.422666 185.197115 
L 90.722149 184.532305 
L 90.999357 183.867494 
L 91.25351 183.202684 
L 91.484833 182.537873 
L 91.694316 181.873063 
L 91.883459 181.208252 
L 92.054045 180.543441 
L 92.20793 179.878631 
L 92.346878 179.21382 
L 92.472442 178.54901 
L 92.585893 177.884199 
L 92.688191 177.219389 
L 92.780007 176.554578 
L 92.861765 175.889767 
L 92.933717 175.224957 
L 92.996017 174.560146 
L 93.048804 173.895336 
L 93.092273 173.230525 
L 93.12673 172.565715 
L 93.152634 171.900904 
L 93.170619 171.236094 
L 93.181498 170.571283 
L 93.186254 169.906472 
L 93.186009 169.241662 
L 93.181992 168.576851 
L 93.175483 167.912041 
L 93.167761 167.24723 
L 93.160042 166.58242 
L 93.153413 165.917609 
L 93.14878 165.252798 
L 93.146821 164.587988 
L 93.147953 163.923177 
L 93.152329 163.258367 
L 93.159841 162.593556 
L 93.170155 161.928746 
L 93.182762 161.263935 
L 93.197032 160.599125 
L 93.212283 159.934314 
L 93.22784 159.269503 
L 93.243088 158.604693 
L 93.257514 157.939882 
L 93.270727 157.275072 
L 93.282471 156.610261 
L 93.292616 155.945451 
L 93.301144 155.28064 
L 93.308126 154.615829 
L 93.313694 153.951019 
L 93.318018 153.286208 
L 93.321281 152.621398 
L 93.323662 151.956587 
L 93.325317 151.291777 
L 93.326377 150.626966 
L 93.326932 149.962156 
L 93.327035 149.297345 
L 93.326696 148.632534 
L 93.325881 147.967724 
L 93.324519 147.302913 
L 93.322496 146.638103 
L 93.319668 145.973292 
L 93.315863 145.308482 
L 93.310901 144.643671 
L 93.304601 143.97886 
L 93.296811 143.31405 
L 93.287428 142.649239 
L 93.276426 141.984429 
L 93.263882 141.319618 
L 93.249992 140.654808 
L 93.235086 139.989997 
L 93.219628 139.325187 
L 93.204197 138.660376 
L 93.189458 137.995565 
L 93.176118 137.330755 
L 93.164869 136.665944 
L 93.156333 136.001134 
L 93.151 135.336323 
L 93.149186 134.671513 
L 93.509706 134.671513 
L 93.509706 134.671513 
L 93.507892 135.336323 
L 93.502559 136.001134 
L 93.494022 136.665944 
L 93.482773 137.330755 
L 93.469433 137.995565 
L 93.454694 138.660376 
L 93.439263 139.325187 
L 93.423805 139.989997 
L 93.4089 140.654808 
L 93.39501 141.319618 
L 93.382465 141.984429 
L 93.371464 142.649239 
L 93.362081 143.31405 
L 93.354291 143.97886 
L 93.347991 144.643671 
L 93.343028 145.308482 
L 93.339224 145.973292 
L 93.336395 146.638103 
L 93.334373 147.302913 
L 93.33301 147.967724 
L 93.332196 148.632534 
L 93.331856 149.297345 
L 93.331959 149.962156 
L 93.332515 150.626966 
L 93.333574 151.291777 
L 93.33523 151.956587 
L 93.33761 152.621398 
L 93.340874 153.286208 
L 93.345198 153.951019 
L 93.350766 154.615829 
L 93.357747 155.28064 
L 93.366276 155.945451 
L 93.376421 156.610261 
L 93.388165 157.275072 
L 93.401378 157.939882 
L 93.415803 158.604693 
L 93.431052 159.269503 
L 93.446608 159.934314 
L 93.461859 160.599125 
L 93.47613 161.263935 
L 93.488736 161.928746 
L 93.499051 162.593556 
L 93.506562 163.258367 
L 93.510938 163.923177 
L 93.512071 164.587988 
L 93.510111 165.252798 
L 93.505479 165.917609 
L 93.49885 166.58242 
L 93.49113 167.24723 
L 93.483409 167.912041 
L 93.4769 168.576851 
L 93.472882 169.241662 
L 93.472638 169.906472 
L 93.477393 170.571283 
L 93.488273 171.236094 
L 93.506258 171.900904 
L 93.532161 172.565715 
L 93.566618 173.230525 
L 93.610087 173.895336 
L 93.662875 174.560146 
L 93.725175 175.224957 
L 93.797127 175.889767 
L 93.878885 176.554578 
L 93.970701 177.219389 
L 94.072999 177.884199 
L 94.186449 178.54901 
L 94.312013 179.21382 
L 94.450961 179.878631 
L 94.604846 180.543441 
L 94.775432 181.208252 
L 94.964575 181.873063 
L 95.174058 182.537873 
L 95.405382 183.202684 
L 95.659535 183.867494 
L 95.936743 184.532305 
L 96.236225 185.197115 
L 96.555974 185.861926 
L 96.892585 186.526736 
L 97.24115 187.191547 
L 97.595252 187.856358 
L 97.94706 188.521168 
L 98.287551 189.185979 
L 98.606842 189.850789 
L 98.894639 190.5156 
L 99.140761 191.18041 
L 99.335711 191.845221 
L 99.471255 192.510031 
L 99.540949 193.174842 
L 99.540575 193.839653 
L 99.468458 194.504463 
L 99.325607 195.169274 
L 99.115698 195.834084 
L 98.844884 196.498895 
L 98.521451 197.163705 
L 98.155352 197.828516 
L 97.757654 198.493327 
L 97.339944 199.158137 
L 96.913741 199.822948 
L 96.489943 200.487758 
z
" clip-path="url(#p1974ab6c44)" style="fill: #1f77b4; fill-opacity: 0.3"/>
   </g>
   <g id="PolyCollection_3">
    <path d="M 121.643701 201.788413 
L 114.707213 201.788413 
L 114.254504 201.145373 
L 113.809428 200.502333 
L 113.385323 199.859293 
L 112.995678 199.216253 
L 112.653462 198.573213 
L 112.370464 197.930174 
L 112.156648 197.287134 
L 112.019581 196.644094 
L 111.963954 196.001054 
L 111.991257 195.358014 
L 112.099626 194.714974 
L 112.283902 194.071934 
L 112.535921 193.428894 
L 112.845009 192.785854 
L 113.198669 192.142815 
L 113.58338 191.499775 
L 113.985455 190.856735 
L 114.391853 190.213695 
L 114.79089 189.570655 
L 115.172775 188.927615 
L 115.529952 188.284575 
L 115.85722 187.641535 
L 116.151672 186.998495 
L 116.412473 186.355456 
L 116.64052 185.712416 
L 116.838043 185.069376 
L 117.008185 184.426336 
L 117.154589 183.783296 
L 117.281037 183.140256 
L 117.391144 182.497216 
L 117.488125 181.854176 
L 117.574652 181.211136 
L 117.652777 180.568097 
L 117.723937 179.925057 
L 117.789023 179.282017 
L 117.84848 178.638977 
L 117.90245 177.995937 
L 117.950902 177.352897 
L 117.993763 176.709857 
L 118.031013 176.066817 
L 118.062747 175.423777 
L 118.089206 174.780738 
L 118.110772 174.137698 
L 118.127941 173.494658 
L 118.141286 172.851618 
L 118.151407 172.208578 
L 118.158897 171.565538 
L 118.164304 170.922498 
L 118.168111 170.279458 
L 118.170727 169.636418 
L 118.172479 168.993379 
L 118.173625 168.350339 
L 118.174355 167.707299 
L 118.174809 167.064259 
L 118.175085 166.421219 
L 118.175248 165.778179 
L 118.175342 165.135139 
L 118.175395 164.492099 
L 118.175425 163.849059 
L 118.17544 163.20602 
L 118.175449 162.56298 
L 118.175453 161.91994 
L 118.175455 161.2769 
L 118.175456 160.63386 
L 118.175456 159.99082 
L 118.175456 159.34778 
L 118.175456 158.70474 
L 118.175455 158.0617 
L 118.175452 157.418661 
L 118.175448 156.775621 
L 118.175439 156.132581 
L 118.175423 155.489541 
L 118.175393 154.846501 
L 118.175342 154.203461 
L 118.175252 153.560421 
L 118.175102 152.917381 
L 118.174855 152.274341 
L 118.174461 151.631302 
L 118.173848 150.988262 
L 118.172916 150.345222 
L 118.171537 149.702182 
L 118.16955 149.059142 
L 118.166762 148.416102 
L 118.162955 147.773062 
L 118.157898 147.130022 
L 118.151365 146.486982 
L 118.143167 145.843943 
L 118.133183 145.200903 
L 118.121392 144.557863 
L 118.107913 143.914823 
L 118.093029 143.271783 
L 118.077194 142.628743 
L 118.061029 141.985703 
L 118.045292 141.342663 
L 118.030818 140.699623 
L 118.018458 140.056584 
L 118.008987 139.413544 
L 118.003032 138.770504 
L 118.001001 138.127464 
L 118.349913 138.127464 
L 118.349913 138.127464 
L 118.347881 138.770504 
L 118.341927 139.413544 
L 118.332456 140.056584 
L 118.320095 140.699623 
L 118.305622 141.342663 
L 118.289884 141.985703 
L 118.27372 142.628743 
L 118.257885 143.271783 
L 118.243 143.914823 
L 118.229522 144.557863 
L 118.217731 145.200903 
L 118.207746 145.843943 
L 118.199549 146.486982 
L 118.193016 147.130022 
L 118.187958 147.773062 
L 118.184151 148.416102 
L 118.181364 149.059142 
L 118.179377 149.702182 
L 118.177998 150.345222 
L 118.177066 150.988262 
L 118.176452 151.631302 
L 118.176058 152.274341 
L 118.175812 152.917381 
L 118.175662 153.560421 
L 118.175572 154.203461 
L 118.17552 154.846501 
L 118.175491 155.489541 
L 118.175475 156.132581 
L 118.175466 156.775621 
L 118.175461 157.418661 
L 118.175459 158.0617 
L 118.175458 158.70474 
L 118.175458 159.34778 
L 118.175458 159.99082 
L 118.175458 160.63386 
L 118.175459 161.2769 
L 118.175461 161.91994 
L 118.175465 162.56298 
L 118.175473 163.20602 
L 118.175489 163.849059 
L 118.175518 164.492099 
L 118.175571 165.135139 
L 118.175666 165.778179 
L 118.175829 166.421219 
L 118.176105 167.064259 
L 118.176559 167.707299 
L 118.177289 168.350339 
L 118.178435 168.993379 
L 118.180187 169.636418 
L 118.182802 170.279458 
L 118.18661 170.922498 
L 118.192017 171.565538 
L 118.199507 172.208578 
L 118.209628 172.851618 
L 118.222972 173.494658 
L 118.240142 174.137698 
L 118.261708 174.780738 
L 118.288167 175.423777 
L 118.319901 176.066817 
L 118.357151 176.709857 
L 118.400012 177.352897 
L 118.448464 177.995937 
L 118.502434 178.638977 
L 118.561891 179.282017 
L 118.626976 179.925057 
L 118.698137 180.568097 
L 118.776262 181.211136 
L 118.862788 181.854176 
L 118.95977 182.497216 
L 119.069877 183.140256 
L 119.196325 183.783296 
L 119.342729 184.426336 
L 119.512871 185.069376 
L 119.710394 185.712416 
L 119.93844 186.355456 
L 120.199241 186.998495 
L 120.493694 187.641535 
L 120.820962 188.284575 
L 121.178138 188.927615 
L 121.560024 189.570655 
L 121.95906 190.213695 
L 122.365458 190.856735 
L 122.767533 191.499775 
L 123.152245 192.142815 
L 123.505905 192.785854 
L 123.814993 193.428894 
L 124.067012 194.071934 
L 124.251288 194.714974 
L 124.359657 195.358014 
L 124.38696 196.001054 
L 124.331333 196.644094 
L 124.194265 197.287134 
L 123.98045 197.930174 
L 123.697452 198.573213 
L 123.355236 199.216253 
L 122.96559 199.859293 
L 122.541486 200.502333 
L 122.09641 201.145373 
L 121.643701 201.788413 
z
" clip-path="url(#p1974ab6c44)" style="fill: #1f77b4; fill-opacity: 0.3"/>
   </g>
   <g id="PolyCollection_4">
    <path d="M 144.547613 204.664794 
L 141.495323 204.664794 
L 141.199444 204.235664 
L 140.869066 203.806535 
L 140.505765 203.377405 
L 140.112998 202.948276 
L 139.696419 202.519146 
L 139.264076 202.090017 
L 138.826444 201.660887 
L 138.396244 201.231758 
L 137.988017 200.802628 
L 137.61744 200.373499 
L 137.300414 199.944369 
L 137.051989 199.51524 
L 136.885202 199.08611 
L 136.809965 198.656981 
L 136.832124 198.227851 
L 136.952809 197.798722 
L 137.168174 197.369592 
L 137.469567 196.940463 
L 137.844139 196.511333 
L 138.2758 196.082204 
L 138.746443 195.653074 
L 139.237277 195.223945 
L 139.730127 194.794815 
L 140.208571 194.365686 
L 140.658816 193.936556 
L 141.070257 193.507427 
L 141.435705 193.078297 
L 141.75132 192.649168 
L 142.016303 192.220038 
L 142.232413 191.790909 
L 142.4034 191.361779 
L 142.534409 190.93265 
L 142.631408 190.50352 
L 142.700684 190.074391 
L 142.748421 189.645261 
L 142.780364 189.216132 
L 142.801578 188.787002 
L 142.816292 188.357873 
L 142.827821 187.928743 
L 142.838557 187.499614 
L 142.850028 187.070484 
L 142.863001 186.641354 
L 142.87763 186.212225 
L 142.893618 185.783095 
L 142.910388 185.353966 
L 142.927241 184.924836 
L 142.943484 184.495707 
L 142.958528 184.066577 
L 142.971945 183.637448 
L 142.983486 183.208318 
L 142.993077 182.779189 
L 143.000787 182.350059 
L 143.006787 181.92093 
L 143.011312 181.4918 
L 143.014622 181.062671 
L 143.016971 180.633541 
L 143.01859 180.204412 
L 143.019673 179.775282 
L 143.020377 179.346153 
L 143.020822 178.917023 
L 143.021095 178.487894 
L 143.021258 178.058764 
L 143.021353 177.629635 
L 143.021407 177.200505 
L 143.021436 176.771376 
L 143.021452 176.342246 
L 143.02146 175.913117 
L 143.021463 175.483987 
L 143.021465 175.054858 
L 143.021464 174.625728 
L 143.021461 174.196599 
L 143.021455 173.767469 
L 143.021442 173.33834 
L 143.021417 172.90921 
L 143.021372 172.480081 
L 143.021291 172.050951 
L 143.021151 171.621822 
L 143.020914 171.192692 
L 143.020525 170.763563 
L 143.019905 170.334433 
L 143.018944 169.905304 
L 143.017495 169.476174 
L 143.015375 169.047045 
L 143.012363 168.617915 
L 143.008211 168.188786 
L 143.002657 167.759656 
L 142.995461 167.330527 
L 142.986431 166.901397 
L 142.975474 166.472268 
L 142.962634 166.043138 
L 142.948136 165.614009 
L 142.932403 165.184879 
L 142.916062 164.75575 
L 142.899914 164.32662 
L 142.884879 163.897491 
L 142.87191 163.468361 
L 142.8619 163.039232 
L 142.855575 162.610102 
L 142.853411 162.180973 
L 143.189525 162.180973 
L 143.189525 162.180973 
L 143.187361 162.610102 
L 143.181036 163.039232 
L 143.171026 163.468361 
L 143.158057 163.897491 
L 143.143022 164.32662 
L 143.126874 164.75575 
L 143.110533 165.184879 
L 143.0948 165.614009 
L 143.080302 166.043138 
L 143.067462 166.472268 
L 143.056505 166.901397 
L 143.047475 167.330527 
L 143.040279 167.759656 
L 143.034725 168.188786 
L 143.030573 168.617915 
L 143.027561 169.047045 
L 143.025441 169.476174 
L 143.023992 169.905304 
L 143.023031 170.334433 
L 143.022411 170.763563 
L 143.022022 171.192692 
L 143.021785 171.621822 
L 143.021645 172.050951 
L 143.021564 172.480081 
L 143.021519 172.90921 
L 143.021494 173.33834 
L 143.021481 173.767469 
L 143.021475 174.196599 
L 143.021472 174.625728 
L 143.021471 175.054858 
L 143.021472 175.483987 
L 143.021476 175.913117 
L 143.021484 176.342246 
L 143.0215 176.771376 
L 143.021529 177.200505 
L 143.021583 177.629635 
L 143.021678 178.058764 
L 143.021841 178.487894 
L 143.022114 178.917023 
L 143.022559 179.346153 
L 143.023263 179.775282 
L 143.024346 180.204412 
L 143.025964 180.633541 
L 143.028314 181.062671 
L 143.031624 181.4918 
L 143.036149 181.92093 
L 143.042149 182.350059 
L 143.049859 182.779189 
L 143.05945 183.208318 
L 143.070991 183.637448 
L 143.084408 184.066577 
L 143.099452 184.495707 
L 143.115695 184.924836 
L 143.132548 185.353966 
L 143.149318 185.783095 
L 143.165306 186.212225 
L 143.179935 186.641354 
L 143.192908 187.070484 
L 143.204379 187.499614 
L 143.215115 187.928743 
L 143.226644 188.357873 
L 143.241358 188.787002 
L 143.262572 189.216132 
L 143.294515 189.645261 
L 143.342252 190.074391 
L 143.411528 190.50352 
L 143.508527 190.93265 
L 143.639536 191.361779 
L 143.810523 191.790909 
L 144.026633 192.220038 
L 144.291616 192.649168 
L 144.607231 193.078297 
L 144.972679 193.507427 
L 145.38412 193.936556 
L 145.834365 194.365686 
L 146.312809 194.794815 
L 146.805659 195.223945 
L 147.296493 195.653074 
L 147.767136 196.082204 
L 148.198797 196.511333 
L 148.573369 196.940463 
L 148.874762 197.369592 
L 149.090127 197.798722 
L 149.210812 198.227851 
L 149.232971 198.656981 
L 149.157734 199.08611 
L 148.990947 199.51524 
L 148.742522 199.944369 
L 148.425496 200.373499 
L 148.054919 200.802628 
L 147.646692 201.231758 
L 147.216492 201.660887 
L 146.77886 202.090017 
L 146.346517 202.519146 
L 145.929938 202.948276 
L 145.537171 203.377405 
L 145.17387 203.806535 
L 144.843492 204.235664 
L 144.547613 204.664794 
z
" clip-path="url(#p1974ab6c44)" style="fill: #1f77b4; fill-opacity: 0.3"/>
   </g>
   <g id="PolyCollection_5">
    <path d="M 170.684179 204.906732 
L 165.050779 204.906732 
L 164.732943 204.737577 
L 164.408539 204.568422 
L 164.082211 204.399267 
L 163.758941 204.230112 
L 163.443881 204.060957 
L 163.142175 203.891802 
L 162.858768 203.722646 
L 162.598225 203.553491 
L 162.364567 203.384336 
L 162.161127 203.215181 
L 161.990449 203.046026 
L 161.854216 202.876871 
L 161.753232 202.707716 
L 161.687438 202.538561 
L 161.655976 202.369406 
L 161.657286 202.20025 
L 161.68922 202.031095 
L 161.749192 201.86194 
L 161.834315 201.692785 
L 161.941553 201.52363 
L 162.06785 201.354475 
L 162.210248 201.18532 
L 162.365977 201.016165 
L 162.532518 200.84701 
L 162.707643 200.677854 
L 162.889418 200.508699 
L 163.076197 200.339544 
L 163.266582 200.170389 
L 163.459386 200.001234 
L 163.653576 199.832079 
L 163.848224 199.662924 
L 164.042462 199.493769 
L 164.235445 199.324613 
L 164.426331 199.155458 
L 164.614268 198.986303 
L 164.798406 198.817148 
L 164.977905 198.647993 
L 165.151972 198.478838 
L 165.319885 198.309683 
L 165.481025 198.140528 
L 165.634907 197.971373 
L 165.781197 197.802217 
L 165.919723 197.633062 
L 166.050473 197.463907 
L 166.173581 197.294752 
L 166.289303 197.125597 
L 166.397989 196.956442 
L 166.500043 196.787287 
L 166.595889 196.618132 
L 166.685938 196.448977 
L 166.77056 196.279821 
L 166.850067 196.110666 
L 166.924703 195.941511 
L 166.994647 195.772356 
L 167.060023 195.603201 
L 167.120918 195.434046 
L 167.177401 195.264891 
L 167.229549 195.095736 
L 167.277465 194.92658 
L 167.321296 194.757425 
L 167.361242 194.58827 
L 167.39756 194.419115 
L 167.430555 194.24996 
L 167.460571 194.080805 
L 167.487969 193.91165 
L 167.513112 193.742495 
L 167.536333 193.57334 
L 167.557919 193.404184 
L 167.578094 193.235029 
L 167.596996 193.065874 
L 167.614679 192.896719 
L 167.631107 192.727564 
L 167.646158 192.558409 
L 167.65964 192.389254 
L 167.671302 192.220099 
L 167.680859 192.050943 
L 167.688016 191.881788 
L 167.692486 191.712633 
L 167.694022 191.543478 
L 167.692436 191.374323 
L 167.687617 191.205168 
L 167.679553 191.036013 
L 167.668338 190.866858 
L 167.654183 190.697703 
L 167.637416 190.528547 
L 167.61848 190.359392 
L 167.597918 190.190237 
L 167.576364 190.021082 
L 167.554517 189.851927 
L 167.533117 189.682772 
L 167.512916 189.513617 
L 167.494648 189.344462 
L 167.478996 189.175307 
L 167.466561 189.006151 
L 167.45784 188.836996 
L 167.453197 188.667841 
L 167.452853 188.498686 
L 167.456876 188.329531 
L 167.465178 188.160376 
L 168.26978 188.160376 
L 168.26978 188.160376 
L 168.278082 188.329531 
L 168.282105 188.498686 
L 168.281761 188.667841 
L 168.277118 188.836996 
L 168.268397 189.006151 
L 168.255963 189.175307 
L 168.24031 189.344462 
L 168.222042 189.513617 
L 168.201841 189.682772 
L 168.180441 189.851927 
L 168.158594 190.021082 
L 168.13704 190.190237 
L 168.116478 190.359392 
L 168.097542 190.528547 
L 168.080775 190.697703 
L 168.066621 190.866858 
L 168.055406 191.036013 
L 168.047341 191.205168 
L 168.042522 191.374323 
L 168.040936 191.543478 
L 168.042472 191.712633 
L 168.046943 191.881788 
L 168.054099 192.050943 
L 168.063657 192.220099 
L 168.075319 192.389254 
L 168.0888 192.558409 
L 168.103851 192.727564 
L 168.120279 192.896719 
L 168.137962 193.065874 
L 168.156865 193.235029 
L 168.177039 193.404184 
L 168.198626 193.57334 
L 168.221847 193.742495 
L 168.246989 193.91165 
L 168.274388 194.080805 
L 168.304403 194.24996 
L 168.337398 194.419115 
L 168.373716 194.58827 
L 168.413662 194.757425 
L 168.457494 194.92658 
L 168.50541 195.095736 
L 168.557557 195.264891 
L 168.61404 195.434046 
L 168.674935 195.603201 
L 168.740311 195.772356 
L 168.810256 195.941511 
L 168.884892 196.110666 
L 168.964398 196.279821 
L 169.04902 196.448977 
L 169.139069 196.618132 
L 169.234915 196.787287 
L 169.336969 196.956442 
L 169.445655 197.125597 
L 169.561378 197.294752 
L 169.684485 197.463907 
L 169.815235 197.633062 
L 169.953761 197.802217 
L 170.100051 197.971373 
L 170.253933 198.140528 
L 170.415073 198.309683 
L 170.582986 198.478838 
L 170.757053 198.647993 
L 170.936553 198.817148 
L 171.12069 198.986303 
L 171.308627 199.155458 
L 171.499513 199.324613 
L 171.692497 199.493769 
L 171.886734 199.662924 
L 172.081382 199.832079 
L 172.275572 200.001234 
L 172.468376 200.170389 
L 172.658762 200.339544 
L 172.84554 200.508699 
L 173.027315 200.677854 
L 173.20244 200.84701 
L 173.368981 201.016165 
L 173.52471 201.18532 
L 173.667108 201.354475 
L 173.793405 201.52363 
L 173.900643 201.692785 
L 173.985766 201.86194 
L 174.045738 202.031095 
L 174.077673 202.20025 
L 174.078982 202.369406 
L 174.047521 202.538561 
L 173.981727 202.707716 
L 173.880742 202.876871 
L 173.744509 203.046026 
L 173.573831 203.215181 
L 173.370392 203.384336 
L 173.136733 203.553491 
L 172.87619 203.722646 
L 172.592783 203.891802 
L 172.291077 204.060957 
L 171.976018 204.230112 
L 171.652748 204.399267 
L 171.32642 204.568422 
L 171.002015 204.737577 
L 170.684179 204.906732 
z
" clip-path="url(#p1974ab6c44)" style="fill: #1f77b4; fill-opacity: 0.3"/>
   </g>
   <g id="PolyCollection_6">
    <path d="M 193.92215 206.139175 
L 191.504831 206.139175 
L 191.360169 206.02161 
L 191.206097 205.904046 
L 191.043061 205.786481 
L 190.871697 205.668916 
L 190.692843 205.551351 
L 190.507545 205.433786 
L 190.317059 205.316222 
L 190.122831 205.198657 
L 189.926479 205.081092 
L 189.729751 204.963527 
L 189.534478 204.845963 
L 189.342515 204.728398 
L 189.155669 204.610833 
L 188.975633 204.493268 
L 188.803905 204.375703 
L 188.641723 204.258139 
L 188.49 204.140574 
L 188.349274 204.023009 
L 188.219675 203.905444 
L 188.10091 203.78788 
L 187.992269 203.670315 
L 187.892658 203.55275 
L 187.800656 203.435185 
L 187.714587 203.31762 
L 187.632626 203.200056 
L 187.552916 203.082491 
L 187.473691 202.964926 
L 187.393421 202.847361 
L 187.310937 202.729797 
L 187.225557 202.612232 
L 187.137188 202.494667 
L 187.046397 202.377102 
L 186.954441 202.259537 
L 186.863261 202.141973 
L 186.775415 202.024408 
L 186.693975 201.906843 
L 186.622369 201.789278 
L 186.564187 201.671714 
L 186.522973 201.554149 
L 186.501987 201.436584 
L 186.503997 201.319019 
L 186.531076 201.201454 
L 186.584455 201.08389 
L 186.664422 200.966325 
L 186.770296 200.84876 
L 186.900456 200.731195 
L 187.052453 200.613631 
L 187.223164 200.496066 
L 187.409006 200.378501 
L 187.606165 200.260936 
L 187.810838 200.143371 
L 188.019459 200.025807 
L 188.228894 199.908242 
L 188.436581 199.790677 
L 188.640621 199.673112 
L 188.839795 199.555548 
L 189.033528 199.437983 
L 189.2218 199.320418 
L 189.405007 199.202853 
L 189.583809 199.085288 
L 189.758967 198.967724 
L 189.931188 198.850159 
L 190.100998 198.732594 
L 190.268649 198.615029 
L 190.434072 198.497465 
L 190.596864 198.3799 
L 190.756327 198.262335 
L 190.911533 198.14477 
L 191.061409 198.027205 
L 191.204837 197.909641 
L 191.340753 197.792076 
L 191.468233 197.674511 
L 191.586557 197.556946 
L 191.695254 197.439382 
L 191.794117 197.321817 
L 191.883195 197.204252 
L 191.962759 197.086687 
L 192.033263 196.969122 
L 192.095284 196.851558 
L 192.149472 196.733993 
L 192.196492 196.616428 
L 192.236993 196.498863 
L 192.271572 196.381299 
L 192.300764 196.263734 
L 192.325041 196.146169 
L 192.344825 196.028604 
L 192.36051 195.911039 
L 192.372478 195.793475 
L 192.381135 195.67591 
L 192.38692 195.558345 
L 192.390324 195.44078 
L 192.391892 195.323216 
L 192.392217 195.205651 
L 192.391924 195.088086 
L 192.391646 194.970521 
L 192.391999 194.852956 
L 192.393543 194.735392 
L 192.396761 194.617827 
L 192.402028 194.500262 
L 193.024953 194.500262 
L 193.024953 194.500262 
L 193.030219 194.617827 
L 193.033437 194.735392 
L 193.034982 194.852956 
L 193.035334 194.970521 
L 193.035057 195.088086 
L 193.034764 195.205651 
L 193.035089 195.323216 
L 193.036657 195.44078 
L 193.040061 195.558345 
L 193.045845 195.67591 
L 193.054502 195.793475 
L 193.066471 195.911039 
L 193.082155 196.028604 
L 193.10194 196.146169 
L 193.126217 196.263734 
L 193.155408 196.381299 
L 193.189987 196.498863 
L 193.230488 196.616428 
L 193.277509 196.733993 
L 193.331696 196.851558 
L 193.393718 196.969122 
L 193.464222 197.086687 
L 193.543786 197.204252 
L 193.632863 197.321817 
L 193.731727 197.439382 
L 193.840424 197.556946 
L 193.958748 197.674511 
L 194.086227 197.792076 
L 194.222144 197.909641 
L 194.365572 198.027205 
L 194.515447 198.14477 
L 194.670653 198.262335 
L 194.830117 198.3799 
L 194.992909 198.497465 
L 195.158331 198.615029 
L 195.325983 198.732594 
L 195.495793 198.850159 
L 195.668014 198.967724 
L 195.843172 199.085288 
L 196.021974 199.202853 
L 196.205181 199.320418 
L 196.393452 199.437983 
L 196.587186 199.555548 
L 196.78636 199.673112 
L 196.990399 199.790677 
L 197.198087 199.908242 
L 197.407521 200.025807 
L 197.616143 200.143371 
L 197.820816 200.260936 
L 198.017974 200.378501 
L 198.203816 200.496066 
L 198.374528 200.613631 
L 198.526524 200.731195 
L 198.656685 200.84876 
L 198.762558 200.966325 
L 198.842526 201.08389 
L 198.895904 201.201454 
L 198.922983 201.319019 
L 198.924993 201.436584 
L 198.904008 201.554149 
L 198.862793 201.671714 
L 198.804612 201.789278 
L 198.733005 201.906843 
L 198.651565 202.024408 
L 198.56372 202.141973 
L 198.472539 202.259537 
L 198.380584 202.377102 
L 198.289792 202.494667 
L 198.201424 202.612232 
L 198.116044 202.729797 
L 198.03356 202.847361 
L 197.953289 202.964926 
L 197.874065 203.082491 
L 197.794354 203.200056 
L 197.712394 203.31762 
L 197.626325 203.435185 
L 197.534322 203.55275 
L 197.434712 203.670315 
L 197.326071 203.78788 
L 197.207305 203.905444 
L 197.077706 204.023009 
L 196.93698 204.140574 
L 196.785257 204.258139 
L 196.623075 204.375703 
L 196.451347 204.493268 
L 196.271311 204.610833 
L 196.084466 204.728398 
L 195.892503 204.845963 
L 195.69723 204.963527 
L 195.500502 205.081092 
L 195.304149 205.198657 
L 195.109922 205.316222 
L 194.919435 205.433786 
L 194.734138 205.551351 
L 194.555284 205.668916 
L 194.38392 205.786481 
L 194.220883 205.904046 
L 194.066811 206.02161 
L 193.92215 206.139175 
z
" clip-path="url(#p1974ab6c44)" style="fill: #1f77b4; fill-opacity: 0.3"/>
   </g>
   <g id="PolyCollection_7">
    <path d="M 218.450532 207.358338 
L 216.668471 207.358338 
L 216.589574 207.235227 
L 216.5061 207.112116 
L 216.417362 206.989004 
L 216.322537 206.865893 
L 216.220686 206.742782 
L 216.110788 206.61967 
L 215.991783 206.496559 
L 215.862622 206.373447 
L 215.722328 206.250336 
L 215.57006 206.127225 
L 215.405177 206.004113 
L 215.227303 205.881002 
L 215.036384 205.75789 
L 214.832736 205.634779 
L 214.617084 205.511668 
L 214.390586 205.388556 
L 214.154832 205.265445 
L 213.911841 205.142334 
L 213.664023 205.019222 
L 213.41413 204.896111 
L 213.165195 204.772999 
L 212.920449 204.649888 
L 212.683231 204.526777 
L 212.456891 204.403665 
L 212.244687 204.280554 
L 212.049691 204.157443 
L 211.874692 204.034331 
L 211.722118 203.91122 
L 211.593964 203.788108 
L 211.491744 203.664997 
L 211.416454 203.541886 
L 211.368559 203.418774 
L 211.347999 203.295663 
L 211.354209 203.172551 
L 211.386158 203.04944 
L 211.442401 202.926329 
L 211.521139 202.803217 
L 211.620289 202.680106 
L 211.737554 202.556995 
L 211.870501 202.433883 
L 212.016631 202.310772 
L 212.173445 202.18766 
L 212.33851 202.064549 
L 212.509511 201.941438 
L 212.6843 201.818326 
L 212.860928 201.695215 
L 213.037676 201.572103 
L 213.213069 201.448992 
L 213.385882 201.325881 
L 213.555137 201.202769 
L 213.720089 201.079658 
L 213.880207 200.956547 
L 214.035146 200.833435 
L 214.184719 200.710324 
L 214.328864 200.587212 
L 214.467612 200.464101 
L 214.601054 200.34099 
L 214.729318 200.217878 
L 214.852544 200.094767 
L 214.970871 199.971656 
L 215.084422 199.848544 
L 215.193301 199.725433 
L 215.297594 199.602321 
L 215.397368 199.47921 
L 215.492678 199.356099 
L 215.583576 199.232987 
L 215.670111 199.109876 
L 215.752341 198.986764 
L 215.830333 198.863653 
L 215.904168 198.740542 
L 215.973941 198.61743 
L 216.039762 198.494319 
L 216.101752 198.371208 
L 216.160046 198.248096 
L 216.214788 198.124985 
L 216.266132 198.001873 
L 216.314239 197.878762 
L 216.359279 197.755651 
L 216.40143 197.632539 
L 216.440882 197.509428 
L 216.477833 197.386316 
L 216.512495 197.263205 
L 216.545096 197.140094 
L 216.575877 197.016982 
L 216.605094 196.893871 
L 216.63302 196.77076 
L 216.659942 196.647648 
L 216.686154 196.524537 
L 216.711958 196.401425 
L 216.737655 196.278314 
L 216.763537 196.155203 
L 216.789878 196.032091 
L 216.816925 195.90898 
L 216.844885 195.785869 
L 216.873921 195.662757 
L 216.904136 195.539646 
L 216.935571 195.416534 
L 216.968201 195.293423 
L 217.001932 195.170312 
L 218.117071 195.170312 
L 218.117071 195.170312 
L 218.150801 195.293423 
L 218.183432 195.416534 
L 218.214867 195.539646 
L 218.245082 195.662757 
L 218.274117 195.785869 
L 218.302078 195.90898 
L 218.329125 196.032091 
L 218.355466 196.155203 
L 218.381348 196.278314 
L 218.407045 196.401425 
L 218.432849 196.524537 
L 218.459061 196.647648 
L 218.485982 196.77076 
L 218.513909 196.893871 
L 218.543126 197.016982 
L 218.573906 197.140094 
L 218.606507 197.263205 
L 218.64117 197.386316 
L 218.678121 197.509428 
L 218.717573 197.632539 
L 218.759724 197.755651 
L 218.804764 197.878762 
L 218.852871 198.001873 
L 218.904214 198.124985 
L 218.958956 198.248096 
L 219.01725 198.371208 
L 219.079241 198.494319 
L 219.145061 198.61743 
L 219.214835 198.740542 
L 219.28867 198.863653 
L 219.366662 198.986764 
L 219.448892 199.109876 
L 219.535427 199.232987 
L 219.626324 199.356099 
L 219.721635 199.47921 
L 219.821409 199.602321 
L 219.925701 199.725433 
L 220.034581 199.848544 
L 220.148132 199.971656 
L 220.266458 200.094767 
L 220.389685 200.217878 
L 220.517949 200.34099 
L 220.651391 200.464101 
L 220.790139 200.587212 
L 220.934284 200.710324 
L 221.083857 200.833435 
L 221.238796 200.956547 
L 221.398913 201.079658 
L 221.563865 201.202769 
L 221.73312 201.325881 
L 221.905934 201.448992 
L 222.081327 201.572103 
L 222.258075 201.695215 
L 222.434703 201.818326 
L 222.609492 201.941438 
L 222.780493 202.064549 
L 222.945558 202.18766 
L 223.102372 202.310772 
L 223.248501 202.433883 
L 223.381449 202.556995 
L 223.498714 202.680106 
L 223.597864 202.803217 
L 223.676602 202.926329 
L 223.732845 203.04944 
L 223.764794 203.172551 
L 223.771004 203.295663 
L 223.750444 203.418774 
L 223.702549 203.541886 
L 223.627259 203.664997 
L 223.525038 203.788108 
L 223.396885 203.91122 
L 223.244311 204.034331 
L 223.069312 204.157443 
L 222.874316 204.280554 
L 222.662112 204.403665 
L 222.435771 204.526777 
L 222.198554 204.649888 
L 221.953808 204.772999 
L 221.704873 204.896111 
L 221.45498 205.019222 
L 221.207161 205.142334 
L 220.96417 205.265445 
L 220.728417 205.388556 
L 220.501918 205.511668 
L 220.286267 205.634779 
L 220.082619 205.75789 
L 219.8917 205.881002 
L 219.713826 206.004113 
L 219.548943 206.127225 
L 219.396675 206.250336 
L 219.256381 206.373447 
L 219.12722 206.496559 
L 219.008214 206.61967 
L 218.898317 206.742782 
L 218.796466 206.865893 
L 218.701641 206.989004 
L 218.612903 207.112116 
L 218.529429 207.235227 
L 218.450532 207.358338 
z
" clip-path="url(#p1974ab6c44)" style="fill: #1f77b4; fill-opacity: 0.3"/>
   </g>
   <g id="PolyCollection_8">
    <path d="M 246.606597 206.478606 
L 238.204428 206.478606 
L 237.673841 205.98882 
L 237.191176 205.499033 
L 236.782017 205.009247 
L 236.468941 204.519461 
L 236.269387 204.029675 
L 236.19401 203.539889 
L 236.245732 203.050103 
L 236.419625 202.560316 
L 236.703595 202.07053 
L 237.079768 201.580744 
L 237.526342 201.090958 
L 238.019639 200.601172 
L 238.536111 200.111386 
L 239.054058 199.621599 
L 239.554913 199.131813 
L 240.024032 198.642027 
L 240.450999 198.152241 
L 240.829502 197.662455 
L 241.156894 197.172669 
L 241.433568 196.682882 
L 241.662225 196.193096 
L 241.847159 195.70331 
L 241.993601 195.213524 
L 242.107164 194.723738 
L 242.193416 194.233952 
L 242.257575 193.744165 
L 242.304309 193.254379 
L 242.337636 192.764593 
L 242.360899 192.274807 
L 242.376787 191.785021 
L 242.3874 191.295235 
L 242.394334 190.805448 
L 242.398761 190.315662 
L 242.401524 189.825876 
L 242.403208 189.33609 
L 242.404211 188.846304 
L 242.404794 188.356518 
L 242.405125 187.866731 
L 242.405308 187.376945 
L 242.405408 186.887159 
L 242.40546 186.397373 
L 242.405487 185.907587 
L 242.4055 185.417801 
L 242.405507 184.928015 
L 242.40551 184.438228 
L 242.405511 183.948442 
L 242.405512 183.458656 
L 242.405512 182.96887 
L 242.405512 182.479084 
L 242.405512 181.989298 
L 242.405513 181.499511 
L 242.405513 181.009725 
L 242.405513 180.519939 
L 242.405513 180.030153 
L 242.405513 179.540367 
L 242.405513 179.050581 
L 242.405513 178.560794 
L 242.405513 178.071008 
L 242.405513 177.581222 
L 242.405513 177.091436 
L 242.405513 176.60165 
L 242.405513 176.111864 
L 242.405513 175.622077 
L 242.405513 175.132291 
L 242.405512 174.642505 
L 242.405512 174.152719 
L 242.405512 173.662933 
L 242.405512 173.173147 
L 242.405511 172.68336 
L 242.40551 172.193574 
L 242.405508 171.703788 
L 242.405502 171.214002 
L 242.405492 170.724216 
L 242.405472 170.23443 
L 242.405436 169.744643 
L 242.405372 169.254857 
L 242.405258 168.765071 
L 242.405066 168.275285 
L 242.404749 167.785499 
L 242.404241 167.295713 
L 242.403448 166.805927 
L 242.402247 166.31614 
L 242.400482 165.826354 
L 242.397964 165.336568 
L 242.394477 164.846782 
L 242.389796 164.356996 
L 242.383709 163.86721 
L 242.376046 163.377423 
L 242.36672 162.887637 
L 242.355762 162.397851 
L 242.343358 161.908065 
L 242.329868 161.418279 
L 242.31583 160.928493 
L 242.301936 160.438706 
L 242.288981 159.94892 
L 242.277795 159.459134 
L 242.269153 158.969348 
L 242.26369 158.479562 
L 242.26182 157.989776 
L 242.549205 157.989776 
L 242.549205 157.989776 
L 242.547335 158.479562 
L 242.541872 158.969348 
L 242.53323 159.459134 
L 242.522044 159.94892 
L 242.509089 160.438706 
L 242.495195 160.928493 
L 242.481157 161.418279 
L 242.467667 161.908065 
L 242.455263 162.397851 
L 242.444305 162.887637 
L 242.434979 163.377423 
L 242.427316 163.86721 
L 242.421229 164.356996 
L 242.416548 164.846782 
L 242.413062 165.336568 
L 242.410543 165.826354 
L 242.408778 166.31614 
L 242.407577 166.805927 
L 242.406784 167.295713 
L 242.406276 167.785499 
L 242.405959 168.275285 
L 242.405767 168.765071 
L 242.405653 169.254857 
L 242.405589 169.744643 
L 242.405553 170.23443 
L 242.405533 170.724216 
L 242.405523 171.214002 
L 242.405518 171.703788 
L 242.405515 172.193574 
L 242.405514 172.68336 
L 242.405513 173.173147 
L 242.405513 173.662933 
L 242.405513 174.152719 
L 242.405513 174.642505 
L 242.405513 175.132291 
L 242.405513 175.622077 
L 242.405513 176.111864 
L 242.405513 176.60165 
L 242.405513 177.091436 
L 242.405513 177.581222 
L 242.405513 178.071008 
L 242.405513 178.560794 
L 242.405513 179.050581 
L 242.405513 179.540367 
L 242.405513 180.030153 
L 242.405513 180.519939 
L 242.405513 181.009725 
L 242.405513 181.499511 
L 242.405513 181.989298 
L 242.405513 182.479084 
L 242.405513 182.96887 
L 242.405513 183.458656 
L 242.405514 183.948442 
L 242.405515 184.438228 
L 242.405518 184.928015 
L 242.405525 185.417801 
L 242.405538 185.907587 
L 242.405565 186.397373 
L 242.405618 186.887159 
L 242.405717 187.376945 
L 242.4059 187.866731 
L 242.406231 188.356518 
L 242.406814 188.846304 
L 242.407817 189.33609 
L 242.409501 189.825876 
L 242.412264 190.315662 
L 242.416691 190.805448 
L 242.423625 191.295235 
L 242.434238 191.785021 
L 242.450126 192.274807 
L 242.473389 192.764593 
L 242.506717 193.254379 
L 242.55345 193.744165 
L 242.617609 194.233952 
L 242.703861 194.723738 
L 242.817424 195.213524 
L 242.963866 195.70331 
L 243.1488 196.193096 
L 243.377458 196.682882 
L 243.654131 197.172669 
L 243.981523 197.662455 
L 244.360026 198.152241 
L 244.786993 198.642027 
L 245.256113 199.131813 
L 245.756967 199.621599 
L 246.274914 200.111386 
L 246.791386 200.601172 
L 247.284684 201.090958 
L 247.731257 201.580744 
L 248.10743 202.07053 
L 248.3914 202.560316 
L 248.565293 203.050103 
L 248.617015 203.539889 
L 248.541638 204.029675 
L 248.342084 204.519461 
L 248.029008 205.009247 
L 247.619849 205.499033 
L 247.137184 205.98882 
L 246.606597 206.478606 
z
" clip-path="url(#p1974ab6c44)" style="fill: #1f77b4; fill-opacity: 0.3"/>
   </g>
   <g id="PolyCollection_9">
    <path d="M 269.744208 207.238054 
L 264.758839 207.238054 
L 264.563704 207.156108 
L 264.366151 207.074162 
L 264.167255 206.992216 
L 263.968067 206.91027 
L 263.7696 206.828324 
L 263.57282 206.746378 
L 263.378633 206.664432 
L 263.187888 206.582486 
L 263.001374 206.500541 
L 262.819827 206.418595 
L 262.643932 206.336649 
L 262.474338 206.254703 
L 262.311661 206.172757 
L 262.156494 206.090811 
L 262.009414 206.008865 
L 261.870979 205.926919 
L 261.741737 205.844973 
L 261.622212 205.763027 
L 261.512903 205.681081 
L 261.414268 205.599135 
L 261.326713 205.517189 
L 261.250576 205.435243 
L 261.186109 205.353297 
L 261.133466 205.271351 
L 261.092686 205.189405 
L 261.063684 205.107459 
L 261.046246 205.025513 
L 261.040021 204.943567 
L 261.044531 204.861621 
L 261.059174 204.779675 
L 261.083239 204.69773 
L 261.115923 204.615784 
L 261.156352 204.533838 
L 261.203609 204.451892 
L 261.256758 204.369946 
L 261.314876 204.288 
L 261.377078 204.206054 
L 261.442551 204.124108 
L 261.510572 204.042162 
L 261.580538 203.960216 
L 261.651978 203.87827 
L 261.724569 203.796324 
L 261.798139 203.714378 
L 261.87267 203.632432 
L 261.948283 203.550486 
L 262.025232 203.46854 
L 262.103871 203.386594 
L 262.184633 203.304648 
L 262.267992 203.222702 
L 262.35443 203.140756 
L 262.444394 203.05881 
L 262.53826 202.976864 
L 262.636301 202.894919 
L 262.738652 202.812973 
L 262.845292 202.731027 
L 262.956029 202.649081 
L 263.070493 202.567135 
L 263.188146 202.485189 
L 263.308297 202.403243 
L 263.430131 202.321297 
L 263.552739 202.239351 
L 263.675162 202.157405 
L 263.796433 202.075459 
L 263.915623 201.993513 
L 264.031883 201.911567 
L 264.14448 201.829621 
L 264.252834 201.747675 
L 264.356533 201.665729 
L 264.455348 201.583783 
L 264.549237 201.501837 
L 264.638332 201.419891 
L 264.722921 201.337945 
L 264.803428 201.255999 
L 264.880372 201.174053 
L 264.954339 201.092108 
L 265.025943 201.010162 
L 265.095792 200.928216 
L 265.164453 200.84627 
L 265.232429 200.764324 
L 265.300138 200.682378 
L 265.367898 200.600432 
L 265.435923 200.518486 
L 265.504323 200.43654 
L 265.573111 200.354594 
L 265.642213 200.272648 
L 265.711487 200.190702 
L 265.78074 200.108756 
L 265.849742 200.02681 
L 265.918249 199.944864 
L 265.986016 199.862918 
L 266.05281 199.780972 
L 266.118423 199.699026 
L 266.182672 199.61708 
L 266.24541 199.535134 
L 266.30652 199.453188 
L 266.365917 199.371242 
L 266.423539 199.289297 
L 266.479345 199.207351 
L 266.533306 199.125405 
L 267.969741 199.125405 
L 267.969741 199.125405 
L 268.023703 199.207351 
L 268.079508 199.289297 
L 268.137131 199.371242 
L 268.196527 199.453188 
L 268.257638 199.535134 
L 268.320376 199.61708 
L 268.384625 199.699026 
L 268.450237 199.780972 
L 268.517031 199.862918 
L 268.584798 199.944864 
L 268.653306 200.02681 
L 268.722308 200.108756 
L 268.79156 200.190702 
L 268.860835 200.272648 
L 268.929937 200.354594 
L 268.998724 200.43654 
L 269.067124 200.518486 
L 269.135149 200.600432 
L 269.202909 200.682378 
L 269.270618 200.764324 
L 269.338594 200.84627 
L 269.407255 200.928216 
L 269.477104 201.010162 
L 269.548708 201.092108 
L 269.622676 201.174053 
L 269.69962 201.255999 
L 269.780126 201.337945 
L 269.864716 201.419891 
L 269.95381 201.501837 
L 270.047699 201.583783 
L 270.146515 201.665729 
L 270.250213 201.747675 
L 270.358567 201.829621 
L 270.471165 201.911567 
L 270.587424 201.993513 
L 270.706614 202.075459 
L 270.827885 202.157405 
L 270.950308 202.239351 
L 271.072916 202.321297 
L 271.19475 202.403243 
L 271.314902 202.485189 
L 271.432555 202.567135 
L 271.547018 202.649081 
L 271.657755 202.731027 
L 271.764395 202.812973 
L 271.866747 202.894919 
L 271.964787 202.976864 
L 272.058653 203.05881 
L 272.148617 203.140756 
L 272.235055 203.222702 
L 272.318415 203.304648 
L 272.399177 203.386594 
L 272.477816 203.46854 
L 272.554764 203.550486 
L 272.630378 203.632432 
L 272.704908 203.714378 
L 272.778478 203.796324 
L 272.851069 203.87827 
L 272.922509 203.960216 
L 272.992475 204.042162 
L 273.060496 204.124108 
L 273.125969 204.206054 
L 273.188172 204.288 
L 273.246289 204.369946 
L 273.299439 204.451892 
L 273.346695 204.533838 
L 273.387125 204.615784 
L 273.419808 204.69773 
L 273.443873 204.779675 
L 273.458516 204.861621 
L 273.463026 204.943567 
L 273.456802 205.025513 
L 273.439363 205.107459 
L 273.410362 205.189405 
L 273.369582 205.271351 
L 273.316938 205.353297 
L 273.252472 205.435243 
L 273.176334 205.517189 
L 273.088779 205.599135 
L 272.990144 205.681081 
L 272.880835 205.763027 
L 272.76131 205.844973 
L 272.632068 205.926919 
L 272.493634 206.008865 
L 272.346553 206.090811 
L 272.191386 206.172757 
L 272.028709 206.254703 
L 271.859115 206.336649 
L 271.683221 206.418595 
L 271.501673 206.500541 
L 271.315159 206.582486 
L 271.124414 206.664432 
L 270.930228 206.746378 
L 270.733447 206.828324 
L 270.53498 206.91027 
L 270.335792 206.992216 
L 270.136896 207.074162 
L 269.939344 207.156108 
L 269.744208 207.238054 
z
" clip-path="url(#p1974ab6c44)" style="fill: #1f77b4; fill-opacity: 0.3"/>
   </g>
   <g id="PolyCollection_10">
    <path d="M 292.984388 208.254328 
L 291.210682 208.254328 
L 291.089009 208.144819 
L 290.954604 208.03531 
L 290.806969 207.925801 
L 290.645803 207.816292 
L 290.471045 207.706783 
L 290.282914 207.597275 
L 290.08193 207.487766 
L 289.86893 207.378257 
L 289.64507 207.268748 
L 289.411813 207.159239 
L 289.170898 207.04973 
L 288.924305 206.940221 
L 288.674198 206.830712 
L 288.422875 206.721203 
L 288.172701 206.611695 
L 287.926052 206.502186 
L 287.685254 206.392677 
L 287.452538 206.283168 
L 287.229999 206.173659 
L 287.019567 206.06415 
L 286.822997 205.954641 
L 286.641859 205.845132 
L 286.47755 205.735623 
L 286.3313 205.626115 
L 286.204199 205.516606 
L 286.09721 205.407097 
L 286.011186 205.297588 
L 285.946887 205.188079 
L 285.904978 205.07857 
L 285.886032 204.969061 
L 285.890512 204.859552 
L 285.918751 204.750043 
L 285.970925 204.640535 
L 286.047018 204.531026 
L 286.146785 204.421517 
L 286.269723 204.312008 
L 286.415039 204.202499 
L 286.581628 204.09299 
L 286.768065 203.983481 
L 286.972606 203.873972 
L 287.193204 203.764463 
L 287.427536 203.654955 
L 287.673048 203.545446 
L 287.927005 203.435937 
L 288.186556 203.326428 
L 288.448799 203.216919 
L 288.710853 203.10741 
L 288.969929 202.997901 
L 289.223392 202.888392 
L 289.468821 202.778883 
L 289.704056 202.669375 
L 289.92724 202.559866 
L 290.136836 202.450357 
L 290.33164 202.340848 
L 290.510781 202.231339 
L 290.673705 202.12183 
L 290.820152 202.012321 
L 290.950122 201.902812 
L 291.063844 201.793303 
L 291.161738 201.683795 
L 291.244373 201.574286 
L 291.312443 201.464777 
L 291.366735 201.355268 
L 291.408108 201.245759 
L 291.437485 201.13625 
L 291.455839 201.026741 
L 291.464196 200.917232 
L 291.463634 200.807723 
L 291.455286 200.698215 
L 291.44034 200.588706 
L 291.420038 200.479197 
L 291.395664 200.369688 
L 291.368534 200.260179 
L 291.339972 200.15067 
L 291.311285 200.041161 
L 291.283726 199.931652 
L 291.258467 199.822143 
L 291.236558 199.712635 
L 291.218897 199.603126 
L 291.206198 199.493617 
L 291.198978 199.384108 
L 291.197535 199.274599 
L 291.201957 199.16509 
L 291.212123 199.055581 
L 291.227728 198.946072 
L 291.248305 198.836563 
L 291.273266 198.727055 
L 291.301936 198.617546 
L 291.333595 198.508037 
L 291.367516 198.398528 
L 291.403005 198.289019 
L 291.439423 198.17951 
L 291.476217 198.070001 
L 291.512923 197.960492 
L 291.549181 197.850983 
L 291.584724 197.741475 
L 291.619373 197.631966 
L 291.653023 197.522457 
L 291.68562 197.412948 
L 292.50945 197.412948 
L 292.50945 197.412948 
L 292.542047 197.522457 
L 292.575696 197.631966 
L 292.610346 197.741475 
L 292.645889 197.850983 
L 292.682146 197.960492 
L 292.718853 198.070001 
L 292.755646 198.17951 
L 292.792065 198.289019 
L 292.827554 198.398528 
L 292.861475 198.508037 
L 292.893133 198.617546 
L 292.921803 198.727055 
L 292.946764 198.836563 
L 292.967342 198.946072 
L 292.982947 199.055581 
L 292.993113 199.16509 
L 292.997535 199.274599 
L 292.996092 199.384108 
L 292.988871 199.493617 
L 292.976173 199.603126 
L 292.958511 199.712635 
L 292.936602 199.822143 
L 292.911344 199.931652 
L 292.883785 200.041161 
L 292.855097 200.15067 
L 292.826535 200.260179 
L 292.799405 200.369688 
L 292.775032 200.479197 
L 292.754729 200.588706 
L 292.739784 200.698215 
L 292.731436 200.807723 
L 292.730874 200.917232 
L 292.739231 201.026741 
L 292.757584 201.13625 
L 292.786961 201.245759 
L 292.828335 201.355268 
L 292.882626 201.464777 
L 292.950697 201.574286 
L 293.033332 201.683795 
L 293.131225 201.793303 
L 293.244948 201.902812 
L 293.374918 202.012321 
L 293.521364 202.12183 
L 293.684288 202.231339 
L 293.86343 202.340848 
L 294.058234 202.450357 
L 294.267829 202.559866 
L 294.491013 202.669375 
L 294.726249 202.778883 
L 294.971678 202.888392 
L 295.22514 202.997901 
L 295.484216 203.10741 
L 295.746271 203.216919 
L 296.008514 203.326428 
L 296.268065 203.435937 
L 296.522021 203.545446 
L 296.767533 203.654955 
L 297.001865 203.764463 
L 297.222463 203.873972 
L 297.427005 203.983481 
L 297.613442 204.09299 
L 297.780031 204.202499 
L 297.925346 204.312008 
L 298.048284 204.421517 
L 298.148052 204.531026 
L 298.224144 204.640535 
L 298.276318 204.750043 
L 298.304558 204.859552 
L 298.309038 204.969061 
L 298.290092 205.07857 
L 298.248183 205.188079 
L 298.183883 205.297588 
L 298.09786 205.407097 
L 297.99087 205.516606 
L 297.863769 205.626115 
L 297.71752 205.735623 
L 297.55321 205.845132 
L 297.372073 205.954641 
L 297.175503 206.06415 
L 296.965071 206.173659 
L 296.742531 206.283168 
L 296.509815 206.392677 
L 296.269017 206.502186 
L 296.022368 206.611695 
L 295.772195 206.721203 
L 295.520872 206.830712 
L 295.270765 206.940221 
L 295.024171 207.04973 
L 294.783257 207.159239 
L 294.55 207.268748 
L 294.32614 207.378257 
L 294.11314 207.487766 
L 293.912155 207.597275 
L 293.724024 207.706783 
L 293.549267 207.816292 
L 293.3881 207.925801 
L 293.240465 208.03531 
L 293.106061 208.144819 
L 292.984388 208.254328 
z
" clip-path="url(#p1974ab6c44)" style="fill: #1f77b4; fill-opacity: 0.3"/>
   </g>
   <g id="PolyCollection_11">
    <path d="M 318.733699 207.998481 
L 315.153393 207.998481 
L 314.970895 207.891758 
L 314.785693 207.785035 
L 314.598779 207.678312 
L 314.410759 207.571589 
L 314.221813 207.464866 
L 314.031691 207.358143 
L 313.839778 207.25142 
L 313.645205 207.144697 
L 313.44701 207.037974 
L 313.244335 206.931251 
L 313.036642 206.824528 
L 312.823915 206.717805 
L 312.606835 206.611082 
L 312.386898 206.504359 
L 312.166454 206.397636 
L 311.948657 206.290913 
L 311.737327 206.18419 
L 311.536721 206.077467 
L 311.351243 205.970744 
L 311.185111 205.864021 
L 311.042021 205.757298 
L 310.924831 205.650575 
L 310.835323 205.543852 
L 310.774044 205.437129 
L 310.740263 205.330406 
L 310.732043 205.223683 
L 310.746422 205.11696 
L 310.779686 205.010237 
L 310.827705 204.903514 
L 310.886292 204.796791 
L 310.951554 204.690068 
L 311.0202 204.583345 
L 311.08977 204.476622 
L 311.158774 204.369899 
L 311.226733 204.263176 
L 311.294127 204.156453 
L 311.362253 204.04973 
L 311.433036 203.943007 
L 311.508796 203.836284 
L 311.592015 203.729561 
L 311.685113 203.622838 
L 311.790259 203.516115 
L 311.909222 203.409392 
L 312.043275 203.30267 
L 312.193135 203.195947 
L 312.358946 203.089224 
L 312.54029 202.982501 
L 312.736217 202.875778 
L 312.945293 202.769055 
L 313.165647 202.662332 
L 313.395034 202.555609 
L 313.630901 202.448886 
L 313.87046 202.342163 
L 314.110773 202.23544 
L 314.348848 202.128717 
L 314.58174 202.021994 
L 314.806664 201.915271 
L 315.021104 201.808548 
L 315.22291 201.701825 
L 315.410387 201.595102 
L 315.582352 201.488379 
L 315.738165 201.381656 
L 315.877725 201.274933 
L 316.001437 201.16821 
L 316.110146 201.061487 
L 316.205043 200.954764 
L 316.287565 200.848041 
L 316.359285 200.741318 
L 316.421798 200.634595 
L 316.47663 200.527872 
L 316.525154 200.421149 
L 316.56854 200.314426 
L 316.607716 200.207703 
L 316.64336 200.10098 
L 316.675912 199.994257 
L 316.705596 199.887534 
L 316.732462 199.780811 
L 316.756425 199.674088 
L 316.777314 199.567365 
L 316.794914 199.460642 
L 316.809005 199.353919 
L 316.819398 199.247196 
L 316.82596 199.140473 
L 316.828634 199.03375 
L 316.827463 198.927027 
L 316.822591 198.820304 
L 316.81428 198.713581 
L 316.802904 198.606858 
L 316.788951 198.500135 
L 316.773011 198.393412 
L 316.755765 198.286689 
L 316.737962 198.179966 
L 316.72039 198.073243 
L 316.703846 197.96652 
L 316.689096 197.859797 
L 316.676839 197.753074 
L 316.667671 197.646351 
L 316.662049 197.539628 
L 316.66027 197.432905 
L 317.226822 197.432905 
L 317.226822 197.432905 
L 317.225043 197.539628 
L 317.219421 197.646351 
L 317.210253 197.753074 
L 317.197996 197.859797 
L 317.183246 197.96652 
L 317.166702 198.073243 
L 317.14913 198.179966 
L 317.131326 198.286689 
L 317.114081 198.393412 
L 317.098141 198.500135 
L 317.084188 198.606858 
L 317.072812 198.713581 
L 317.064501 198.820304 
L 317.059629 198.927027 
L 317.058458 199.03375 
L 317.061132 199.140473 
L 317.067693 199.247196 
L 317.078086 199.353919 
L 317.092178 199.460642 
L 317.109778 199.567365 
L 317.130667 199.674088 
L 317.15463 199.780811 
L 317.181495 199.887534 
L 317.21118 199.994257 
L 317.243731 200.10098 
L 317.279376 200.207703 
L 317.318552 200.314426 
L 317.361938 200.421149 
L 317.410462 200.527872 
L 317.465294 200.634595 
L 317.527807 200.741318 
L 317.599526 200.848041 
L 317.682049 200.954764 
L 317.776946 201.061487 
L 317.885654 201.16821 
L 318.009367 201.274933 
L 318.148927 201.381656 
L 318.30474 201.488379 
L 318.476704 201.595102 
L 318.664182 201.701825 
L 318.865988 201.808548 
L 319.080428 201.915271 
L 319.305352 202.021994 
L 319.538244 202.128717 
L 319.776319 202.23544 
L 320.016632 202.342163 
L 320.256191 202.448886 
L 320.492058 202.555609 
L 320.721445 202.662332 
L 320.941799 202.769055 
L 321.150874 202.875778 
L 321.346802 202.982501 
L 321.528146 203.089224 
L 321.693957 203.195947 
L 321.843817 203.30267 
L 321.97787 203.409392 
L 322.096833 203.516115 
L 322.201979 203.622838 
L 322.295077 203.729561 
L 322.378296 203.836284 
L 322.454056 203.943007 
L 322.524839 204.04973 
L 322.592965 204.156453 
L 322.660358 204.263176 
L 322.728318 204.369899 
L 322.797322 204.476622 
L 322.866892 204.583345 
L 322.935538 204.690068 
L 323.0008 204.796791 
L 323.059387 204.903514 
L 323.107406 205.010237 
L 323.14067 205.11696 
L 323.155049 205.223683 
L 323.146829 205.330406 
L 323.113048 205.437129 
L 323.051769 205.543852 
L 322.962261 205.650575 
L 322.845071 205.757298 
L 322.701981 205.864021 
L 322.535849 205.970744 
L 322.350371 206.077467 
L 322.149765 206.18419 
L 321.938435 206.290913 
L 321.720638 206.397636 
L 321.500193 206.504359 
L 321.280257 206.611082 
L 321.063177 206.717805 
L 320.85045 206.824528 
L 320.642756 206.931251 
L 320.440082 207.037974 
L 320.241887 207.144697 
L 320.047314 207.25142 
L 319.855401 207.358143 
L 319.665279 207.464866 
L 319.476333 207.571589 
L 319.288313 207.678312 
L 319.101399 207.785035 
L 318.916196 207.891758 
L 318.733699 207.998481 
z
" clip-path="url(#p1974ab6c44)" style="fill: #1f77b4; fill-opacity: 0.3"/>
   </g>
   <g id="PolyCollection_12">
    <path d="M 342.955935 208.560492 
L 340.62318 208.560492 
L 340.499817 208.49156 
L 340.367566 208.422628 
L 340.226264 208.353696 
L 340.075841 208.284764 
L 339.916344 208.215832 
L 339.747955 208.1469 
L 339.571016 208.077968 
L 339.386042 208.009036 
L 339.193733 207.940104 
L 338.994985 207.871172 
L 338.790888 207.80224 
L 338.582717 207.733308 
L 338.371918 207.664376 
L 338.160081 207.595444 
L 337.94891 207.526512 
L 337.740178 207.45758 
L 337.535677 207.388648 
L 337.337172 207.319716 
L 337.146337 207.250784 
L 336.964707 207.181852 
L 336.793619 207.11292 
L 336.63417 207.043988 
L 336.487182 206.975056 
L 336.35317 206.906124 
L 336.232339 206.837192 
L 336.124584 206.76826 
L 336.029512 206.699328 
L 335.94648 206.630396 
L 335.874646 206.561464 
L 335.813027 206.492532 
L 335.760575 206.4236 
L 335.716251 206.354668 
L 335.679097 206.285736 
L 335.648304 206.216804 
L 335.623273 206.147872 
L 335.603658 206.07894 
L 335.589392 206.010008 
L 335.580695 205.941076 
L 335.578054 205.872144 
L 335.582196 205.803212 
L 335.594026 205.73428 
L 335.614566 205.665348 
L 335.644868 205.596416 
L 335.685933 205.527484 
L 335.738624 205.458552 
L 335.803589 205.38962 
L 335.881187 205.320688 
L 335.971443 205.251756 
L 336.07401 205.182824 
L 336.188167 205.113892 
L 336.312822 205.04496 
L 336.446559 204.976028 
L 336.587687 204.907096 
L 336.734314 204.838164 
L 336.884438 204.769232 
L 337.036029 204.7003 
L 337.187131 204.631368 
L 337.335942 204.562436 
L 337.480896 204.493504 
L 337.62072 204.424572 
L 337.754485 204.35564 
L 337.88162 204.286708 
L 338.00192 204.217776 
L 338.115523 204.148844 
L 338.222873 204.079912 
L 338.324667 204.01098 
L 338.42179 203.942048 
L 338.515243 203.873116 
L 338.606068 203.804184 
L 338.69528 203.735252 
L 338.783801 203.66632 
L 338.872411 203.597388 
L 338.961702 203.528456 
L 339.052061 203.459524 
L 339.143655 203.390592 
L 339.236438 203.32166 
L 339.33017 203.252728 
L 339.424448 203.183796 
L 339.518739 203.114864 
L 339.612426 203.045932 
L 339.704852 202.977 
L 339.795364 202.908068 
L 339.88335 202.839136 
L 339.968277 202.770204 
L 340.049719 202.701272 
L 340.127374 202.63234 
L 340.201075 202.563408 
L 340.270795 202.494476 
L 340.33664 202.425544 
L 340.398838 202.356612 
L 340.457722 202.28768 
L 340.513705 202.218748 
L 340.567259 202.149816 
L 340.618884 202.080884 
L 340.669086 202.011952 
L 340.718345 201.94302 
L 340.767097 201.874088 
L 340.815712 201.805156 
L 340.864477 201.736224 
L 342.714637 201.736224 
L 342.714637 201.736224 
L 342.763402 201.805156 
L 342.812017 201.874088 
L 342.860769 201.94302 
L 342.910028 202.011952 
L 342.96023 202.080884 
L 343.011855 202.149816 
L 343.065409 202.218748 
L 343.121392 202.28768 
L 343.180276 202.356612 
L 343.242474 202.425544 
L 343.308319 202.494476 
L 343.378039 202.563408 
L 343.45174 202.63234 
L 343.529395 202.701272 
L 343.610837 202.770204 
L 343.695765 202.839136 
L 343.78375 202.908068 
L 343.874262 202.977 
L 343.966688 203.045932 
L 344.060375 203.114864 
L 344.154666 203.183796 
L 344.248944 203.252728 
L 344.342676 203.32166 
L 344.435459 203.390592 
L 344.527053 203.459524 
L 344.617412 203.528456 
L 344.706704 203.597388 
L 344.795313 203.66632 
L 344.883835 203.735252 
L 344.973046 203.804184 
L 345.063871 203.873116 
L 345.157324 203.942048 
L 345.254447 204.01098 
L 345.356241 204.079912 
L 345.463591 204.148844 
L 345.577194 204.217776 
L 345.697494 204.286708 
L 345.824629 204.35564 
L 345.958394 204.424572 
L 346.098219 204.493504 
L 346.243172 204.562436 
L 346.391983 204.631368 
L 346.543085 204.7003 
L 346.694676 204.769232 
L 346.8448 204.838164 
L 346.991427 204.907096 
L 347.132555 204.976028 
L 347.266292 205.04496 
L 347.390947 205.113892 
L 347.505104 205.182824 
L 347.607672 205.251756 
L 347.697927 205.320688 
L 347.775525 205.38962 
L 347.84049 205.458552 
L 347.893181 205.527484 
L 347.934247 205.596416 
L 347.964548 205.665348 
L 347.985088 205.73428 
L 347.996918 205.803212 
L 348.00106 205.872144 
L 347.998419 205.941076 
L 347.989722 206.010008 
L 347.975456 206.07894 
L 347.955842 206.147872 
L 347.930811 206.216804 
L 347.900017 206.285736 
L 347.862863 206.354668 
L 347.818539 206.4236 
L 347.766087 206.492532 
L 347.704468 206.561464 
L 347.632634 206.630396 
L 347.549602 206.699328 
L 347.45453 206.76826 
L 347.346775 206.837192 
L 347.225944 206.906124 
L 347.091932 206.975056 
L 346.944944 207.043988 
L 346.785496 207.11292 
L 346.614407 207.181852 
L 346.432777 207.250784 
L 346.241942 207.319716 
L 346.043437 207.388648 
L 345.838936 207.45758 
L 345.630204 207.526512 
L 345.419033 207.595444 
L 345.207197 207.664376 
L 344.996397 207.733308 
L 344.788226 207.80224 
L 344.584129 207.871172 
L 344.385381 207.940104 
L 344.193073 208.009036 
L 344.008098 208.077968 
L 343.831159 208.1469 
L 343.66277 208.215832 
L 343.503273 208.284764 
L 343.35285 208.353696 
L 343.211548 208.422628 
L 343.079297 208.49156 
L 342.955935 208.560492 
z
" clip-path="url(#p1974ab6c44)" style="fill: #1f77b4; fill-opacity: 0.3"/>
   </g>
   <g id="matplotlib.axis_1">
    <g id="xtick_1">
     <g id="line2d_2">
      <defs>
       <path id="m9e528e86eb" d="M 0 0 
L 0 -3.5 
" style="stroke: #000000; stroke-width: 0.8"/>
      </defs>
      <g>
       <use xlink:href="#m9e528e86eb" x="68.483435" y="232.513594" style="stroke: #000000; stroke-width: 0.8"/>
      </g>
     </g>
     <g id="text_1">
      <!-- 40 -->
      <g transform="translate(56.249372 251.760781) scale(0.22 -0.22)">
       <defs>
        <path id="ArialMT-34" d="M 2069 0 
L 2069 1097 
L 81 1097 
L 81 1613 
L 2172 4581 
L 2631 4581 
L 2631 1613 
L 3250 1613 
L 3250 1097 
L 2631 1097 
L 2631 0 
L 2069 0 
z
M 2069 1613 
L 2069 3678 
L 634 1613 
L 2069 1613 
z
" transform="scale(0.015625)"/>
        <path id="ArialMT-30" d="M 266 2259 
Q 266 3072 433 3567 
Q 600 4063 929 4331 
Q 1259 4600 1759 4600 
Q 2128 4600 2406 4451 
Q 2684 4303 2865 4023 
Q 3047 3744 3150 3342 
Q 3253 2941 3253 2259 
Q 3253 1453 3087 958 
Q 2922 463 2592 192 
Q 2263 -78 1759 -78 
Q 1097 -78 719 397 
Q 266 969 266 2259 
z
M 844 2259 
Q 844 1131 1108 757 
Q 1372 384 1759 384 
Q 2147 384 2411 759 
Q 2675 1134 2675 2259 
Q 2675 3391 2411 3762 
Q 2147 4134 1753 4134 
Q 1366 4134 1134 3806 
Q 844 3388 844 2259 
z
" transform="scale(0.015625)"/>
       </defs>
       <use xlink:href="#ArialMT-34"/>
       <use xlink:href="#ArialMT-30" x="55.615234"/>
      </g>
     </g>
    </g>
    <g id="xtick_2">
     <g id="line2d_3">
      <g>
       <use xlink:href="#m9e528e86eb" x="118.175457" y="232.513594" style="stroke: #000000; stroke-width: 0.8"/>
      </g>
     </g>
     <g id="text_2">
      <!-- 60 -->
      <g transform="translate(105.941394 251.760781) scale(0.22 -0.22)">
       <defs>
        <path id="ArialMT-36" d="M 3184 3459 
L 2625 3416 
Q 2550 3747 2413 3897 
Q 2184 4138 1850 4138 
Q 1581 4138 1378 3988 
Q 1113 3794 959 3422 
Q 806 3050 800 2363 
Q 1003 2672 1297 2822 
Q 1591 2972 1913 2972 
Q 2475 2972 2870 2558 
Q 3266 2144 3266 1488 
Q 3266 1056 3080 686 
Q 2894 316 2569 119 
Q 2244 -78 1831 -78 
Q 1128 -78 684 439 
Q 241 956 241 2144 
Q 241 3472 731 4075 
Q 1159 4600 1884 4600 
Q 2425 4600 2770 4297 
Q 3116 3994 3184 3459 
z
M 888 1484 
Q 888 1194 1011 928 
Q 1134 663 1356 523 
Q 1578 384 1822 384 
Q 2178 384 2434 671 
Q 2691 959 2691 1453 
Q 2691 1928 2437 2201 
Q 2184 2475 1800 2475 
Q 1419 2475 1153 2201 
Q 888 1928 888 1484 
z
" transform="scale(0.015625)"/>
       </defs>
       <use xlink:href="#ArialMT-36"/>
       <use xlink:href="#ArialMT-30" x="55.615234"/>
      </g>
     </g>
    </g>
    <g id="xtick_3">
     <g id="line2d_4">
      <g>
       <use xlink:href="#m9e528e86eb" x="167.867479" y="232.513594" style="stroke: #000000; stroke-width: 0.8"/>
      </g>
     </g>
     <g id="text_3">
      <!-- 80 -->
      <g transform="translate(155.633417 251.760781) scale(0.22 -0.22)">
       <defs>
        <path id="ArialMT-38" d="M 1131 2484 
Q 781 2613 612 2850 
Q 444 3088 444 3419 
Q 444 3919 803 4259 
Q 1163 4600 1759 4600 
Q 2359 4600 2725 4251 
Q 3091 3903 3091 3403 
Q 3091 3084 2923 2848 
Q 2756 2613 2416 2484 
Q 2838 2347 3058 2040 
Q 3278 1734 3278 1309 
Q 3278 722 2862 322 
Q 2447 -78 1769 -78 
Q 1091 -78 675 323 
Q 259 725 259 1325 
Q 259 1772 486 2073 
Q 713 2375 1131 2484 
z
M 1019 3438 
Q 1019 3113 1228 2906 
Q 1438 2700 1772 2700 
Q 2097 2700 2305 2904 
Q 2513 3109 2513 3406 
Q 2513 3716 2298 3927 
Q 2084 4138 1766 4138 
Q 1444 4138 1231 3931 
Q 1019 3725 1019 3438 
z
M 838 1322 
Q 838 1081 952 856 
Q 1066 631 1291 507 
Q 1516 384 1775 384 
Q 2178 384 2440 643 
Q 2703 903 2703 1303 
Q 2703 1709 2433 1975 
Q 2163 2241 1756 2241 
Q 1359 2241 1098 1978 
Q 838 1716 838 1322 
z
" transform="scale(0.015625)"/>
       </defs>
       <use xlink:href="#ArialMT-38"/>
       <use xlink:href="#ArialMT-30" x="55.615234"/>
      </g>
     </g>
    </g>
    <g id="xtick_4">
     <g id="line2d_5">
      <g>
       <use xlink:href="#m9e528e86eb" x="217.559501" y="232.513594" style="stroke: #000000; stroke-width: 0.8"/>
      </g>
     </g>
     <g id="text_4">
      <!-- 100 -->
      <g transform="translate(199.208408 251.760781) scale(0.22 -0.22)">
       <defs>
        <path id="ArialMT-31" d="M 2384 0 
L 1822 0 
L 1822 3584 
Q 1619 3391 1289 3197 
Q 959 3003 697 2906 
L 697 3450 
Q 1169 3672 1522 3987 
Q 1875 4303 2022 4600 
L 2384 4600 
L 2384 0 
z
" transform="scale(0.015625)"/>
       </defs>
       <use xlink:href="#ArialMT-31"/>
       <use xlink:href="#ArialMT-30" x="55.615234"/>
       <use xlink:href="#ArialMT-30" x="111.230469"/>
      </g>
     </g>
    </g>
    <g id="xtick_5">
     <g id="line2d_6">
      <g>
       <use xlink:href="#m9e528e86eb" x="267.251524" y="232.513594" style="stroke: #000000; stroke-width: 0.8"/>
      </g>
     </g>
     <g id="text_5">
      <!-- 120 -->
      <g transform="translate(248.90043 251.760781) scale(0.22 -0.22)">
       <defs>
        <path id="ArialMT-32" d="M 3222 541 
L 3222 0 
L 194 0 
Q 188 203 259 391 
Q 375 700 629 1000 
Q 884 1300 1366 1694 
Q 2113 2306 2375 2664 
Q 2638 3022 2638 3341 
Q 2638 3675 2398 3904 
Q 2159 4134 1775 4134 
Q 1369 4134 1125 3890 
Q 881 3647 878 3216 
L 300 3275 
Q 359 3922 746 4261 
Q 1134 4600 1788 4600 
Q 2447 4600 2831 4234 
Q 3216 3869 3216 3328 
Q 3216 3053 3103 2787 
Q 2991 2522 2730 2228 
Q 2469 1934 1863 1422 
Q 1356 997 1212 845 
Q 1069 694 975 541 
L 3222 541 
z
" transform="scale(0.015625)"/>
       </defs>
       <use xlink:href="#ArialMT-31"/>
       <use xlink:href="#ArialMT-32" x="55.615234"/>
       <use xlink:href="#ArialMT-30" x="111.230469"/>
      </g>
     </g>
    </g>
    <g id="xtick_6">
     <g id="line2d_7">
      <g>
       <use xlink:href="#m9e528e86eb" x="316.943546" y="232.513594" style="stroke: #000000; stroke-width: 0.8"/>
      </g>
     </g>
     <g id="text_6">
      <!-- 140 -->
      <g transform="translate(298.592452 251.760781) scale(0.22 -0.22)">
       <use xlink:href="#ArialMT-31"/>
       <use xlink:href="#ArialMT-34" x="55.615234"/>
       <use xlink:href="#ArialMT-30" x="111.230469"/>
      </g>
     </g>
    </g>
    <g id="text_7">
     <!-- Num. of ensemble -->
     <g transform="translate(125.197344 275.880469) scale(0.22 -0.22)">
      <defs>
       <path id="ArialMT-4e" d="M 488 0 
L 488 4581 
L 1109 4581 
L 3516 984 
L 3516 4581 
L 4097 4581 
L 4097 0 
L 3475 0 
L 1069 3600 
L 1069 0 
L 488 0 
z
" transform="scale(0.015625)"/>
       <path id="ArialMT-75" d="M 2597 0 
L 2597 488 
Q 2209 -75 1544 -75 
Q 1250 -75 995 37 
Q 741 150 617 320 
Q 494 491 444 738 
Q 409 903 409 1263 
L 409 3319 
L 972 3319 
L 972 1478 
Q 972 1038 1006 884 
Q 1059 663 1231 536 
Q 1403 409 1656 409 
Q 1909 409 2131 539 
Q 2353 669 2445 892 
Q 2538 1116 2538 1541 
L 2538 3319 
L 3100 3319 
L 3100 0 
L 2597 0 
z
" transform="scale(0.015625)"/>
       <path id="ArialMT-6d" d="M 422 0 
L 422 3319 
L 925 3319 
L 925 2853 
Q 1081 3097 1340 3245 
Q 1600 3394 1931 3394 
Q 2300 3394 2536 3241 
Q 2772 3088 2869 2813 
Q 3263 3394 3894 3394 
Q 4388 3394 4653 3120 
Q 4919 2847 4919 2278 
L 4919 0 
L 4359 0 
L 4359 2091 
Q 4359 2428 4304 2576 
Q 4250 2725 4106 2815 
Q 3963 2906 3769 2906 
Q 3419 2906 3187 2673 
Q 2956 2441 2956 1928 
L 2956 0 
L 2394 0 
L 2394 2156 
Q 2394 2531 2256 2718 
Q 2119 2906 1806 2906 
Q 1569 2906 1367 2781 
Q 1166 2656 1075 2415 
Q 984 2175 984 1722 
L 984 0 
L 422 0 
z
" transform="scale(0.015625)"/>
       <path id="ArialMT-2e" d="M 581 0 
L 581 641 
L 1222 641 
L 1222 0 
L 581 0 
z
" transform="scale(0.015625)"/>
       <path id="ArialMT-20" transform="scale(0.015625)"/>
       <path id="ArialMT-6f" d="M 213 1659 
Q 213 2581 725 3025 
Q 1153 3394 1769 3394 
Q 2453 3394 2887 2945 
Q 3322 2497 3322 1706 
Q 3322 1066 3130 698 
Q 2938 331 2570 128 
Q 2203 -75 1769 -75 
Q 1072 -75 642 372 
Q 213 819 213 1659 
z
M 791 1659 
Q 791 1022 1069 705 
Q 1347 388 1769 388 
Q 2188 388 2466 706 
Q 2744 1025 2744 1678 
Q 2744 2294 2464 2611 
Q 2184 2928 1769 2928 
Q 1347 2928 1069 2612 
Q 791 2297 791 1659 
z
" transform="scale(0.015625)"/>
       <path id="ArialMT-66" d="M 556 0 
L 556 2881 
L 59 2881 
L 59 3319 
L 556 3319 
L 556 3672 
Q 556 4006 616 4169 
Q 697 4388 901 4523 
Q 1106 4659 1475 4659 
Q 1713 4659 2000 4603 
L 1916 4113 
Q 1741 4144 1584 4144 
Q 1328 4144 1222 4034 
Q 1116 3925 1116 3625 
L 1116 3319 
L 1763 3319 
L 1763 2881 
L 1116 2881 
L 1116 0 
L 556 0 
z
" transform="scale(0.015625)"/>
       <path id="ArialMT-65" d="M 2694 1069 
L 3275 997 
Q 3138 488 2766 206 
Q 2394 -75 1816 -75 
Q 1088 -75 661 373 
Q 234 822 234 1631 
Q 234 2469 665 2931 
Q 1097 3394 1784 3394 
Q 2450 3394 2872 2941 
Q 3294 2488 3294 1666 
Q 3294 1616 3291 1516 
L 816 1516 
Q 847 969 1125 678 
Q 1403 388 1819 388 
Q 2128 388 2347 550 
Q 2566 713 2694 1069 
z
M 847 1978 
L 2700 1978 
Q 2663 2397 2488 2606 
Q 2219 2931 1791 2931 
Q 1403 2931 1139 2672 
Q 875 2413 847 1978 
z
" transform="scale(0.015625)"/>
       <path id="ArialMT-6e" d="M 422 0 
L 422 3319 
L 928 3319 
L 928 2847 
Q 1294 3394 1984 3394 
Q 2284 3394 2536 3286 
Q 2788 3178 2913 3003 
Q 3038 2828 3088 2588 
Q 3119 2431 3119 2041 
L 3119 0 
L 2556 0 
L 2556 2019 
Q 2556 2363 2490 2533 
Q 2425 2703 2258 2804 
Q 2091 2906 1866 2906 
Q 1506 2906 1245 2678 
Q 984 2450 984 1813 
L 984 0 
L 422 0 
z
" transform="scale(0.015625)"/>
       <path id="ArialMT-73" d="M 197 991 
L 753 1078 
Q 800 744 1014 566 
Q 1228 388 1613 388 
Q 2000 388 2187 545 
Q 2375 703 2375 916 
Q 2375 1106 2209 1216 
Q 2094 1291 1634 1406 
Q 1016 1563 777 1677 
Q 538 1791 414 1992 
Q 291 2194 291 2438 
Q 291 2659 392 2848 
Q 494 3038 669 3163 
Q 800 3259 1026 3326 
Q 1253 3394 1513 3394 
Q 1903 3394 2198 3281 
Q 2494 3169 2634 2976 
Q 2775 2784 2828 2463 
L 2278 2388 
Q 2241 2644 2061 2787 
Q 1881 2931 1553 2931 
Q 1166 2931 1000 2803 
Q 834 2675 834 2503 
Q 834 2394 903 2306 
Q 972 2216 1119 2156 
Q 1203 2125 1616 2013 
Q 2213 1853 2448 1751 
Q 2684 1650 2818 1456 
Q 2953 1263 2953 975 
Q 2953 694 2789 445 
Q 2625 197 2315 61 
Q 2006 -75 1616 -75 
Q 969 -75 630 194 
Q 291 463 197 991 
z
" transform="scale(0.015625)"/>
       <path id="ArialMT-62" d="M 941 0 
L 419 0 
L 419 4581 
L 981 4581 
L 981 2947 
Q 1338 3394 1891 3394 
Q 2197 3394 2470 3270 
Q 2744 3147 2920 2923 
Q 3097 2700 3197 2384 
Q 3297 2069 3297 1709 
Q 3297 856 2875 390 
Q 2453 -75 1863 -75 
Q 1275 -75 941 416 
L 941 0 
z
M 934 1684 
Q 934 1088 1097 822 
Q 1363 388 1816 388 
Q 2184 388 2453 708 
Q 2722 1028 2722 1663 
Q 2722 2313 2464 2622 
Q 2206 2931 1841 2931 
Q 1472 2931 1203 2611 
Q 934 2291 934 1684 
z
" transform="scale(0.015625)"/>
       <path id="ArialMT-6c" d="M 409 0 
L 409 4581 
L 972 4581 
L 972 0 
L 409 0 
z
" transform="scale(0.015625)"/>
      </defs>
      <use xlink:href="#ArialMT-4e"/>
      <use xlink:href="#ArialMT-75" x="72.216797"/>
      <use xlink:href="#ArialMT-6d" x="127.832031"/>
      <use xlink:href="#ArialMT-2e" x="211.132812"/>
      <use xlink:href="#ArialMT-20" x="238.916016"/>
      <use xlink:href="#ArialMT-6f" x="266.699219"/>
      <use xlink:href="#ArialMT-66" x="322.314453"/>
      <use xlink:href="#ArialMT-20" x="350.097656"/>
      <use xlink:href="#ArialMT-65" x="377.880859"/>
      <use xlink:href="#ArialMT-6e" x="433.496094"/>
      <use xlink:href="#ArialMT-73" x="489.111328"/>
      <use xlink:href="#ArialMT-65" x="539.111328"/>
      <use xlink:href="#ArialMT-6d" x="594.726562"/>
      <use xlink:href="#ArialMT-62" x="678.027344"/>
      <use xlink:href="#ArialMT-6c" x="733.642578"/>
      <use xlink:href="#ArialMT-65" x="755.859375"/>
     </g>
    </g>
   </g>
   <g id="matplotlib.axis_2">
    <g id="ytick_1">
     <g id="line2d_8">
      <defs>
       <path id="mc32f38c4cf" d="M 0 0 
L 3.5 0 
" style="stroke: #000000; stroke-width: 0.8"/>
      </defs>
      <g>
       <use xlink:href="#mc32f38c4cf" x="47.05375" y="218.923594" style="stroke: #000000; stroke-width: 0.8"/>
      </g>
     </g>
     <g id="text_8">
      <!-- 1 -->
      <g transform="translate(31.319688 226.797187) scale(0.22 -0.22)">
       <use xlink:href="#ArialMT-31"/>
      </g>
     </g>
    </g>
    <g id="ytick_2">
     <g id="line2d_9">
      <g>
       <use xlink:href="#mc32f38c4cf" x="47.05375" y="150.973594" style="stroke: #000000; stroke-width: 0.8"/>
      </g>
     </g>
     <g id="text_9">
      <!-- 2 -->
      <g transform="translate(31.319688 158.847187) scale(0.22 -0.22)">
       <use xlink:href="#ArialMT-32"/>
      </g>
     </g>
    </g>
    <g id="ytick_3">
     <g id="line2d_10">
      <g>
       <use xlink:href="#mc32f38c4cf" x="47.05375" y="83.023594" style="stroke: #000000; stroke-width: 0.8"/>
      </g>
     </g>
     <g id="text_10">
      <!-- 3 -->
      <g transform="translate(31.319688 90.897187) scale(0.22 -0.22)">
       <defs>
        <path id="ArialMT-33" d="M 269 1209 
L 831 1284 
Q 928 806 1161 595 
Q 1394 384 1728 384 
Q 2125 384 2398 659 
Q 2672 934 2672 1341 
Q 2672 1728 2419 1979 
Q 2166 2231 1775 2231 
Q 1616 2231 1378 2169 
L 1441 2663 
Q 1497 2656 1531 2656 
Q 1891 2656 2178 2843 
Q 2466 3031 2466 3422 
Q 2466 3731 2256 3934 
Q 2047 4138 1716 4138 
Q 1388 4138 1169 3931 
Q 950 3725 888 3313 
L 325 3413 
Q 428 3978 793 4289 
Q 1159 4600 1703 4600 
Q 2078 4600 2393 4439 
Q 2709 4278 2876 4000 
Q 3044 3722 3044 3409 
Q 3044 3113 2884 2869 
Q 2725 2625 2413 2481 
Q 2819 2388 3044 2092 
Q 3269 1797 3269 1353 
Q 3269 753 2831 336 
Q 2394 -81 1725 -81 
Q 1122 -81 723 278 
Q 325 638 269 1209 
z
" transform="scale(0.015625)"/>
       </defs>
       <use xlink:href="#ArialMT-33"/>
      </g>
     </g>
    </g>
    <g id="ytick_4">
     <g id="line2d_11">
      <g>
       <use xlink:href="#mc32f38c4cf" x="47.05375" y="15.073594" style="stroke: #000000; stroke-width: 0.8"/>
      </g>
     </g>
     <g id="text_11">
      <!-- 4 -->
      <g transform="translate(31.319688 22.947187) scale(0.22 -0.22)">
       <use xlink:href="#ArialMT-34"/>
      </g>
     </g>
    </g>
    <g id="text_12">
     <!-- estimated noise covariance -->
     <g transform="translate(22.947188 257.079219) rotate(-90) scale(0.22 -0.22)">
      <defs>
       <path id="ArialMT-74" d="M 1650 503 
L 1731 6 
Q 1494 -44 1306 -44 
Q 1000 -44 831 53 
Q 663 150 594 308 
Q 525 466 525 972 
L 525 2881 
L 113 2881 
L 113 3319 
L 525 3319 
L 525 4141 
L 1084 4478 
L 1084 3319 
L 1650 3319 
L 1650 2881 
L 1084 2881 
L 1084 941 
Q 1084 700 1114 631 
Q 1144 563 1211 522 
Q 1278 481 1403 481 
Q 1497 481 1650 503 
z
" transform="scale(0.015625)"/>
       <path id="ArialMT-69" d="M 425 3934 
L 425 4581 
L 988 4581 
L 988 3934 
L 425 3934 
z
M 425 0 
L 425 3319 
L 988 3319 
L 988 0 
L 425 0 
z
" transform="scale(0.015625)"/>
       <path id="ArialMT-61" d="M 2588 409 
Q 2275 144 1986 34 
Q 1697 -75 1366 -75 
Q 819 -75 525 192 
Q 231 459 231 875 
Q 231 1119 342 1320 
Q 453 1522 633 1644 
Q 813 1766 1038 1828 
Q 1203 1872 1538 1913 
Q 2219 1994 2541 2106 
Q 2544 2222 2544 2253 
Q 2544 2597 2384 2738 
Q 2169 2928 1744 2928 
Q 1347 2928 1158 2789 
Q 969 2650 878 2297 
L 328 2372 
Q 403 2725 575 2942 
Q 747 3159 1072 3276 
Q 1397 3394 1825 3394 
Q 2250 3394 2515 3294 
Q 2781 3194 2906 3042 
Q 3031 2891 3081 2659 
Q 3109 2516 3109 2141 
L 3109 1391 
Q 3109 606 3145 398 
Q 3181 191 3288 0 
L 2700 0 
Q 2613 175 2588 409 
z
M 2541 1666 
Q 2234 1541 1622 1453 
Q 1275 1403 1131 1340 
Q 988 1278 909 1158 
Q 831 1038 831 891 
Q 831 666 1001 516 
Q 1172 366 1500 366 
Q 1825 366 2078 508 
Q 2331 650 2450 897 
Q 2541 1088 2541 1459 
L 2541 1666 
z
" transform="scale(0.015625)"/>
       <path id="ArialMT-64" d="M 2575 0 
L 2575 419 
Q 2259 -75 1647 -75 
Q 1250 -75 917 144 
Q 584 363 401 755 
Q 219 1147 219 1656 
Q 219 2153 384 2558 
Q 550 2963 881 3178 
Q 1213 3394 1622 3394 
Q 1922 3394 2156 3267 
Q 2391 3141 2538 2938 
L 2538 4581 
L 3097 4581 
L 3097 0 
L 2575 0 
z
M 797 1656 
Q 797 1019 1065 703 
Q 1334 388 1700 388 
Q 2069 388 2326 689 
Q 2584 991 2584 1609 
Q 2584 2291 2321 2609 
Q 2059 2928 1675 2928 
Q 1300 2928 1048 2622 
Q 797 2316 797 1656 
z
" transform="scale(0.015625)"/>
       <path id="ArialMT-63" d="M 2588 1216 
L 3141 1144 
Q 3050 572 2676 248 
Q 2303 -75 1759 -75 
Q 1078 -75 664 370 
Q 250 816 250 1647 
Q 250 2184 428 2587 
Q 606 2991 970 3192 
Q 1334 3394 1763 3394 
Q 2303 3394 2647 3120 
Q 2991 2847 3088 2344 
L 2541 2259 
Q 2463 2594 2264 2762 
Q 2066 2931 1784 2931 
Q 1359 2931 1093 2626 
Q 828 2322 828 1663 
Q 828 994 1084 691 
Q 1341 388 1753 388 
Q 2084 388 2306 591 
Q 2528 794 2588 1216 
z
" transform="scale(0.015625)"/>
       <path id="ArialMT-76" d="M 1344 0 
L 81 3319 
L 675 3319 
L 1388 1331 
Q 1503 1009 1600 663 
Q 1675 925 1809 1294 
L 2547 3319 
L 3125 3319 
L 1869 0 
L 1344 0 
z
" transform="scale(0.015625)"/>
       <path id="ArialMT-72" d="M 416 0 
L 416 3319 
L 922 3319 
L 922 2816 
Q 1116 3169 1280 3281 
Q 1444 3394 1641 3394 
Q 1925 3394 2219 3213 
L 2025 2691 
Q 1819 2813 1613 2813 
Q 1428 2813 1281 2702 
Q 1134 2591 1072 2394 
Q 978 2094 978 1738 
L 978 0 
L 416 0 
z
" transform="scale(0.015625)"/>
      </defs>
      <use xlink:href="#ArialMT-65"/>
      <use xlink:href="#ArialMT-73" x="55.615234"/>
      <use xlink:href="#ArialMT-74" x="105.615234"/>
      <use xlink:href="#ArialMT-69" x="133.398438"/>
      <use xlink:href="#ArialMT-6d" x="155.615234"/>
      <use xlink:href="#ArialMT-61" x="238.916016"/>
      <use xlink:href="#ArialMT-74" x="294.53125"/>
      <use xlink:href="#ArialMT-65" x="322.314453"/>
      <use xlink:href="#ArialMT-64" x="377.929688"/>
      <use xlink:href="#ArialMT-20" x="433.544922"/>
      <use xlink:href="#ArialMT-6e" x="461.328125"/>
      <use xlink:href="#ArialMT-6f" x="516.943359"/>
      <use xlink:href="#ArialMT-69" x="572.558594"/>
      <use xlink:href="#ArialMT-73" x="594.775391"/>
      <use xlink:href="#ArialMT-65" x="644.775391"/>
      <use xlink:href="#ArialMT-20" x="700.390625"/>
      <use xlink:href="#ArialMT-63" x="728.173828"/>
      <use xlink:href="#ArialMT-6f" x="778.173828"/>
      <use xlink:href="#ArialMT-76" x="833.789062"/>
      <use xlink:href="#ArialMT-61" x="883.789062"/>
      <use xlink:href="#ArialMT-72" x="939.404297"/>
      <use xlink:href="#ArialMT-69" x="972.705078"/>
      <use xlink:href="#ArialMT-61" x="994.921875"/>
      <use xlink:href="#ArialMT-6e" x="1050.537109"/>
      <use xlink:href="#ArialMT-63" x="1106.152344"/>
      <use xlink:href="#ArialMT-65" x="1156.152344"/>
     </g>
    </g>
   </g>
   <g id="LineCollection_1">
    <path d="M 65.377683 147.386523 
L 71.589186 147.386523 
" clip-path="url(#p1974ab6c44)" style="fill: none; stroke: #1f77b4"/>
    <path d="M 90.223694 134.671513 
L 96.435197 134.671513 
" clip-path="url(#p1974ab6c44)" style="fill: none; stroke: #1f77b4"/>
    <path d="M 115.069705 138.127464 
L 121.281208 138.127464 
" clip-path="url(#p1974ab6c44)" style="fill: none; stroke: #1f77b4"/>
    <path d="M 139.915717 162.180973 
L 146.127219 162.180973 
" clip-path="url(#p1974ab6c44)" style="fill: none; stroke: #1f77b4"/>
    <path d="M 164.761728 188.160376 
L 170.973231 188.160376 
" clip-path="url(#p1974ab6c44)" style="fill: none; stroke: #1f77b4"/>
    <path d="M 189.607739 194.500262 
L 195.819242 194.500262 
" clip-path="url(#p1974ab6c44)" style="fill: none; stroke: #1f77b4"/>
    <path d="M 214.45375 195.170312 
L 220.665253 195.170312 
" clip-path="url(#p1974ab6c44)" style="fill: none; stroke: #1f77b4"/>
    <path d="M 239.299761 157.989776 
L 245.511264 157.989776 
" clip-path="url(#p1974ab6c44)" style="fill: none; stroke: #1f77b4"/>
    <path d="M 264.145772 199.125405 
L 270.357275 199.125405 
" clip-path="url(#p1974ab6c44)" style="fill: none; stroke: #1f77b4"/>
    <path d="M 288.991783 197.412948 
L 295.203286 197.412948 
" clip-path="url(#p1974ab6c44)" style="fill: none; stroke: #1f77b4"/>
    <path d="M 313.837795 197.432905 
L 320.049297 197.432905 
" clip-path="url(#p1974ab6c44)" style="fill: none; stroke: #1f77b4"/>
    <path d="M 338.683806 201.736224 
L 344.895308 201.736224 
" clip-path="url(#p1974ab6c44)" style="fill: none; stroke: #1f77b4"/>
   </g>
   <g id="LineCollection_2">
    <path d="M 65.377683 197.79837 
L 71.589186 197.79837 
" clip-path="url(#p1974ab6c44)" style="fill: none; stroke: #1f77b4"/>
    <path d="M 90.223694 200.487758 
L 96.435197 200.487758 
" clip-path="url(#p1974ab6c44)" style="fill: none; stroke: #1f77b4"/>
    <path d="M 115.069705 201.788413 
L 121.281208 201.788413 
" clip-path="url(#p1974ab6c44)" style="fill: none; stroke: #1f77b4"/>
    <path d="M 139.915717 204.664794 
L 146.127219 204.664794 
" clip-path="url(#p1974ab6c44)" style="fill: none; stroke: #1f77b4"/>
    <path d="M 164.761728 204.906732 
L 170.973231 204.906732 
" clip-path="url(#p1974ab6c44)" style="fill: none; stroke: #1f77b4"/>
    <path d="M 189.607739 206.139175 
L 195.819242 206.139175 
" clip-path="url(#p1974ab6c44)" style="fill: none; stroke: #1f77b4"/>
    <path d="M 214.45375 207.358338 
L 220.665253 207.358338 
" clip-path="url(#p1974ab6c44)" style="fill: none; stroke: #1f77b4"/>
    <path d="M 239.299761 206.478606 
L 245.511264 206.478606 
" clip-path="url(#p1974ab6c44)" style="fill: none; stroke: #1f77b4"/>
    <path d="M 264.145772 207.238054 
L 270.357275 207.238054 
" clip-path="url(#p1974ab6c44)" style="fill: none; stroke: #1f77b4"/>
    <path d="M 288.991783 208.254328 
L 295.203286 208.254328 
" clip-path="url(#p1974ab6c44)" style="fill: none; stroke: #1f77b4"/>
    <path d="M 313.837795 207.998481 
L 320.049297 207.998481 
" clip-path="url(#p1974ab6c44)" style="fill: none; stroke: #1f77b4"/>
    <path d="M 338.683806 208.560492 
L 344.895308 208.560492 
" clip-path="url(#p1974ab6c44)" style="fill: none; stroke: #1f77b4"/>
   </g>
   <g id="LineCollection_3">
    <path d="M 68.483435 197.79837 
L 68.483435 147.386523 
" clip-path="url(#p1974ab6c44)" style="fill: none; stroke: #1f77b4"/>
    <path d="M 93.329446 200.487758 
L 93.329446 134.671513 
" clip-path="url(#p1974ab6c44)" style="fill: none; stroke: #1f77b4"/>
    <path d="M 118.175457 201.788413 
L 118.175457 138.127464 
" clip-path="url(#p1974ab6c44)" style="fill: none; stroke: #1f77b4"/>
    <path d="M 143.021468 204.664794 
L 143.021468 162.180973 
" clip-path="url(#p1974ab6c44)" style="fill: none; stroke: #1f77b4"/>
    <path d="M 167.867479 204.906732 
L 167.867479 188.160376 
" clip-path="url(#p1974ab6c44)" style="fill: none; stroke: #1f77b4"/>
    <path d="M 192.71349 206.139175 
L 192.71349 194.500262 
" clip-path="url(#p1974ab6c44)" style="fill: none; stroke: #1f77b4"/>
    <path d="M 217.559501 207.358338 
L 217.559501 195.170312 
" clip-path="url(#p1974ab6c44)" style="fill: none; stroke: #1f77b4"/>
    <path d="M 242.405513 206.478606 
L 242.405513 157.989776 
" clip-path="url(#p1974ab6c44)" style="fill: none; stroke: #1f77b4"/>
    <path d="M 267.251524 207.238054 
L 267.251524 199.125405 
" clip-path="url(#p1974ab6c44)" style="fill: none; stroke: #1f77b4"/>
    <path d="M 292.097535 208.254328 
L 292.097535 197.412948 
" clip-path="url(#p1974ab6c44)" style="fill: none; stroke: #1f77b4"/>
    <path d="M 316.943546 207.998481 
L 316.943546 197.432905 
" clip-path="url(#p1974ab6c44)" style="fill: none; stroke: #1f77b4"/>
    <path d="M 341.789557 208.560492 
L 341.789557 201.736224 
" clip-path="url(#p1974ab6c44)" style="fill: none; stroke: #1f77b4"/>
   </g>
   <g id="LineCollection_4">
    <path d="M 65.377683 187.525725 
L 71.589186 187.525725 
" clip-path="url(#p1974ab6c44)" style="fill: none; stroke: #1f77b4"/>
    <path d="M 90.223694 192.860064 
L 96.435197 192.860064 
" clip-path="url(#p1974ab6c44)" style="fill: none; stroke: #1f77b4"/>
    <path d="M 115.069705 195.203035 
L 121.281208 195.203035 
" clip-path="url(#p1974ab6c44)" style="fill: none; stroke: #1f77b4"/>
    <path d="M 139.915717 198.457357 
L 146.127219 198.457357 
" clip-path="url(#p1974ab6c44)" style="fill: none; stroke: #1f77b4"/>
    <path d="M 164.761728 201.836174 
L 170.973231 201.836174 
" clip-path="url(#p1974ab6c44)" style="fill: none; stroke: #1f77b4"/>
    <path d="M 189.607739 201.580165 
L 195.819242 201.580165 
" clip-path="url(#p1974ab6c44)" style="fill: none; stroke: #1f77b4"/>
    <path d="M 214.45375 202.826705 
L 220.665253 202.826705 
" clip-path="url(#p1974ab6c44)" style="fill: none; stroke: #1f77b4"/>
    <path d="M 239.299761 203.586945 
L 245.511264 203.586945 
" clip-path="url(#p1974ab6c44)" style="fill: none; stroke: #1f77b4"/>
    <path d="M 264.145772 204.39559 
L 270.357275 204.39559 
" clip-path="url(#p1974ab6c44)" style="fill: none; stroke: #1f77b4"/>
    <path d="M 288.991783 204.817452 
L 295.203286 204.817452 
" clip-path="url(#p1974ab6c44)" style="fill: none; stroke: #1f77b4"/>
    <path d="M 313.837795 205.066914 
L 320.049297 205.066914 
" clip-path="url(#p1974ab6c44)" style="fill: none; stroke: #1f77b4"/>
    <path d="M 338.683806 205.511817 
L 344.895308 205.511817 
" clip-path="url(#p1974ab6c44)" style="fill: none; stroke: #1f77b4"/>
   </g>
   <g id="patch_3">
    <path d="M 47.05375 232.513594 
L 47.05375 15.073594 
" style="fill: none; stroke: #000000; stroke-width: 0.8; stroke-linejoin: miter; stroke-linecap: square"/>
   </g>
   <g id="patch_4">
    <path d="M 381.85375 232.513594 
L 381.85375 15.073594 
" style="fill: none; stroke: #000000; stroke-width: 0.8; stroke-linejoin: miter; stroke-linecap: square"/>
   </g>
   <g id="patch_5">
    <path d="M 47.05375 232.513594 
L 381.85375 232.513594 
" style="fill: none; stroke: #000000; stroke-width: 0.8; stroke-linejoin: miter; stroke-linecap: square"/>
   </g>
   <g id="patch_6">
    <path d="M 47.05375 15.073594 
L 381.85375 15.073594 
" style="fill: none; stroke: #000000; stroke-width: 0.8; stroke-linejoin: miter; stroke-linecap: square"/>
   </g>
  </g>
 </g>
 <defs>
  <clipPath id="p1974ab6c44">
   <rect x="47.05375" y="15.073594" width="334.8" height="217.44"/>
  </clipPath>
 </defs>
</svg>
